<svg xmlns="http://www.w3.org/2000/svg" width="1400" height="1400" viewBox="0 0 1400 1400" style="background:#0e0f13;font-family:monospace">
<text x="20" y="34" fill="#8ab4ff" font-size="22">arches — coldstart dependency graph (submodule fix)</text>
<text x="20" y="56" fill="#9aa0aa" font-size="14">261 files · 1010 edges</text>
<g stroke="#5b6070" stroke-opacity="0.18" stroke-width="0.6">
<line x1="1288.3" y1="438.6" x2="951.6" y2="423.7"/>
<line x1="1288.3" y1="438.6" x2="924.4" y2="433.0"/>
<line x1="737.5" y1="201.9" x2="951.6" y2="423.7"/>
<line x1="737.5" y1="201.9" x2="924.4" y2="433.0"/>
<line x1="737.5" y1="201.9" x2="839.5" y2="445.8"/>
<line x1="737.5" y1="201.9" x2="682.3" y2="321.4"/>
<line x1="717.1" y1="300.5" x2="737.5" y2="201.9"/>
<line x1="717.1" y1="300.5" x2="828.2" y2="375.9"/>
<line x1="717.1" y1="300.5" x2="951.6" y2="423.7"/>
<line x1="717.1" y1="300.5" x2="711.5" y2="426.7"/>
<line x1="717.1" y1="300.5" x2="924.4" y2="433.0"/>
<line x1="717.1" y1="300.5" x2="839.5" y2="445.8"/>
<line x1="717.1" y1="300.5" x2="682.3" y2="321.4"/>
<line x1="717.1" y1="300.5" x2="779.9" y2="518.7"/>
<line x1="717.1" y1="300.5" x2="528.0" y2="163.0"/>
<line x1="606.2" y1="20.0" x2="719.7" y2="257.5"/>
<line x1="606.2" y1="20.0" x2="523.5" y2="40.6"/>
<line x1="719.7" y1="257.5" x2="737.5" y2="201.9"/>
<line x1="719.7" y1="257.5" x2="951.6" y2="423.7"/>
<line x1="719.7" y1="257.5" x2="924.4" y2="433.0"/>
<line x1="719.7" y1="257.5" x2="839.5" y2="445.8"/>
<line x1="719.7" y1="257.5" x2="682.3" y2="321.4"/>
<line x1="719.7" y1="257.5" x2="779.9" y2="518.7"/>
<line x1="719.7" y1="257.5" x2="570.9" y2="391.7"/>
<line x1="523.5" y1="40.6" x2="737.5" y2="201.9"/>
<line x1="523.5" y1="40.6" x2="546.8" y2="20.0"/>
<line x1="523.5" y1="40.6" x2="682.3" y2="321.4"/>
<line x1="523.5" y1="40.6" x2="687.2" y2="240.8"/>
<line x1="828.2" y1="375.9" x2="613.4" y2="523.9"/>
<line x1="828.2" y1="375.9" x2="737.5" y2="201.9"/>
<line x1="828.2" y1="375.9" x2="606.2" y2="20.0"/>
<line x1="828.2" y1="375.9" x2="546.8" y2="20.0"/>
<line x1="828.2" y1="375.9" x2="951.6" y2="423.7"/>
<line x1="828.2" y1="375.9" x2="711.5" y2="426.7"/>
<line x1="828.2" y1="375.9" x2="754.0" y2="440.3"/>
<line x1="828.2" y1="375.9" x2="924.4" y2="433.0"/>
<line x1="828.2" y1="375.9" x2="839.5" y2="445.8"/>
<line x1="828.2" y1="375.9" x2="682.3" y2="321.4"/>
<line x1="828.2" y1="375.9" x2="811.4" y2="311.2"/>
<line x1="828.2" y1="375.9" x2="781.4" y2="330.7"/>
<line x1="828.2" y1="375.9" x2="687.2" y2="240.8"/>
<line x1="828.2" y1="375.9" x2="528.0" y2="163.0"/>
<line x1="828.2" y1="375.9" x2="1219.0" y2="246.9"/>
<line x1="828.2" y1="375.9" x2="803.5" y2="563.0"/>
<line x1="828.2" y1="375.9" x2="702.7" y2="684.4"/>
<line x1="828.2" y1="375.9" x2="798.8" y2="467.8"/>
<line x1="828.2" y1="375.9" x2="703.6" y2="155.8"/>
<line x1="606.1" y1="131.8" x2="737.5" y2="201.9"/>
<line x1="606.1" y1="131.8" x2="839.5" y2="445.8"/>
<line x1="606.1" y1="131.8" x2="682.3" y2="321.4"/>
<line x1="606.1" y1="131.8" x2="687.2" y2="240.8"/>
<line x1="1008.2" y1="351.7" x2="828.2" y2="375.9"/>
<line x1="1008.2" y1="351.7" x2="1222.3" y2="360.0"/>
<line x1="1008.2" y1="351.7" x2="1126.8" y2="293.1"/>
<line x1="1008.2" y1="351.7" x2="924.4" y2="433.0"/>
<line x1="1008.2" y1="351.7" x2="839.5" y2="445.8"/>
<line x1="1008.2" y1="351.7" x2="682.3" y2="321.4"/>
<line x1="1008.2" y1="351.7" x2="811.4" y2="311.2"/>
<line x1="1008.2" y1="351.7" x2="781.4" y2="330.7"/>
<line x1="1008.2" y1="351.7" x2="1115.6" y2="463.9"/>
<line x1="1008.2" y1="351.7" x2="1296.5" y2="277.0"/>
<line x1="1008.2" y1="351.7" x2="1002.0" y2="553.4"/>
<line x1="1008.2" y1="351.7" x2="1076.3" y2="515.9"/>
<line x1="1008.2" y1="351.7" x2="1151.3" y2="460.4"/>
<line x1="1008.2" y1="351.7" x2="841.7" y2="420.4"/>
<line x1="1204.9" y1="313.9" x2="1222.3" y2="360.0"/>
<line x1="1204.9" y1="313.9" x2="1126.8" y2="293.1"/>
<line x1="1204.9" y1="313.9" x2="924.4" y2="433.0"/>
<line x1="1204.9" y1="313.9" x2="839.5" y2="445.8"/>
<line x1="1113.8" y1="421.1" x2="828.2" y2="375.9"/>
<line x1="1113.8" y1="421.1" x2="1222.3" y2="360.0"/>
<line x1="1113.8" y1="421.1" x2="1126.8" y2="293.1"/>
<line x1="1113.8" y1="421.1" x2="924.4" y2="433.0"/>
<line x1="1113.8" y1="421.1" x2="839.5" y2="445.8"/>
<line x1="1113.8" y1="421.1" x2="1115.6" y2="463.9"/>
<line x1="1113.8" y1="421.1" x2="1002.0" y2="553.4"/>
<line x1="1113.8" y1="421.1" x2="1219.0" y2="246.9"/>
<line x1="1113.8" y1="421.1" x2="1076.3" y2="515.9"/>
<line x1="1113.8" y1="421.1" x2="1151.3" y2="460.4"/>
<line x1="1197.4" y1="348.8" x2="1204.9" y2="313.9"/>
<line x1="1197.4" y1="348.8" x2="1222.3" y2="360.0"/>
<line x1="1197.4" y1="348.8" x2="1126.8" y2="293.1"/>
<line x1="1197.4" y1="348.8" x2="924.4" y2="433.0"/>
<line x1="1197.4" y1="348.8" x2="839.5" y2="445.8"/>
<line x1="1197.4" y1="348.8" x2="1115.6" y2="463.9"/>
<line x1="1197.4" y1="348.8" x2="1296.5" y2="277.0"/>
<line x1="1197.4" y1="348.8" x2="1175.7" y2="392.0"/>
<line x1="1108.4" y1="349.5" x2="828.2" y2="375.9"/>
<line x1="1108.4" y1="349.5" x2="1113.8" y2="421.1"/>
<line x1="1108.4" y1="349.5" x2="1222.3" y2="360.0"/>
<line x1="1108.4" y1="349.5" x2="924.4" y2="433.0"/>
<line x1="1108.4" y1="349.5" x2="839.5" y2="445.8"/>
<line x1="1108.4" y1="349.5" x2="1115.6" y2="463.9"/>
<line x1="1108.4" y1="349.5" x2="1175.7" y2="392.0"/>
<line x1="1015.4" y1="375.3" x2="1008.2" y2="351.7"/>
<line x1="1015.4" y1="375.3" x2="1222.3" y2="360.0"/>
<line x1="1015.4" y1="375.3" x2="1126.8" y2="293.1"/>
<line x1="1015.4" y1="375.3" x2="924.4" y2="433.0"/>
<line x1="1015.4" y1="375.3" x2="886.9" y2="380.3"/>
<line x1="1015.4" y1="375.3" x2="839.5" y2="445.8"/>
<line x1="1015.4" y1="375.3" x2="882.6" y2="490.9"/>
<line x1="1015.4" y1="375.3" x2="1115.6" y2="463.9"/>
<line x1="1015.4" y1="375.3" x2="902.2" y2="280.5"/>
<line x1="1015.4" y1="375.3" x2="1019.3" y2="246.1"/>
<line x1="988.0" y1="308.8" x2="1008.2" y2="351.7"/>
<line x1="988.0" y1="308.8" x2="1222.3" y2="360.0"/>
<line x1="988.0" y1="308.8" x2="1126.8" y2="293.1"/>
<line x1="988.0" y1="308.8" x2="711.5" y2="426.7"/>
<line x1="988.0" y1="308.8" x2="924.4" y2="433.0"/>
<line x1="988.0" y1="308.8" x2="682.3" y2="321.4"/>
<line x1="988.0" y1="308.8" x2="811.4" y2="311.2"/>
<line x1="988.0" y1="308.8" x2="781.4" y2="330.7"/>
<line x1="988.0" y1="308.8" x2="1115.6" y2="463.9"/>
<line x1="988.0" y1="308.8" x2="1296.5" y2="277.0"/>
<line x1="988.0" y1="308.8" x2="841.7" y2="420.4"/>
<line x1="1222.3" y1="360.0" x2="1076.3" y2="515.9"/>
<line x1="1060.6" y1="371.0" x2="828.2" y2="375.9"/>
<line x1="1060.6" y1="371.0" x2="1113.8" y2="421.1"/>
<line x1="1060.6" y1="371.0" x2="1222.3" y2="360.0"/>
<line x1="1060.6" y1="371.0" x2="1126.8" y2="293.1"/>
<line x1="1060.6" y1="371.0" x2="924.4" y2="433.0"/>
<line x1="1060.6" y1="371.0" x2="839.5" y2="445.8"/>
<line x1="1060.6" y1="371.0" x2="1115.6" y2="463.9"/>
<line x1="1060.6" y1="371.0" x2="779.9" y2="518.7"/>
<line x1="1060.6" y1="371.0" x2="1219.0" y2="246.9"/>
<line x1="1097.3" y1="317.6" x2="1113.8" y2="421.1"/>
<line x1="1097.3" y1="317.6" x2="1222.3" y2="360.0"/>
<line x1="1097.3" y1="317.6" x2="1126.8" y2="293.1"/>
<line x1="1097.3" y1="317.6" x2="1166.6" y2="265.4"/>
<line x1="1097.3" y1="317.6" x2="924.4" y2="433.0"/>
<line x1="1097.3" y1="317.6" x2="839.5" y2="445.8"/>
<line x1="1097.3" y1="317.6" x2="1115.6" y2="463.9"/>
<line x1="1097.3" y1="317.6" x2="816.3" y2="395.4"/>
<line x1="1097.3" y1="317.6" x2="1219.0" y2="246.9"/>
<line x1="1126.8" y1="293.1" x2="1166.6" y2="265.4"/>
<line x1="1126.8" y1="293.1" x2="839.5" y2="445.8"/>
<line x1="1126.8" y1="293.1" x2="902.2" y2="280.5"/>
<line x1="1166.6" y1="265.4" x2="924.4" y2="433.0"/>
<line x1="1166.6" y1="265.4" x2="839.5" y2="445.8"/>
<line x1="1196.7" y1="413.3" x2="1204.9" y2="313.9"/>
<line x1="1196.7" y1="413.3" x2="1222.3" y2="360.0"/>
<line x1="1196.7" y1="413.3" x2="1126.8" y2="293.1"/>
<line x1="1196.7" y1="413.3" x2="976.9" y2="511.6"/>
<line x1="1196.7" y1="413.3" x2="924.4" y2="433.0"/>
<line x1="1196.7" y1="413.3" x2="839.5" y2="445.8"/>
<line x1="1196.7" y1="413.3" x2="1115.6" y2="463.9"/>
<line x1="1196.7" y1="413.3" x2="1296.5" y2="277.0"/>
<line x1="1196.7" y1="413.3" x2="1175.7" y2="392.0"/>
<line x1="1114.1" y1="379.4" x2="828.2" y2="375.9"/>
<line x1="1114.1" y1="379.4" x2="1113.8" y2="421.1"/>
<line x1="1114.1" y1="379.4" x2="1222.3" y2="360.0"/>
<line x1="1114.1" y1="379.4" x2="924.4" y2="433.0"/>
<line x1="1114.1" y1="379.4" x2="839.5" y2="445.8"/>
<line x1="1114.1" y1="379.4" x2="1115.6" y2="463.9"/>
<line x1="1114.1" y1="379.4" x2="1175.7" y2="392.0"/>
<line x1="1116.3" y1="609.6" x2="828.2" y2="375.9"/>
<line x1="1116.3" y1="609.6" x2="1380.0" y2="915.7"/>
<line x1="1116.3" y1="609.6" x2="951.6" y2="423.7"/>
<line x1="1116.3" y1="609.6" x2="924.4" y2="433.0"/>
<line x1="1116.3" y1="609.6" x2="779.9" y2="518.7"/>
<line x1="976.9" y1="511.6" x2="951.6" y2="423.7"/>
<line x1="976.9" y1="511.6" x2="924.4" y2="433.0"/>
<line x1="976.9" y1="511.6" x2="779.9" y2="518.7"/>
<line x1="711.5" y1="426.7" x2="951.6" y2="423.7"/>
<line x1="711.5" y1="426.7" x2="924.4" y2="433.0"/>
<line x1="711.5" y1="426.7" x2="839.5" y2="445.8"/>
<line x1="711.5" y1="426.7" x2="682.3" y2="321.4"/>
<line x1="711.5" y1="426.7" x2="811.4" y2="311.2"/>
<line x1="711.5" y1="426.7" x2="781.4" y2="330.7"/>
<line x1="711.5" y1="426.7" x2="779.9" y2="518.7"/>
<line x1="711.5" y1="426.7" x2="803.5" y2="563.0"/>
<line x1="754.0" y1="440.3" x2="839.5" y2="445.8"/>
<line x1="754.0" y1="440.3" x2="913.8" y2="380.9"/>
<line x1="718.9" y1="482.5" x2="613.4" y2="523.9"/>
<line x1="718.9" y1="482.5" x2="828.2" y2="375.9"/>
<line x1="718.9" y1="482.5" x2="1015.4" y2="375.3"/>
<line x1="718.9" y1="482.5" x2="951.6" y2="423.7"/>
<line x1="718.9" y1="482.5" x2="976.9" y2="511.6"/>
<line x1="718.9" y1="482.5" x2="754.0" y2="440.3"/>
<line x1="718.9" y1="482.5" x2="924.4" y2="433.0"/>
<line x1="718.9" y1="482.5" x2="321.9" y2="628.8"/>
<line x1="718.9" y1="482.5" x2="839.5" y2="445.8"/>
<line x1="718.9" y1="482.5" x2="496.8" y2="566.2"/>
<line x1="718.9" y1="482.5" x2="781.4" y2="330.7"/>
<line x1="718.9" y1="482.5" x2="779.9" y2="518.7"/>
<line x1="718.9" y1="482.5" x2="803.5" y2="563.0"/>
<line x1="924.4" y1="433.0" x2="613.4" y2="523.9"/>
<line x1="924.4" y1="433.0" x2="976.9" y2="511.6"/>
<line x1="924.4" y1="433.0" x2="754.0" y2="440.3"/>
<line x1="924.4" y1="433.0" x2="718.9" y2="482.5"/>
<line x1="924.4" y1="433.0" x2="1380.0" y2="559.7"/>
<line x1="924.4" y1="433.0" x2="1380.0" y2="441.3"/>
<line x1="924.4" y1="433.0" x2="886.9" y2="380.3"/>
<line x1="924.4" y1="433.0" x2="882.6" y2="490.9"/>
<line x1="924.4" y1="433.0" x2="496.8" y2="566.2"/>
<line x1="924.4" y1="433.0" x2="779.9" y2="518.7"/>
<line x1="924.4" y1="433.0" x2="702.7" y2="684.4"/>
<line x1="924.4" y1="433.0" x2="1177.1" y2="476.2"/>
<line x1="924.4" y1="433.0" x2="1380.0" y2="315.2"/>
<line x1="321.9" y1="628.8" x2="496.8" y2="566.2"/>
<line x1="886.9" y1="380.3" x2="828.2" y2="375.9"/>
<line x1="886.9" y1="380.3" x2="951.6" y2="423.7"/>
<line x1="886.9" y1="380.3" x2="924.4" y2="433.0"/>
<line x1="886.9" y1="380.3" x2="839.5" y2="445.8"/>
<line x1="886.9" y1="380.3" x2="496.8" y2="566.2"/>
<line x1="886.9" y1="380.3" x2="682.3" y2="321.4"/>
<line x1="886.9" y1="380.3" x2="641.1" y2="295.9"/>
<line x1="886.9" y1="380.3" x2="811.4" y2="311.2"/>
<line x1="886.9" y1="380.3" x2="781.4" y2="330.7"/>
<line x1="886.9" y1="380.3" x2="1115.6" y2="463.9"/>
<line x1="886.9" y1="380.3" x2="913.8" y2="380.9"/>
<line x1="886.9" y1="380.3" x2="779.9" y2="518.7"/>
<line x1="886.9" y1="380.3" x2="766.3" y2="20.0"/>
<line x1="886.9" y1="380.3" x2="1019.3" y2="246.1"/>
<line x1="886.9" y1="380.3" x2="940.5" y2="155.9"/>
<line x1="886.9" y1="380.3" x2="798.8" y2="467.8"/>
<line x1="886.9" y1="380.3" x2="1049.8" y2="596.4"/>
<line x1="886.9" y1="380.3" x2="1076.3" y2="515.9"/>
<line x1="99.7" y1="733.9" x2="496.8" y2="566.2"/>
<line x1="839.5" y1="445.8" x2="951.6" y2="423.7"/>
<line x1="839.5" y1="445.8" x2="924.4" y2="433.0"/>
<line x1="882.6" y1="490.9" x2="828.2" y2="375.9"/>
<line x1="882.6" y1="490.9" x2="951.6" y2="423.7"/>
<line x1="882.6" y1="490.9" x2="924.4" y2="433.0"/>
<line x1="882.6" y1="490.9" x2="886.9" y2="380.3"/>
<line x1="882.6" y1="490.9" x2="839.5" y2="445.8"/>
<line x1="882.6" y1="490.9" x2="682.3" y2="321.4"/>
<line x1="882.6" y1="490.9" x2="811.4" y2="311.2"/>
<line x1="882.6" y1="490.9" x2="781.4" y2="330.7"/>
<line x1="882.6" y1="490.9" x2="779.9" y2="518.7"/>
<line x1="882.6" y1="490.9" x2="798.8" y2="467.8"/>
<line x1="751.5" y1="306.7" x2="924.4" y2="433.0"/>
<line x1="751.5" y1="306.7" x2="886.9" y2="380.3"/>
<line x1="751.5" y1="306.7" x2="839.5" y2="445.8"/>
<line x1="751.5" y1="306.7" x2="853.2" y2="575.6"/>
<line x1="751.5" y1="306.7" x2="682.3" y2="321.4"/>
<line x1="751.5" y1="306.7" x2="811.4" y2="311.2"/>
<line x1="751.5" y1="306.7" x2="653.7" y2="218.1"/>
<line x1="775.1" y1="272.7" x2="924.4" y2="433.0"/>
<line x1="775.1" y1="272.7" x2="886.9" y2="380.3"/>
<line x1="775.1" y1="272.7" x2="839.5" y2="445.8"/>
<line x1="775.1" y1="272.7" x2="853.2" y2="575.6"/>
<line x1="775.1" y1="272.7" x2="682.3" y2="321.4"/>
<line x1="775.1" y1="272.7" x2="811.4" y2="311.2"/>
<line x1="775.1" y1="272.7" x2="653.7" y2="218.1"/>
<line x1="853.2" y1="575.6" x2="924.4" y2="433.0"/>
<line x1="853.2" y1="575.6" x2="839.5" y2="445.8"/>
<line x1="853.2" y1="575.6" x2="798.8" y2="467.8"/>
<line x1="819.1" y1="231.0" x2="951.6" y2="423.7"/>
<line x1="819.1" y1="231.0" x2="924.4" y2="433.0"/>
<line x1="819.1" y1="231.0" x2="886.9" y2="380.3"/>
<line x1="819.1" y1="231.0" x2="839.5" y2="445.8"/>
<line x1="819.1" y1="231.0" x2="682.3" y2="321.4"/>
<line x1="819.1" y1="231.0" x2="781.4" y2="330.7"/>
<line x1="819.1" y1="231.0" x2="913.8" y2="380.9"/>
<line x1="626.2" y1="400.9" x2="828.2" y2="375.9"/>
<line x1="626.2" y1="400.9" x2="924.4" y2="433.0"/>
<line x1="626.2" y1="400.9" x2="839.5" y2="445.8"/>
<line x1="626.2" y1="400.9" x2="505.5" y2="498.1"/>
<line x1="626.2" y1="400.9" x2="682.3" y2="321.4"/>
<line x1="626.2" y1="400.9" x2="779.9" y2="518.7"/>
<line x1="501.1" y1="281.8" x2="924.4" y2="433.0"/>
<line x1="501.1" y1="281.8" x2="505.5" y2="498.1"/>
<line x1="505.5" y1="498.1" x2="613.4" y2="523.9"/>
<line x1="505.5" y1="498.1" x2="924.4" y2="433.0"/>
<line x1="505.5" y1="498.1" x2="702.7" y2="684.4"/>
<line x1="414.6" y1="456.7" x2="505.5" y2="498.1"/>
<line x1="414.6" y1="456.7" x2="682.3" y2="321.4"/>
<line x1="414.6" y1="456.7" x2="779.9" y2="518.7"/>
<line x1="548.3" y1="427.5" x2="924.4" y2="433.0"/>
<line x1="548.3" y1="427.5" x2="505.5" y2="498.1"/>
<line x1="548.3" y1="427.5" x2="682.3" y2="321.4"/>
<line x1="548.3" y1="427.5" x2="779.9" y2="518.7"/>
<line x1="503.5" y1="470.9" x2="839.5" y2="445.8"/>
<line x1="503.5" y1="470.9" x2="505.5" y2="498.1"/>
<line x1="503.5" y1="470.9" x2="682.3" y2="321.4"/>
<line x1="503.5" y1="470.9" x2="779.9" y2="518.7"/>
<line x1="601.7" y1="761.4" x2="839.5" y2="445.8"/>
<line x1="601.7" y1="761.4" x2="505.5" y2="498.1"/>
<line x1="601.7" y1="761.4" x2="905.6" y2="857.5"/>
<line x1="291.1" y1="319.3" x2="505.5" y2="498.1"/>
<line x1="291.1" y1="319.3" x2="682.3" y2="321.4"/>
<line x1="594.8" y1="455.3" x2="924.4" y2="433.0"/>
<line x1="594.8" y1="455.3" x2="505.5" y2="498.1"/>
<line x1="594.8" y1="455.3" x2="682.3" y2="321.4"/>
<line x1="594.8" y1="455.3" x2="779.9" y2="518.7"/>
<line x1="594.8" y1="455.3" x2="798.8" y2="467.8"/>
<line x1="387.8" y1="393.4" x2="839.5" y2="445.8"/>
<line x1="387.8" y1="393.4" x2="505.5" y2="498.1"/>
<line x1="71.5" y1="642.3" x2="505.5" y2="498.1"/>
<line x1="656.3" y1="412.8" x2="924.4" y2="433.0"/>
<line x1="656.3" y1="412.8" x2="839.5" y2="445.8"/>
<line x1="656.3" y1="412.8" x2="505.5" y2="498.1"/>
<line x1="656.3" y1="412.8" x2="594.8" y2="455.3"/>
<line x1="656.3" y1="412.8" x2="682.3" y2="321.4"/>
<line x1="656.3" y1="412.8" x2="913.8" y2="380.9"/>
<line x1="656.3" y1="412.8" x2="798.8" y2="467.8"/>
<line x1="467.1" y1="320.9" x2="924.4" y2="433.0"/>
<line x1="467.1" y1="320.9" x2="505.5" y2="498.1"/>
<line x1="619.0" y1="321.7" x2="839.5" y2="445.8"/>
<line x1="619.0" y1="321.7" x2="501.1" y2="281.8"/>
<line x1="619.0" y1="321.7" x2="505.5" y2="498.1"/>
<line x1="619.0" y1="321.7" x2="682.3" y2="321.4"/>
<line x1="619.0" y1="321.7" x2="811.4" y2="311.2"/>
<line x1="619.0" y1="321.7" x2="781.4" y2="330.7"/>
<line x1="619.0" y1="321.7" x2="798.8" y2="467.8"/>
<line x1="619.0" y1="321.7" x2="703.6" y2="155.8"/>
<line x1="619.0" y1="321.7" x2="841.7" y2="420.4"/>
<line x1="480.4" y1="383.7" x2="711.5" y2="426.7"/>
<line x1="480.4" y1="383.7" x2="505.5" y2="498.1"/>
<line x1="480.4" y1="383.7" x2="682.3" y2="321.4"/>
<line x1="480.4" y1="383.7" x2="641.1" y2="295.9"/>
<line x1="480.4" y1="383.7" x2="779.9" y2="518.7"/>
<line x1="554.7" y1="334.3" x2="924.4" y2="433.0"/>
<line x1="554.7" y1="334.3" x2="505.5" y2="498.1"/>
<line x1="554.7" y1="334.3" x2="682.3" y2="321.4"/>
<line x1="554.7" y1="334.3" x2="779.9" y2="518.7"/>
<line x1="554.7" y1="334.3" x2="528.0" y2="163.0"/>
<line x1="570.9" y1="236.4" x2="711.5" y2="426.7"/>
<line x1="570.9" y1="236.4" x2="839.5" y2="445.8"/>
<line x1="570.9" y1="236.4" x2="682.3" y2="321.4"/>
<line x1="570.9" y1="236.4" x2="781.4" y2="330.7"/>
<line x1="682.3" y1="321.4" x2="779.9" y2="518.7"/>
<line x1="641.1" y1="295.9" x2="839.5" y2="445.8"/>
<line x1="641.1" y1="295.9" x2="913.8" y2="380.9"/>
<line x1="811.4" y1="311.2" x2="951.6" y2="423.7"/>
<line x1="811.4" y1="311.2" x2="924.4" y2="433.0"/>
<line x1="811.4" y1="311.2" x2="641.1" y2="295.9"/>
<line x1="811.4" y1="311.2" x2="781.4" y2="330.7"/>
<line x1="811.4" y1="311.2" x2="913.8" y2="380.9"/>
<line x1="811.4" y1="311.2" x2="798.8" y2="467.8"/>
<line x1="781.4" y1="330.7" x2="839.5" y2="445.8"/>
<line x1="830.0" y1="257.8" x2="828.2" y2="375.9"/>
<line x1="830.0" y1="257.8" x2="951.6" y2="423.7"/>
<line x1="830.0" y1="257.8" x2="924.4" y2="433.0"/>
<line x1="830.0" y1="257.8" x2="839.5" y2="445.8"/>
<line x1="830.0" y1="257.8" x2="779.9" y2="518.7"/>
<line x1="830.0" y1="257.8" x2="915.3" y2="248.3"/>
<line x1="830.0" y1="257.8" x2="1017.0" y2="20.0"/>
<line x1="830.0" y1="257.8" x2="570.9" y2="391.7"/>
<line x1="830.0" y1="257.8" x2="703.6" y2="155.8"/>
<line x1="830.0" y1="257.8" x2="958.9" y2="250.0"/>
<line x1="687.2" y1="240.8" x2="711.5" y2="426.7"/>
<line x1="687.2" y1="240.8" x2="924.4" y2="433.0"/>
<line x1="687.2" y1="240.8" x2="839.5" y2="445.8"/>
<line x1="687.2" y1="240.8" x2="682.3" y2="321.4"/>
<line x1="687.2" y1="240.8" x2="781.4" y2="330.7"/>
<line x1="687.2" y1="240.8" x2="798.8" y2="467.8"/>
<line x1="653.7" y1="218.1" x2="839.5" y2="445.8"/>
<line x1="653.7" y1="218.1" x2="811.4" y2="311.2"/>
<line x1="653.7" y1="218.1" x2="779.9" y2="518.7"/>
<line x1="641.5" y1="261.7" x2="839.5" y2="445.8"/>
<line x1="641.5" y1="261.7" x2="682.3" y2="321.4"/>
<line x1="641.5" y1="261.7" x2="811.4" y2="311.2"/>
<line x1="641.5" y1="261.7" x2="781.4" y2="330.7"/>
<line x1="641.5" y1="261.7" x2="528.0" y2="163.0"/>
<line x1="641.5" y1="261.7" x2="798.8" y2="467.8"/>
<line x1="1120.5" y1="568.7" x2="951.6" y2="423.7"/>
<line x1="1120.5" y1="568.7" x2="924.4" y2="433.0"/>
<line x1="1120.5" y1="568.7" x2="1016.2" y2="761.8"/>
<line x1="1120.5" y1="568.7" x2="798.8" y2="467.8"/>
<line x1="1115.6" y1="463.9" x2="951.6" y2="423.7"/>
<line x1="1115.6" y1="463.9" x2="924.4" y2="433.0"/>
<line x1="1115.6" y1="463.9" x2="913.8" y2="380.9"/>
<line x1="1115.6" y1="463.9" x2="1110.1" y2="714.9"/>
<line x1="1115.6" y1="463.9" x2="1372.3" y2="629.3"/>
<line x1="1053.5" y1="265.4" x2="886.9" y2="380.3"/>
<line x1="1053.5" y1="265.4" x2="839.5" y2="445.8"/>
<line x1="779.9" y1="518.7" x2="754.0" y2="440.3"/>
<line x1="586.4" y1="615.7" x2="478.4" y2="896.6"/>
<line x1="586.4" y1="615.7" x2="924.4" y2="433.0"/>
<line x1="586.4" y1="615.7" x2="839.5" y2="445.8"/>
<line x1="586.4" y1="615.7" x2="779.9" y2="518.7"/>
<line x1="586.4" y1="615.7" x2="570.9" y2="391.7"/>
<line x1="428.3" y1="590.2" x2="711.5" y2="426.7"/>
<line x1="428.3" y1="590.2" x2="779.9" y2="518.7"/>
<line x1="684.8" y1="512.9" x2="711.5" y2="426.7"/>
<line x1="684.8" y1="512.9" x2="718.9" y2="482.5"/>
<line x1="684.8" y1="512.9" x2="924.4" y2="433.0"/>
<line x1="684.8" y1="512.9" x2="839.5" y2="445.8"/>
<line x1="684.8" y1="512.9" x2="779.9" y2="518.7"/>
<line x1="716.8" y1="570.8" x2="718.9" y2="482.5"/>
<line x1="716.8" y1="570.8" x2="924.4" y2="433.0"/>
<line x1="716.8" y1="570.8" x2="839.5" y2="445.8"/>
<line x1="716.8" y1="570.8" x2="779.9" y2="518.7"/>
<line x1="915.3" y1="248.3" x2="839.5" y2="445.8"/>
<line x1="915.3" y1="248.3" x2="913.8" y2="380.9"/>
<line x1="799.1" y1="524.2" x2="924.4" y2="433.0"/>
<line x1="799.1" y1="524.2" x2="886.9" y2="380.3"/>
<line x1="799.1" y1="524.2" x2="839.5" y2="445.8"/>
<line x1="799.1" y1="524.2" x2="882.6" y2="490.9"/>
<line x1="799.1" y1="524.2" x2="779.9" y2="518.7"/>
<line x1="799.1" y1="524.2" x2="716.8" y2="570.8"/>
<line x1="799.1" y1="524.2" x2="674.7" y2="542.6"/>
<line x1="776.2" y1="565.4" x2="828.2" y2="375.9"/>
<line x1="776.2" y1="565.4" x2="976.9" y2="511.6"/>
<line x1="776.2" y1="565.4" x2="711.5" y2="426.7"/>
<line x1="776.2" y1="565.4" x2="924.4" y2="433.0"/>
<line x1="776.2" y1="565.4" x2="886.9" y2="380.3"/>
<line x1="776.2" y1="565.4" x2="839.5" y2="445.8"/>
<line x1="776.2" y1="565.4" x2="882.6" y2="490.9"/>
<line x1="776.2" y1="565.4" x2="697.3" y2="739.9"/>
<line x1="776.2" y1="565.4" x2="684.8" y2="512.9"/>
<line x1="776.2" y1="565.4" x2="674.7" y2="542.6"/>
<line x1="776.2" y1="565.4" x2="803.5" y2="563.0"/>
<line x1="776.2" y1="565.4" x2="1076.3" y2="515.9"/>
<line x1="491.4" y1="796.7" x2="776.2" y2="565.4"/>
<line x1="491.4" y1="796.7" x2="674.7" y2="542.6"/>
<line x1="674.7" y1="542.6" x2="828.2" y2="375.9"/>
<line x1="674.7" y1="542.6" x2="951.6" y2="423.7"/>
<line x1="674.7" y1="542.6" x2="711.5" y2="426.7"/>
<line x1="674.7" y1="542.6" x2="924.4" y2="433.0"/>
<line x1="674.7" y1="542.6" x2="886.9" y2="380.3"/>
<line x1="674.7" y1="542.6" x2="839.5" y2="445.8"/>
<line x1="674.7" y1="542.6" x2="779.9" y2="518.7"/>
<line x1="674.7" y1="542.6" x2="798.8" y2="467.8"/>
<line x1="686.5" y1="371.0" x2="924.4" y2="433.0"/>
<line x1="686.5" y1="371.0" x2="886.9" y2="380.3"/>
<line x1="686.5" y1="371.0" x2="839.5" y2="445.8"/>
<line x1="686.5" y1="371.0" x2="674.7" y2="542.6"/>
<line x1="816.3" y1="395.4" x2="828.2" y2="375.9"/>
<line x1="816.3" y1="395.4" x2="951.6" y2="423.7"/>
<line x1="816.3" y1="395.4" x2="711.5" y2="426.7"/>
<line x1="816.3" y1="395.4" x2="718.9" y2="482.5"/>
<line x1="816.3" y1="395.4" x2="924.4" y2="433.0"/>
<line x1="816.3" y1="395.4" x2="886.9" y2="380.3"/>
<line x1="816.3" y1="395.4" x2="839.5" y2="445.8"/>
<line x1="816.3" y1="395.4" x2="882.6" y2="490.9"/>
<line x1="816.3" y1="395.4" x2="779.9" y2="518.7"/>
<line x1="816.3" y1="395.4" x2="674.7" y2="542.6"/>
<line x1="310.1" y1="819.0" x2="674.7" y2="542.6"/>
<line x1="878.5" y1="426.0" x2="828.2" y2="375.9"/>
<line x1="878.5" y1="426.0" x2="924.4" y2="433.0"/>
<line x1="878.5" y1="426.0" x2="839.5" y2="445.8"/>
<line x1="878.5" y1="426.0" x2="779.9" y2="518.7"/>
<line x1="878.5" y1="426.0" x2="799.1" y2="524.2"/>
<line x1="878.5" y1="426.0" x2="776.2" y2="565.4"/>
<line x1="878.5" y1="426.0" x2="803.5" y2="563.0"/>
<line x1="878.5" y1="426.0" x2="958.9" y2="250.0"/>
<line x1="857.3" y1="223.6" x2="951.6" y2="423.7"/>
<line x1="857.3" y1="223.6" x2="924.4" y2="433.0"/>
<line x1="857.3" y1="223.6" x2="886.9" y2="380.3"/>
<line x1="857.3" y1="223.6" x2="839.5" y2="445.8"/>
<line x1="857.3" y1="223.6" x2="682.3" y2="321.4"/>
<line x1="857.3" y1="223.6" x2="811.4" y2="311.2"/>
<line x1="857.3" y1="223.6" x2="781.4" y2="330.7"/>
<line x1="704.6" y1="629.9" x2="711.5" y2="426.7"/>
<line x1="704.6" y1="629.9" x2="924.4" y2="433.0"/>
<line x1="704.6" y1="629.9" x2="839.5" y2="445.8"/>
<line x1="704.6" y1="629.9" x2="779.9" y2="518.7"/>
<line x1="704.6" y1="629.9" x2="871.2" y2="710.2"/>
<line x1="871.2" y1="710.2" x2="951.6" y2="423.7"/>
<line x1="871.2" y1="710.2" x2="924.4" y2="433.0"/>
<line x1="871.2" y1="710.2" x2="779.9" y2="518.7"/>
<line x1="1002.0" y1="553.4" x2="951.6" y2="423.7"/>
<line x1="1002.0" y1="553.4" x2="924.4" y2="433.0"/>
<line x1="1002.0" y1="553.4" x2="798.8" y2="467.8"/>
<line x1="1002.0" y1="553.4" x2="916.9" y2="661.9"/>
<line x1="1016.2" y1="761.8" x2="924.4" y2="433.0"/>
<line x1="1016.2" y1="761.8" x2="839.5" y2="445.8"/>
<line x1="1052.7" y1="739.3" x2="951.6" y2="423.7"/>
<line x1="1052.7" y1="739.3" x2="924.4" y2="433.0"/>
<line x1="604.5" y1="1380.0" x2="758.4" y2="1380.0"/>
<line x1="604.5" y1="1380.0" x2="657.0" y2="1380.0"/>
<line x1="604.5" y1="1380.0" x2="708.3" y2="1380.0"/>
<line x1="604.5" y1="1380.0" x2="820.2" y2="1380.0"/>
<line x1="758.4" y1="1380.0" x2="820.2" y2="1380.0"/>
<line x1="758.4" y1="1380.0" x2="745.6" y2="1150.1"/>
<line x1="657.0" y1="1380.0" x2="745.6" y2="1150.1"/>
<line x1="708.3" y1="1380.0" x2="745.6" y2="1150.1"/>
<line x1="570.9" y1="391.7" x2="779.9" y2="518.7"/>
<line x1="803.5" y1="563.0" x2="754.0" y2="440.3"/>
<line x1="803.5" y1="563.0" x2="924.4" y2="433.0"/>
<line x1="803.5" y1="563.0" x2="839.5" y2="445.8"/>
<line x1="803.5" y1="563.0" x2="779.9" y2="518.7"/>
<line x1="902.2" y1="280.5" x2="828.2" y2="375.9"/>
<line x1="902.2" y1="280.5" x2="951.6" y2="423.7"/>
<line x1="902.2" y1="280.5" x2="924.4" y2="433.0"/>
<line x1="902.2" y1="280.5" x2="886.9" y2="380.3"/>
<line x1="902.2" y1="280.5" x2="839.5" y2="445.8"/>
<line x1="902.2" y1="280.5" x2="819.1" y2="231.0"/>
<line x1="902.2" y1="280.5" x2="682.3" y2="321.4"/>
<line x1="902.2" y1="280.5" x2="811.4" y2="311.2"/>
<line x1="902.2" y1="280.5" x2="781.4" y2="330.7"/>
<line x1="902.2" y1="280.5" x2="913.8" y2="380.9"/>
<line x1="1019.3" y1="246.1" x2="828.2" y2="375.9"/>
<line x1="1019.3" y1="246.1" x2="951.6" y2="423.7"/>
<line x1="1019.3" y1="246.1" x2="924.4" y2="433.0"/>
<line x1="940.5" y1="155.9" x2="828.2" y2="375.9"/>
<line x1="940.5" y1="155.9" x2="951.6" y2="423.7"/>
<line x1="940.5" y1="155.9" x2="924.4" y2="433.0"/>
<line x1="1110.1" y1="714.9" x2="839.5" y2="445.8"/>
<line x1="832.7" y1="818.7" x2="839.5" y2="445.8"/>
<line x1="832.7" y1="818.7" x2="779.9" y2="518.7"/>
<line x1="832.7" y1="818.7" x2="916.9" y2="661.9"/>
<line x1="995.8" y1="20.0" x2="1076.6" y2="63.4"/>
<line x1="995.8" y1="20.0" x2="1110.4" y2="60.3"/>
<line x1="702.7" y1="684.4" x2="613.4" y2="523.9"/>
<line x1="702.7" y1="684.4" x2="839.5" y2="445.8"/>
<line x1="702.7" y1="684.4" x2="745.6" y2="1150.1"/>
<line x1="740.3" y1="369.7" x2="951.6" y2="423.7"/>
<line x1="740.3" y1="369.7" x2="924.4" y2="433.0"/>
<line x1="740.3" y1="369.7" x2="839.5" y2="445.8"/>
<line x1="740.3" y1="369.7" x2="781.4" y2="330.7"/>
<line x1="740.3" y1="369.7" x2="798.8" y2="467.8"/>
<line x1="798.8" y1="467.8" x2="613.4" y2="523.9"/>
<line x1="798.8" y1="467.8" x2="924.4" y2="433.0"/>
<line x1="798.8" y1="467.8" x2="839.5" y2="445.8"/>
<line x1="798.8" y1="467.8" x2="702.7" y2="684.4"/>
<line x1="1049.8" y1="596.4" x2="924.4" y2="433.0"/>
<line x1="1049.8" y1="596.4" x2="803.5" y2="563.0"/>
<line x1="916.9" y1="661.9" x2="839.5" y2="445.8"/>
<line x1="916.9" y1="661.9" x2="779.9" y2="518.7"/>
<line x1="1368.6" y1="250.5" x2="886.9" y2="380.3"/>
<line x1="1368.6" y1="250.5" x2="1380.0" y2="43.1"/>
<line x1="736.9" y1="503.1" x2="951.6" y2="423.7"/>
<line x1="736.9" y1="503.1" x2="711.5" y2="426.7"/>
<line x1="736.9" y1="503.1" x2="924.4" y2="433.0"/>
<line x1="736.9" y1="503.1" x2="839.5" y2="445.8"/>
<line x1="736.9" y1="503.1" x2="779.9" y2="518.7"/>
<line x1="736.9" y1="503.1" x2="803.5" y2="563.0"/>
<line x1="1177.1" y1="476.2" x2="839.5" y2="445.8"/>
<line x1="1177.1" y1="476.2" x2="913.8" y2="380.9"/>
<line x1="636.3" y1="641.9" x2="839.5" y2="445.8"/>
<line x1="1076.3" y1="515.9" x2="839.5" y2="445.8"/>
<line x1="1076.3" y1="515.9" x2="1372.3" y2="629.3"/>
<line x1="1151.3" y1="460.4" x2="924.4" y2="433.0"/>
<line x1="1151.3" y1="460.4" x2="886.9" y2="380.3"/>
<line x1="1151.3" y1="460.4" x2="882.6" y2="490.9"/>
<line x1="1233.4" y1="697.7" x2="1115.6" y2="463.9"/>
<line x1="1233.4" y1="697.7" x2="1076.3" y2="515.9"/>
<line x1="1034.9" y1="486.9" x2="886.9" y2="380.3"/>
<line x1="1034.9" y1="486.9" x2="779.9" y2="518.7"/>
<line x1="1034.9" y1="486.9" x2="1002.0" y2="553.4"/>
<line x1="1034.9" y1="486.9" x2="902.2" y2="280.5"/>
<line x1="1034.9" y1="486.9" x2="916.9" y2="661.9"/>
<line x1="863.7" y1="757.9" x2="753.5" y2="780.1"/>
<line x1="863.7" y1="757.9" x2="853.8" y2="1187.3"/>
<line x1="863.7" y1="757.9" x2="861.2" y2="608.0"/>
<line x1="863.7" y1="757.9" x2="799.6" y2="613.3"/>
<line x1="863.7" y1="757.9" x2="781.1" y2="812.9"/>
<line x1="863.7" y1="757.9" x2="757.0" y2="544.5"/>
<line x1="863.7" y1="757.9" x2="859.2" y2="647.0"/>
<line x1="863.7" y1="757.9" x2="830.1" y2="899.5"/>
<line x1="863.7" y1="757.9" x2="943.7" y2="713.2"/>
<line x1="863.7" y1="757.9" x2="1001.0" y2="702.5"/>
<line x1="863.7" y1="757.9" x2="954.8" y2="858.4"/>
<line x1="863.7" y1="757.9" x2="803.8" y2="655.2"/>
<line x1="863.7" y1="757.9" x2="848.2" y2="690.7"/>
<line x1="863.7" y1="757.9" x2="986.9" y2="759.4"/>
<line x1="863.7" y1="757.9" x2="1072.4" y2="717.1"/>
<line x1="863.7" y1="757.9" x2="883.4" y2="539.4"/>
<line x1="863.7" y1="757.9" x2="663.8" y2="737.0"/>
<line x1="863.7" y1="757.9" x2="902.2" y2="642.6"/>
<line x1="863.7" y1="757.9" x2="933.3" y2="596.6"/>
<line x1="863.7" y1="757.9" x2="779.6" y2="887.0"/>
<line x1="863.7" y1="757.9" x2="970.0" y2="682.7"/>
<line x1="863.7" y1="757.9" x2="769.6" y2="695.1"/>
<line x1="863.7" y1="757.9" x2="914.0" y2="680.5"/>
<line x1="753.5" y1="780.1" x2="839.5" y2="445.8"/>
<line x1="753.5" y1="780.1" x2="779.9" y2="518.7"/>
<line x1="753.5" y1="780.1" x2="916.9" y2="661.9"/>
<line x1="753.5" y1="780.1" x2="863.7" y2="757.9"/>
<line x1="861.2" y1="608.0" x2="951.6" y2="423.7"/>
<line x1="861.2" y1="608.0" x2="924.4" y2="433.0"/>
<line x1="861.2" y1="608.0" x2="886.9" y2="380.3"/>
<line x1="861.2" y1="608.0" x2="839.5" y2="445.8"/>
<line x1="861.2" y1="608.0" x2="779.9" y2="518.7"/>
<line x1="861.2" y1="608.0" x2="798.8" y2="467.8"/>
<line x1="861.2" y1="608.0" x2="916.9" y2="661.9"/>
<line x1="861.2" y1="608.0" x2="863.7" y2="757.9"/>
<line x1="799.6" y1="613.3" x2="951.6" y2="423.7"/>
<line x1="799.6" y1="613.3" x2="711.5" y2="426.7"/>
<line x1="799.6" y1="613.3" x2="924.4" y2="433.0"/>
<line x1="799.6" y1="613.3" x2="839.5" y2="445.8"/>
<line x1="799.6" y1="613.3" x2="798.8" y2="467.8"/>
<line x1="799.6" y1="613.3" x2="916.9" y2="661.9"/>
<line x1="799.6" y1="613.3" x2="736.9" y2="503.1"/>
<line x1="799.6" y1="613.3" x2="863.7" y2="757.9"/>
<line x1="781.1" y1="812.9" x2="828.2" y2="375.9"/>
<line x1="781.1" y1="812.9" x2="916.9" y2="661.9"/>
<line x1="781.1" y1="812.9" x2="863.7" y2="757.9"/>
<line x1="757.0" y1="544.5" x2="828.2" y2="375.9"/>
<line x1="757.0" y1="544.5" x2="951.6" y2="423.7"/>
<line x1="757.0" y1="544.5" x2="924.4" y2="433.0"/>
<line x1="757.0" y1="544.5" x2="781.4" y2="330.7"/>
<line x1="757.0" y1="544.5" x2="570.9" y2="391.7"/>
<line x1="757.0" y1="544.5" x2="740.3" y2="369.7"/>
<line x1="757.0" y1="544.5" x2="798.8" y2="467.8"/>
<line x1="757.0" y1="544.5" x2="916.9" y2="661.9"/>
<line x1="757.0" y1="544.5" x2="863.7" y2="757.9"/>
<line x1="859.2" y1="647.0" x2="951.6" y2="423.7"/>
<line x1="859.2" y1="647.0" x2="976.9" y2="511.6"/>
<line x1="859.2" y1="647.0" x2="718.9" y2="482.5"/>
<line x1="859.2" y1="647.0" x2="924.4" y2="433.0"/>
<line x1="859.2" y1="647.0" x2="779.9" y2="518.7"/>
<line x1="859.2" y1="647.0" x2="916.9" y2="661.9"/>
<line x1="859.2" y1="647.0" x2="863.7" y2="757.9"/>
<line x1="830.1" y1="899.5" x2="839.5" y2="445.8"/>
<line x1="830.1" y1="899.5" x2="916.9" y2="661.9"/>
<line x1="830.1" y1="899.5" x2="863.7" y2="757.9"/>
<line x1="830.1" y1="899.5" x2="745.6" y2="1150.1"/>
<line x1="943.7" y1="713.2" x2="951.6" y2="423.7"/>
<line x1="943.7" y1="713.2" x2="924.4" y2="433.0"/>
<line x1="943.7" y1="713.2" x2="798.8" y2="467.8"/>
<line x1="943.7" y1="713.2" x2="916.9" y2="661.9"/>
<line x1="943.7" y1="713.2" x2="863.7" y2="757.9"/>
<line x1="1001.0" y1="702.5" x2="951.6" y2="423.7"/>
<line x1="1001.0" y1="702.5" x2="924.4" y2="433.0"/>
<line x1="1001.0" y1="702.5" x2="882.6" y2="490.9"/>
<line x1="1001.0" y1="702.5" x2="916.9" y2="661.9"/>
<line x1="1001.0" y1="702.5" x2="863.7" y2="757.9"/>
<line x1="954.8" y1="858.4" x2="839.5" y2="445.8"/>
<line x1="954.8" y1="858.4" x2="916.9" y2="661.9"/>
<line x1="803.8" y1="655.2" x2="951.6" y2="423.7"/>
<line x1="803.8" y1="655.2" x2="718.9" y2="482.5"/>
<line x1="803.8" y1="655.2" x2="924.4" y2="433.0"/>
<line x1="803.8" y1="655.2" x2="798.8" y2="467.8"/>
<line x1="803.8" y1="655.2" x2="916.9" y2="661.9"/>
<line x1="803.8" y1="655.2" x2="863.7" y2="757.9"/>
<line x1="848.2" y1="690.7" x2="951.6" y2="423.7"/>
<line x1="848.2" y1="690.7" x2="924.4" y2="433.0"/>
<line x1="848.2" y1="690.7" x2="798.8" y2="467.8"/>
<line x1="848.2" y1="690.7" x2="916.9" y2="661.9"/>
<line x1="848.2" y1="690.7" x2="863.7" y2="757.9"/>
<line x1="986.9" y1="759.4" x2="951.6" y2="423.7"/>
<line x1="986.9" y1="759.4" x2="924.4" y2="433.0"/>
<line x1="986.9" y1="759.4" x2="916.9" y2="661.9"/>
<line x1="986.9" y1="759.4" x2="863.7" y2="757.9"/>
<line x1="1072.4" y1="717.1" x2="951.6" y2="423.7"/>
<line x1="1072.4" y1="717.1" x2="924.4" y2="433.0"/>
<line x1="1072.4" y1="717.1" x2="916.9" y2="661.9"/>
<line x1="883.4" y1="539.4" x2="951.6" y2="423.7"/>
<line x1="883.4" y1="539.4" x2="976.9" y2="511.6"/>
<line x1="883.4" y1="539.4" x2="718.9" y2="482.5"/>
<line x1="883.4" y1="539.4" x2="924.4" y2="433.0"/>
<line x1="883.4" y1="539.4" x2="886.9" y2="380.3"/>
<line x1="883.4" y1="539.4" x2="839.5" y2="445.8"/>
<line x1="883.4" y1="539.4" x2="779.9" y2="518.7"/>
<line x1="883.4" y1="539.4" x2="915.3" y2="248.3"/>
<line x1="883.4" y1="539.4" x2="799.1" y2="524.2"/>
<line x1="883.4" y1="539.4" x2="816.3" y2="395.4"/>
<line x1="883.4" y1="539.4" x2="798.8" y2="467.8"/>
<line x1="883.4" y1="539.4" x2="1049.8" y2="596.4"/>
<line x1="883.4" y1="539.4" x2="916.9" y2="661.9"/>
<line x1="883.4" y1="539.4" x2="863.7" y2="757.9"/>
<line x1="883.4" y1="539.4" x2="894.2" y2="474.1"/>
<line x1="663.8" y1="737.0" x2="839.5" y2="445.8"/>
<line x1="663.8" y1="737.0" x2="505.5" y2="498.1"/>
<line x1="663.8" y1="737.0" x2="916.9" y2="661.9"/>
<line x1="663.8" y1="737.0" x2="863.7" y2="757.9"/>
<line x1="902.2" y1="642.6" x2="951.6" y2="423.7"/>
<line x1="902.2" y1="642.6" x2="924.4" y2="433.0"/>
<line x1="902.2" y1="642.6" x2="779.9" y2="518.7"/>
<line x1="902.2" y1="642.6" x2="1002.0" y2="553.4"/>
<line x1="902.2" y1="642.6" x2="798.8" y2="467.8"/>
<line x1="902.2" y1="642.6" x2="916.9" y2="661.9"/>
<line x1="902.2" y1="642.6" x2="863.7" y2="757.9"/>
<line x1="933.3" y1="596.6" x2="828.2" y2="375.9"/>
<line x1="933.3" y1="596.6" x2="951.6" y2="423.7"/>
<line x1="933.3" y1="596.6" x2="924.4" y2="433.0"/>
<line x1="933.3" y1="596.6" x2="882.6" y2="490.9"/>
<line x1="933.3" y1="596.6" x2="1002.0" y2="553.4"/>
<line x1="933.3" y1="596.6" x2="798.8" y2="467.8"/>
<line x1="933.3" y1="596.6" x2="916.9" y2="661.9"/>
<line x1="933.3" y1="596.6" x2="863.7" y2="757.9"/>
<line x1="933.3" y1="596.6" x2="958.1" y2="481.4"/>
<line x1="779.6" y1="887.0" x2="779.9" y2="518.7"/>
<line x1="779.6" y1="887.0" x2="916.9" y2="661.9"/>
<line x1="779.6" y1="887.0" x2="863.7" y2="757.9"/>
<line x1="970.0" y1="682.7" x2="951.6" y2="423.7"/>
<line x1="970.0" y1="682.7" x2="924.4" y2="433.0"/>
<line x1="970.0" y1="682.7" x2="779.9" y2="518.7"/>
<line x1="970.0" y1="682.7" x2="1002.0" y2="553.4"/>
<line x1="970.0" y1="682.7" x2="916.9" y2="661.9"/>
<line x1="970.0" y1="682.7" x2="863.7" y2="757.9"/>
<line x1="769.6" y1="695.1" x2="886.9" y2="380.3"/>
<line x1="769.6" y1="695.1" x2="882.6" y2="490.9"/>
<line x1="769.6" y1="695.1" x2="779.9" y2="518.7"/>
<line x1="769.6" y1="695.1" x2="916.9" y2="661.9"/>
<line x1="769.6" y1="695.1" x2="863.7" y2="757.9"/>
<line x1="914.0" y1="680.5" x2="951.6" y2="423.7"/>
<line x1="914.0" y1="680.5" x2="924.4" y2="433.0"/>
<line x1="914.0" y1="680.5" x2="779.9" y2="518.7"/>
<line x1="914.0" y1="680.5" x2="1002.0" y2="553.4"/>
<line x1="914.0" y1="680.5" x2="798.8" y2="467.8"/>
<line x1="914.0" y1="680.5" x2="916.9" y2="661.9"/>
<line x1="914.0" y1="680.5" x2="863.7" y2="757.9"/>
<line x1="839.3" y1="740.9" x2="478.4" y2="896.6"/>
<line x1="839.3" y1="740.9" x2="951.6" y2="423.7"/>
<line x1="839.3" y1="740.9" x2="924.4" y2="433.0"/>
<line x1="839.3" y1="740.9" x2="839.5" y2="445.8"/>
<line x1="839.3" y1="740.9" x2="701.3" y2="1137.2"/>
<line x1="839.3" y1="740.9" x2="779.9" y2="518.7"/>
<line x1="839.3" y1="740.9" x2="1016.2" y2="761.8"/>
<line x1="839.3" y1="740.9" x2="1052.7" y2="739.3"/>
<line x1="839.3" y1="740.9" x2="1110.1" y2="714.9"/>
<line x1="839.3" y1="740.9" x2="798.8" y2="467.8"/>
<line x1="839.3" y1="740.9" x2="916.9" y2="661.9"/>
<line x1="915.9" y1="517.1" x2="828.2" y2="375.9"/>
<line x1="915.9" y1="517.1" x2="951.6" y2="423.7"/>
<line x1="915.9" y1="517.1" x2="924.4" y2="433.0"/>
<line x1="915.9" y1="517.1" x2="886.9" y2="380.3"/>
<line x1="915.9" y1="517.1" x2="839.5" y2="445.8"/>
<line x1="915.9" y1="517.1" x2="779.9" y2="518.7"/>
<line x1="915.9" y1="517.1" x2="798.8" y2="467.8"/>
<line x1="838.9" y1="489.2" x2="951.6" y2="423.7"/>
<line x1="838.9" y1="489.2" x2="711.5" y2="426.7"/>
<line x1="838.9" y1="489.2" x2="924.4" y2="433.0"/>
<line x1="838.9" y1="489.2" x2="839.5" y2="445.8"/>
<line x1="838.9" y1="489.2" x2="682.3" y2="321.4"/>
<line x1="838.9" y1="489.2" x2="811.4" y2="311.2"/>
<line x1="838.9" y1="489.2" x2="781.4" y2="330.7"/>
<line x1="838.9" y1="489.2" x2="779.9" y2="518.7"/>
<line x1="838.9" y1="489.2" x2="1002.0" y2="553.4"/>
<line x1="838.9" y1="489.2" x2="916.9" y2="661.9"/>
<line x1="838.9" y1="489.2" x2="736.9" y2="503.1"/>
<line x1="838.9" y1="489.2" x2="915.9" y2="517.1"/>
<line x1="1153.0" y1="666.1" x2="1113.8" y2="421.1"/>
<line x1="1153.0" y1="666.1" x2="924.4" y2="433.0"/>
<line x1="1153.0" y1="666.1" x2="1002.0" y2="553.4"/>
<line x1="1153.0" y1="666.1" x2="905.6" y2="857.5"/>
<line x1="1153.0" y1="666.1" x2="916.9" y2="661.9"/>
<line x1="1153.0" y1="666.1" x2="1076.3" y2="515.9"/>
<line x1="1153.0" y1="666.1" x2="1372.3" y2="629.3"/>
<line x1="1119.3" y1="644.7" x2="924.4" y2="433.0"/>
<line x1="1119.3" y1="644.7" x2="839.5" y2="445.8"/>
<line x1="1119.3" y1="644.7" x2="916.9" y2="661.9"/>
<line x1="885.7" y1="583.2" x2="951.6" y2="423.7"/>
<line x1="885.7" y1="583.2" x2="976.9" y2="511.6"/>
<line x1="885.7" y1="583.2" x2="754.0" y2="440.3"/>
<line x1="885.7" y1="583.2" x2="718.9" y2="482.5"/>
<line x1="885.7" y1="583.2" x2="924.4" y2="433.0"/>
<line x1="885.7" y1="583.2" x2="839.5" y2="445.8"/>
<line x1="885.7" y1="583.2" x2="913.8" y2="380.9"/>
<line x1="885.7" y1="583.2" x2="779.9" y2="518.7"/>
<line x1="885.7" y1="583.2" x2="697.3" y2="739.9"/>
<line x1="885.7" y1="583.2" x2="684.8" y2="512.9"/>
<line x1="885.7" y1="583.2" x2="716.8" y2="570.8"/>
<line x1="885.7" y1="583.2" x2="1002.0" y2="553.4"/>
<line x1="885.7" y1="583.2" x2="798.8" y2="467.8"/>
<line x1="885.7" y1="583.2" x2="916.9" y2="661.9"/>
<line x1="885.7" y1="583.2" x2="636.3" y2="641.9"/>
<line x1="885.7" y1="583.2" x2="1076.3" y2="515.9"/>
<line x1="885.7" y1="583.2" x2="1233.4" y2="697.7"/>
<line x1="885.7" y1="583.2" x2="915.9" y2="517.1"/>
<line x1="1051.8" y1="657.9" x2="951.6" y2="423.7"/>
<line x1="1051.8" y1="657.9" x2="924.4" y2="433.0"/>
<line x1="1051.8" y1="657.9" x2="779.9" y2="518.7"/>
<line x1="1051.8" y1="657.9" x2="916.9" y2="661.9"/>
<line x1="643.4" y1="565.4" x2="478.4" y2="896.6"/>
<line x1="643.4" y1="565.4" x2="839.5" y2="445.8"/>
<line x1="643.4" y1="565.4" x2="621.3" y2="76.0"/>
<line x1="643.4" y1="565.4" x2="916.9" y2="661.9"/>
<line x1="1044.1" y1="552.6" x2="951.6" y2="423.7"/>
<line x1="1044.1" y1="552.6" x2="924.4" y2="433.0"/>
<line x1="1044.1" y1="552.6" x2="839.5" y2="445.8"/>
<line x1="1044.1" y1="552.6" x2="779.9" y2="518.7"/>
<line x1="1044.1" y1="552.6" x2="916.9" y2="661.9"/>
<line x1="869.8" y1="468.8" x2="828.2" y2="375.9"/>
<line x1="869.8" y1="468.8" x2="951.6" y2="423.7"/>
<line x1="869.8" y1="468.8" x2="976.9" y2="511.6"/>
<line x1="869.8" y1="468.8" x2="924.4" y2="433.0"/>
<line x1="869.8" y1="468.8" x2="839.5" y2="445.8"/>
<line x1="869.8" y1="468.8" x2="682.3" y2="321.4"/>
<line x1="869.8" y1="468.8" x2="811.4" y2="311.2"/>
<line x1="869.8" y1="468.8" x2="781.4" y2="330.7"/>
<line x1="869.8" y1="468.8" x2="779.9" y2="518.7"/>
<line x1="869.8" y1="468.8" x2="1002.0" y2="553.4"/>
<line x1="869.8" y1="468.8" x2="798.8" y2="467.8"/>
<line x1="869.8" y1="468.8" x2="916.9" y2="661.9"/>
<line x1="869.8" y1="468.8" x2="915.9" y2="517.1"/>
<line x1="1183.6" y1="597.5" x2="951.6" y2="423.7"/>
<line x1="1183.6" y1="597.5" x2="924.4" y2="433.0"/>
<line x1="1183.6" y1="597.5" x2="916.9" y2="661.9"/>
<line x1="1003.6" y1="586.3" x2="951.6" y2="423.7"/>
<line x1="1003.6" y1="586.3" x2="924.4" y2="433.0"/>
<line x1="1003.6" y1="586.3" x2="839.5" y2="445.8"/>
<line x1="1003.6" y1="586.3" x2="779.9" y2="518.7"/>
<line x1="1003.6" y1="586.3" x2="916.9" y2="661.9"/>
<line x1="1003.6" y1="586.3" x2="915.9" y2="517.1"/>
<line x1="894.2" y1="474.1" x2="828.2" y2="375.9"/>
<line x1="894.2" y1="474.1" x2="951.6" y2="423.7"/>
<line x1="894.2" y1="474.1" x2="976.9" y2="511.6"/>
<line x1="894.2" y1="474.1" x2="718.9" y2="482.5"/>
<line x1="894.2" y1="474.1" x2="924.4" y2="433.0"/>
<line x1="894.2" y1="474.1" x2="886.9" y2="380.3"/>
<line x1="894.2" y1="474.1" x2="839.5" y2="445.8"/>
<line x1="894.2" y1="474.1" x2="882.6" y2="490.9"/>
<line x1="894.2" y1="474.1" x2="811.4" y2="311.2"/>
<line x1="894.2" y1="474.1" x2="781.4" y2="330.7"/>
<line x1="894.2" y1="474.1" x2="1053.5" y2="265.4"/>
<line x1="894.2" y1="474.1" x2="779.9" y2="518.7"/>
<line x1="894.2" y1="474.1" x2="1002.0" y2="553.4"/>
<line x1="894.2" y1="474.1" x2="803.5" y2="563.0"/>
<line x1="894.2" y1="474.1" x2="905.6" y2="857.5"/>
<line x1="894.2" y1="474.1" x2="798.8" y2="467.8"/>
<line x1="894.2" y1="474.1" x2="916.9" y2="661.9"/>
<line x1="894.2" y1="474.1" x2="703.6" y2="155.8"/>
<line x1="894.2" y1="474.1" x2="915.9" y2="517.1"/>
<line x1="894.2" y1="474.1" x2="838.9" y2="489.2"/>
<line x1="841.7" y1="420.4" x2="711.5" y2="426.7"/>
<line x1="841.7" y1="420.4" x2="924.4" y2="433.0"/>
<line x1="841.7" y1="420.4" x2="839.5" y2="445.8"/>
<line x1="841.7" y1="420.4" x2="505.5" y2="498.1"/>
<line x1="841.7" y1="420.4" x2="682.3" y2="321.4"/>
<line x1="841.7" y1="420.4" x2="830.0" y2="257.8"/>
<line x1="841.7" y1="420.4" x2="641.5" y2="261.7"/>
<line x1="841.7" y1="420.4" x2="1115.6" y2="463.9"/>
<line x1="841.7" y1="420.4" x2="913.8" y2="380.9"/>
<line x1="841.7" y1="420.4" x2="779.9" y2="518.7"/>
<line x1="841.7" y1="420.4" x2="686.5" y2="371.0"/>
<line x1="841.7" y1="420.4" x2="1002.0" y2="553.4"/>
<line x1="841.7" y1="420.4" x2="798.8" y2="467.8"/>
<line x1="841.7" y1="420.4" x2="916.9" y2="661.9"/>
<line x1="841.7" y1="420.4" x2="1076.3" y2="515.9"/>
<line x1="841.7" y1="420.4" x2="958.9" y2="250.0"/>
<line x1="841.7" y1="420.4" x2="915.9" y2="517.1"/>
<line x1="1380.0" y1="524.7" x2="1368.6" y2="250.5"/>
<line x1="958.1" y1="481.4" x2="828.2" y2="375.9"/>
<line x1="958.1" y1="481.4" x2="951.6" y2="423.7"/>
<line x1="958.1" y1="481.4" x2="924.4" y2="433.0"/>
<line x1="958.1" y1="481.4" x2="886.9" y2="380.3"/>
<line x1="958.1" y1="481.4" x2="839.5" y2="445.8"/>
<line x1="958.1" y1="481.4" x2="882.6" y2="490.9"/>
<line x1="958.1" y1="481.4" x2="779.9" y2="518.7"/>
<line x1="958.1" y1="481.4" x2="1002.0" y2="553.4"/>
<line x1="958.1" y1="481.4" x2="798.8" y2="467.8"/>
<line x1="958.1" y1="481.4" x2="916.9" y2="661.9"/>
<line x1="958.1" y1="481.4" x2="958.9" y2="250.0"/>
<line x1="1203.8" y1="734.3" x2="1002.0" y2="553.4"/>
<line x1="1203.8" y1="734.3" x2="916.9" y2="661.9"/>
<line x1="1203.8" y1="734.3" x2="1151.3" y2="460.4"/>
<line x1="976.1" y1="603.9" x2="951.6" y2="423.7"/>
<line x1="976.1" y1="603.9" x2="976.9" y2="511.6"/>
<line x1="976.1" y1="603.9" x2="924.4" y2="433.0"/>
<line x1="976.1" y1="603.9" x2="839.5" y2="445.8"/>
<line x1="976.1" y1="603.9" x2="779.9" y2="518.7"/>
<line x1="976.1" y1="603.9" x2="1002.0" y2="553.4"/>
<line x1="976.1" y1="603.9" x2="1052.7" y2="739.3"/>
<line x1="976.1" y1="603.9" x2="1110.1" y2="714.9"/>
<line x1="976.1" y1="603.9" x2="798.8" y2="467.8"/>
<line x1="976.1" y1="603.9" x2="916.9" y2="661.9"/>
<line x1="976.1" y1="603.9" x2="915.9" y2="517.1"/>
<line x1="412.9" y1="1280.0" x2="478.4" y2="896.6"/>
<line x1="412.9" y1="1280.0" x2="604.5" y2="1380.0"/>
<line x1="115.4" y1="1052.2" x2="478.4" y2="896.6"/>
<line x1="892.5" y1="151.3" x2="951.6" y2="423.7"/>
<line x1="892.5" y1="151.3" x2="924.4" y2="433.0"/>
<line x1="892.5" y1="151.3" x2="798.8" y2="467.8"/>
<line x1="858.3" y1="164.7" x2="951.6" y2="423.7"/>
<line x1="858.3" y1="164.7" x2="924.4" y2="433.0"/>
<line x1="858.3" y1="164.7" x2="798.8" y2="467.8"/>
<line x1="49.0" y1="889.9" x2="478.4" y2="896.6"/>
<line x1="472.8" y1="123.5" x2="839.5" y2="445.8"/>
<line x1="649.0" y1="20.0" x2="839.5" y2="445.8"/>
<line x1="702.8" y1="20.0" x2="839.5" y2="445.8"/>
<line x1="1055.3" y1="101.7" x2="951.6" y2="423.7"/>
<line x1="1055.3" y1="101.7" x2="924.4" y2="433.0"/>
<line x1="1055.3" y1="101.7" x2="1076.6" y2="63.4"/>
<line x1="1055.3" y1="101.7" x2="1110.4" y2="60.3"/>
<line x1="957.7" y1="20.0" x2="839.5" y2="445.8"/>
<line x1="957.7" y1="20.0" x2="1076.6" y2="63.4"/>
<line x1="957.7" y1="20.0" x2="1110.4" y2="60.3"/>
<line x1="1203.1" y1="174.8" x2="951.6" y2="423.7"/>
<line x1="1203.1" y1="174.8" x2="924.4" y2="433.0"/>
<line x1="1203.1" y1="174.8" x2="1076.6" y2="63.4"/>
<line x1="1203.1" y1="174.8" x2="1110.4" y2="60.3"/>
<line x1="1017.6" y1="159.1" x2="951.6" y2="423.7"/>
<line x1="1017.6" y1="159.1" x2="924.4" y2="433.0"/>
<line x1="1017.6" y1="159.1" x2="839.5" y2="445.8"/>
<line x1="1017.6" y1="159.1" x2="1076.6" y2="63.4"/>
<line x1="1017.6" y1="159.1" x2="1110.4" y2="60.3"/>
<line x1="743.4" y1="134.3" x2="839.5" y2="445.8"/>
<line x1="743.4" y1="134.3" x2="819.1" y2="231.0"/>
<line x1="743.4" y1="134.3" x2="811.4" y2="311.2"/>
<line x1="743.4" y1="134.3" x2="781.4" y2="330.7"/>
<line x1="743.4" y1="134.3" x2="902.2" y2="280.5"/>
<line x1="743.4" y1="134.3" x2="703.6" y2="155.8"/>
<line x1="793.9" y1="715.5" x2="924.4" y2="433.0"/>
<line x1="793.9" y1="715.5" x2="913.8" y2="380.9"/>
<line x1="793.9" y1="715.5" x2="702.7" y2="684.4"/>
<line x1="1175.7" y1="392.0" x2="976.9" y2="511.6"/>
<line x1="1175.7" y1="392.0" x2="924.4" y2="433.0"/>
<line x1="1175.7" y1="392.0" x2="839.5" y2="445.8"/>
<line x1="1175.7" y1="392.0" x2="1296.5" y2="277.0"/>
<line x1="1380.0" y1="378.2" x2="924.4" y2="433.0"/>
<line x1="924.6" y1="20.0" x2="839.5" y2="445.8"/>
<line x1="924.6" y1="20.0" x2="1076.6" y2="63.4"/>
<line x1="924.6" y1="20.0" x2="1110.4" y2="60.3"/>
<line x1="1135.2" y1="149.4" x2="951.6" y2="423.7"/>
<line x1="1135.2" y1="149.4" x2="924.4" y2="433.0"/>
<line x1="1135.2" y1="149.4" x2="1076.6" y2="63.4"/>
<line x1="1135.2" y1="149.4" x2="1110.4" y2="60.3"/>
<line x1="262.9" y1="572.2" x2="718.9" y2="482.5"/>
<line x1="662.0" y1="828.3" x2="839.5" y2="445.8"/>
<line x1="662.0" y1="828.3" x2="803.5" y2="563.0"/>
<line x1="357.0" y1="452.8" x2="839.5" y2="445.8"/>
<line x1="859.7" y1="305.2" x2="828.2" y2="375.9"/>
<line x1="859.7" y1="305.2" x2="951.6" y2="423.7"/>
<line x1="859.7" y1="305.2" x2="924.4" y2="433.0"/>
<line x1="859.7" y1="305.2" x2="886.9" y2="380.3"/>
<line x1="859.7" y1="305.2" x2="839.5" y2="445.8"/>
<line x1="859.7" y1="305.2" x2="781.4" y2="330.7"/>
<line x1="859.7" y1="305.2" x2="779.9" y2="518.7"/>
<line x1="859.7" y1="305.2" x2="816.3" y2="395.4"/>
<line x1="1007.3" y1="202.4" x2="951.6" y2="423.7"/>
<line x1="1007.3" y1="202.4" x2="924.4" y2="433.0"/>
<line x1="1007.3" y1="202.4" x2="839.5" y2="445.8"/>
<line x1="857.3" y1="399.8" x2="951.6" y2="423.7"/>
<line x1="857.3" y1="399.8" x2="754.0" y2="440.3"/>
<line x1="857.3" y1="399.8" x2="924.4" y2="433.0"/>
<line x1="857.3" y1="399.8" x2="839.5" y2="445.8"/>
<line x1="857.3" y1="399.8" x2="913.8" y2="380.9"/>
<line x1="857.3" y1="399.8" x2="779.9" y2="518.7"/>
<line x1="857.3" y1="399.8" x2="697.3" y2="739.9"/>
<line x1="857.3" y1="399.8" x2="684.8" y2="512.9"/>
<line x1="857.3" y1="399.8" x2="716.8" y2="570.8"/>
<line x1="857.3" y1="399.8" x2="915.3" y2="248.3"/>
<line x1="857.3" y1="399.8" x2="776.2" y2="565.4"/>
<line x1="857.3" y1="399.8" x2="674.7" y2="542.6"/>
<line x1="857.3" y1="399.8" x2="878.5" y2="426.0"/>
<line x1="857.3" y1="399.8" x2="803.5" y2="563.0"/>
<line x1="857.3" y1="399.8" x2="736.9" y2="503.1"/>
<line x1="857.3" y1="399.8" x2="636.3" y2="641.9"/>
<line x1="857.3" y1="399.8" x2="1076.3" y2="515.9"/>
<line x1="857.3" y1="399.8" x2="958.9" y2="250.0"/>
<line x1="857.3" y1="399.8" x2="1076.6" y2="63.4"/>
<line x1="857.3" y1="399.8" x2="1110.4" y2="60.3"/>
<line x1="911.6" y1="187.1" x2="951.6" y2="423.7"/>
<line x1="911.6" y1="187.1" x2="924.4" y2="433.0"/>
<line x1="911.6" y1="187.1" x2="798.8" y2="467.8"/>
<line x1="1168.9" y1="171.5" x2="951.6" y2="423.7"/>
<line x1="1168.9" y1="171.5" x2="924.4" y2="433.0"/>
<line x1="1168.9" y1="171.5" x2="1076.6" y2="63.4"/>
<line x1="1168.9" y1="171.5" x2="1110.4" y2="60.3"/>
<line x1="811.2" y1="137.7" x2="924.4" y2="433.0"/>
<line x1="811.2" y1="137.7" x2="886.9" y2="380.3"/>
<line x1="811.2" y1="137.7" x2="682.3" y2="321.4"/>
<line x1="811.2" y1="137.7" x2="811.4" y2="311.2"/>
<line x1="811.2" y1="137.7" x2="902.2" y2="280.5"/>
<line x1="1058.0" y1="189.8" x2="951.6" y2="423.7"/>
<line x1="1058.0" y1="189.8" x2="924.4" y2="433.0"/>
<line x1="1058.0" y1="189.8" x2="839.5" y2="445.8"/>
<line x1="1058.0" y1="189.8" x2="1076.6" y2="63.4"/>
<line x1="1058.0" y1="189.8" x2="1110.4" y2="60.3"/>
<line x1="1181.0" y1="136.7" x2="951.6" y2="423.7"/>
<line x1="1181.0" y1="136.7" x2="924.4" y2="433.0"/>
<line x1="1181.0" y1="136.7" x2="1076.6" y2="63.4"/>
<line x1="1181.0" y1="136.7" x2="1110.4" y2="60.3"/>
<line x1="958.5" y1="180.8" x2="951.6" y2="423.7"/>
<line x1="958.5" y1="180.8" x2="718.9" y2="482.5"/>
<line x1="958.5" y1="180.8" x2="924.4" y2="433.0"/>
<line x1="958.5" y1="180.8" x2="857.3" y2="223.6"/>
<line x1="958.5" y1="180.8" x2="1076.6" y2="63.4"/>
<line x1="958.5" y1="180.8" x2="1110.4" y2="60.3"/>
<line x1="1103.9" y1="119.9" x2="951.6" y2="423.7"/>
<line x1="1103.9" y1="119.9" x2="924.4" y2="433.0"/>
<line x1="1103.9" y1="119.9" x2="1076.6" y2="63.4"/>
<line x1="1103.9" y1="119.9" x2="1110.4" y2="60.3"/>
<line x1="1345.5" y1="20.0" x2="1110.4" y2="60.3"/>
<line x1="1033.1" y1="894.8" x2="839.5" y2="445.8"/>
<line x1="1123.6" y1="227.9" x2="951.6" y2="423.7"/>
<line x1="1123.6" y1="227.9" x2="924.4" y2="433.0"/>
<line x1="1123.6" y1="227.9" x2="913.8" y2="380.9"/>
<line x1="1123.6" y1="227.9" x2="1151.3" y2="460.4"/>
<line x1="1123.6" y1="227.9" x2="1076.6" y2="63.4"/>
<line x1="1123.6" y1="227.9" x2="1110.4" y2="60.3"/>
<line x1="467.1" y1="737.6" x2="478.4" y2="896.6"/>
<line x1="467.1" y1="737.6" x2="839.5" y2="445.8"/>
<line x1="659.2" y1="618.5" x2="478.4" y2="896.6"/>
<line x1="659.2" y1="618.5" x2="613.4" y2="523.9"/>
<line x1="659.2" y1="618.5" x2="828.2" y2="375.9"/>
<line x1="659.2" y1="618.5" x2="951.6" y2="423.7"/>
<line x1="659.2" y1="618.5" x2="924.4" y2="433.0"/>
<line x1="1146.2" y1="113.7" x2="951.6" y2="423.7"/>
<line x1="1146.2" y1="113.7" x2="924.4" y2="433.0"/>
<line x1="1146.2" y1="113.7" x2="1076.6" y2="63.4"/>
<line x1="1146.2" y1="113.7" x2="1110.4" y2="60.3"/>
<line x1="912.9" y1="954.1" x2="478.4" y2="896.6"/>
<line x1="912.9" y1="954.1" x2="853.2" y2="575.6"/>
<line x1="912.9" y1="954.1" x2="1273.5" y2="1133.7"/>
<line x1="912.9" y1="954.1" x2="1016.2" y2="761.8"/>
<line x1="912.9" y1="954.1" x2="832.7" y2="818.7"/>
<line x1="912.9" y1="954.1" x2="745.6" y2="1150.1"/>
<line x1="912.9" y1="954.1" x2="1025.1" y2="643.5"/>
<line x1="912.9" y1="954.1" x2="1085.2" y2="868.7"/>
<line x1="361.7" y1="292.3" x2="798.8" y2="467.8"/>
<line x1="1025.1" y1="643.5" x2="839.5" y2="445.8"/>
<line x1="1025.1" y1="643.5" x2="1380.0" y2="866.8"/>
<line x1="1025.1" y1="643.5" x2="1034.9" y2="486.9"/>
<line x1="1025.1" y1="643.5" x2="863.7" y2="757.9"/>
<line x1="1025.1" y1="643.5" x2="839.3" y2="740.9"/>
<line x1="1025.1" y1="643.5" x2="838.9" y2="489.2"/>
<line x1="1025.1" y1="643.5" x2="1153.0" y2="666.1"/>
<line x1="1025.1" y1="643.5" x2="1119.3" y2="644.7"/>
<line x1="1025.1" y1="643.5" x2="885.7" y2="583.2"/>
<line x1="1025.1" y1="643.5" x2="1051.8" y2="657.9"/>
<line x1="1025.1" y1="643.5" x2="643.4" y2="565.4"/>
<line x1="1025.1" y1="643.5" x2="1044.1" y2="552.6"/>
<line x1="1025.1" y1="643.5" x2="869.8" y2="468.8"/>
<line x1="1025.1" y1="643.5" x2="1183.6" y2="597.5"/>
<line x1="1025.1" y1="643.5" x2="1003.6" y2="586.3"/>
<line x1="1025.1" y1="643.5" x2="894.2" y2="474.1"/>
<line x1="1025.1" y1="643.5" x2="841.7" y2="420.4"/>
<line x1="1025.1" y1="643.5" x2="1380.0" y2="524.7"/>
<line x1="1025.1" y1="643.5" x2="958.1" y2="481.4"/>
<line x1="1025.1" y1="643.5" x2="1203.8" y2="734.3"/>
<line x1="1025.1" y1="643.5" x2="976.1" y2="603.9"/>
<line x1="1085.2" y1="868.7" x2="839.5" y2="445.8"/>
</g>
<circle cx="478.4" cy="896.6" r="7.6" fill="#8ab4ff"/>
<circle cx="1288.3" cy="438.6" r="2.5" fill="#ff9e64"/>
<circle cx="1380.0" cy="20.0" r="2.5" fill="#9ece6a"/>
<circle cx="613.4" cy="523.9" r="7.0" fill="#9ece6a"/>
<circle cx="20.0" cy="67.3" r="2.5" fill="#9ece6a"/>
<circle cx="737.5" cy="201.9" r="6.3" fill="#9ece6a"/>
<circle cx="717.1" cy="300.5" r="2.5" fill="#9ece6a"/>
<circle cx="606.2" cy="20.0" r="4.2" fill="#9ece6a"/>
<circle cx="719.7" cy="257.5" r="4.2" fill="#9ece6a"/>
<circle cx="523.5" cy="40.6" r="4.2" fill="#9ece6a"/>
<circle cx="546.8" cy="20.0" r="4.9" fill="#9ece6a"/>
<circle cx="828.2" cy="375.9" r="11.5" fill="#9ece6a"/>
<circle cx="606.1" cy="131.8" r="2.5" fill="#9ece6a"/>
<circle cx="20.0" cy="1380.0" r="2.5" fill="#9ece6a"/>
<circle cx="1008.2" cy="351.7" r="4.9" fill="#9ece6a"/>
<circle cx="1204.9" cy="313.9" r="4.9" fill="#9ece6a"/>
<circle cx="1113.8" cy="421.1" r="6.3" fill="#9ece6a"/>
<circle cx="1197.4" cy="348.8" r="2.5" fill="#9ece6a"/>
<circle cx="1108.4" cy="349.5" r="2.5" fill="#9ece6a"/>
<circle cx="1015.4" cy="375.3" r="4.2" fill="#9ece6a"/>
<circle cx="988.0" cy="308.8" r="2.5" fill="#9ece6a"/>
<circle cx="1222.3" cy="360.0" r="8.1" fill="#9ece6a"/>
<circle cx="1060.6" cy="371.0" r="2.5" fill="#9ece6a"/>
<circle cx="1097.3" cy="317.6" r="2.5" fill="#9ece6a"/>
<circle cx="1126.8" cy="293.1" r="7.6" fill="#9ece6a"/>
<circle cx="1166.6" cy="265.4" r="4.9" fill="#9ece6a"/>
<circle cx="1196.7" cy="413.3" r="2.5" fill="#9ece6a"/>
<circle cx="1114.1" cy="379.4" r="2.5" fill="#9ece6a"/>
<circle cx="20.0" cy="1380.0" r="2.5" fill="#9ece6a"/>
<circle cx="1380.0" cy="915.7" r="4.2" fill="#9ece6a"/>
<circle cx="1116.3" cy="609.6" r="2.5" fill="#9ece6a"/>
<circle cx="951.6" cy="423.7" r="17.0" fill="#9ece6a"/>
<circle cx="976.9" cy="511.6" r="8.1" fill="#9ece6a"/>
<circle cx="711.5" cy="426.7" r="9.3" fill="#9ece6a"/>
<circle cx="754.0" cy="440.3" r="7.0" fill="#9ece6a"/>
<circle cx="718.9" cy="482.5" r="8.1" fill="#9ece6a"/>
<circle cx="1380.0" cy="559.7" r="4.2" fill="#9ece6a"/>
<circle cx="924.4" cy="433.0" r="20.9" fill="#9ece6a"/>
<circle cx="1380.0" cy="441.3" r="4.2" fill="#9ece6a"/>
<circle cx="321.9" cy="628.8" r="4.2" fill="#9ece6a"/>
<circle cx="886.9" cy="380.3" r="11.0" fill="#9ece6a"/>
<circle cx="99.7" cy="733.9" r="2.5" fill="#9ece6a"/>
<circle cx="839.5" cy="445.8" r="19.8" fill="#9ece6a"/>
<circle cx="882.6" cy="490.9" r="8.1" fill="#9ece6a"/>
<circle cx="496.8" cy="566.2" r="6.3" fill="#9ece6a"/>
<circle cx="1380.0" cy="1380.0" r="2.5" fill="#9ece6a"/>
<circle cx="751.5" cy="306.7" r="2.5" fill="#9ece6a"/>
<circle cx="775.1" cy="272.7" r="2.5" fill="#9ece6a"/>
<circle cx="853.2" cy="575.6" r="5.4" fill="#9ece6a"/>
<circle cx="1380.0" cy="20.0" r="2.5" fill="#9ece6a"/>
<circle cx="819.1" cy="231.0" r="4.9" fill="#9ece6a"/>
<circle cx="20.0" cy="1289.5" r="2.5" fill="#9ece6a"/>
<circle cx="626.2" cy="400.9" r="2.5" fill="#9ece6a"/>
<circle cx="505.5" cy="498.1" r="9.5" fill="#9ece6a"/>
<circle cx="501.1" cy="281.8" r="4.2" fill="#9ece6a"/>
<circle cx="414.6" cy="456.7" r="2.5" fill="#9ece6a"/>
<circle cx="548.3" cy="427.5" r="2.5" fill="#9ece6a"/>
<circle cx="503.5" cy="470.9" r="2.5" fill="#9ece6a"/>
<circle cx="601.7" cy="761.4" r="2.5" fill="#9ece6a"/>
<circle cx="291.1" cy="319.3" r="2.5" fill="#9ece6a"/>
<circle cx="20.0" cy="20.0" r="2.5" fill="#9ece6a"/>
<circle cx="594.8" cy="455.3" r="4.2" fill="#9ece6a"/>
<circle cx="387.8" cy="393.4" r="2.5" fill="#9ece6a"/>
<circle cx="71.5" cy="642.3" r="2.5" fill="#9ece6a"/>
<circle cx="656.3" cy="412.8" r="2.5" fill="#9ece6a"/>
<circle cx="467.1" cy="320.9" r="2.5" fill="#9ece6a"/>
<circle cx="619.0" cy="321.7" r="2.5" fill="#9ece6a"/>
<circle cx="480.4" cy="383.7" r="2.5" fill="#9ece6a"/>
<circle cx="554.7" cy="334.3" r="2.5" fill="#9ece6a"/>
<circle cx="570.9" cy="236.4" r="2.5" fill="#9ece6a"/>
<circle cx="682.3" cy="321.4" r="12.3" fill="#9ece6a"/>
<circle cx="641.1" cy="295.9" r="5.4" fill="#9ece6a"/>
<circle cx="811.4" cy="311.2" r="9.7" fill="#9ece6a"/>
<circle cx="653.7" cy="218.1" r="4.9" fill="#9ece6a"/>
<circle cx="781.4" cy="330.7" r="10.5" fill="#9ece6a"/>
<circle cx="830.0" cy="257.8" r="4.2" fill="#9ece6a"/>
<circle cx="687.2" cy="240.8" r="5.4" fill="#9ece6a"/>
<circle cx="641.5" cy="261.7" r="4.2" fill="#9ece6a"/>
<circle cx="1120.5" cy="568.7" r="2.5" fill="#9ece6a"/>
<circle cx="1115.6" cy="463.9" r="8.6" fill="#9ece6a"/>
<circle cx="913.8" cy="380.9" r="9.1" fill="#9ece6a"/>
<circle cx="1053.5" cy="265.4" r="4.2" fill="#9ece6a"/>
<circle cx="701.3" cy="1137.2" r="4.2" fill="#9ece6a"/>
<circle cx="779.9" cy="518.7" r="15.6" fill="#9ece6a"/>
<circle cx="586.4" cy="615.7" r="2.5" fill="#9ece6a"/>
<circle cx="1380.0" cy="1380.0" r="2.5" fill="#9ece6a"/>
<circle cx="1380.0" cy="1380.0" r="2.5" fill="#9ece6a"/>
<circle cx="428.3" cy="590.2" r="2.5" fill="#9ece6a"/>
<circle cx="697.3" cy="739.9" r="5.4" fill="#9ece6a"/>
<circle cx="684.8" cy="512.9" r="5.4" fill="#9ece6a"/>
<circle cx="716.8" cy="570.8" r="5.4" fill="#9ece6a"/>
<circle cx="89.4" cy="1380.0" r="2.5" fill="#9ece6a"/>
<circle cx="915.3" cy="248.3" r="5.4" fill="#9ece6a"/>
<circle cx="1380.0" cy="1380.0" r="2.5" fill="#9ece6a"/>
<circle cx="799.1" cy="524.2" r="4.9" fill="#9ece6a"/>
<circle cx="776.2" cy="565.4" r="5.4" fill="#9ece6a"/>
<circle cx="491.4" cy="796.7" r="2.5" fill="#9ece6a"/>
<circle cx="674.7" cy="542.6" r="7.0" fill="#9ece6a"/>
<circle cx="686.5" cy="371.0" r="4.2" fill="#9ece6a"/>
<circle cx="816.3" cy="395.4" r="5.4" fill="#9ece6a"/>
<circle cx="310.1" cy="819.0" r="2.5" fill="#9ece6a"/>
<circle cx="878.5" cy="426.0" r="4.2" fill="#9ece6a"/>
<circle cx="857.3" cy="223.6" r="4.2" fill="#9ece6a"/>
<circle cx="20.0" cy="1380.0" r="2.5" fill="#9ece6a"/>
<circle cx="704.6" cy="629.9" r="2.5" fill="#9ece6a"/>
<circle cx="871.2" cy="710.2" r="4.2" fill="#9ece6a"/>
<circle cx="528.0" cy="163.0" r="5.9" fill="#9ece6a"/>
<circle cx="1296.5" cy="277.0" r="6.3" fill="#9ece6a"/>
<circle cx="1002.0" cy="553.4" r="9.3" fill="#9ece6a"/>
<circle cx="1273.5" cy="1133.7" r="4.2" fill="#9ece6a"/>
<circle cx="766.3" cy="20.0" r="4.2" fill="#9ece6a"/>
<circle cx="1016.2" cy="761.8" r="5.4" fill="#9ece6a"/>
<circle cx="1219.0" cy="246.9" r="5.9" fill="#9ece6a"/>
<circle cx="1017.0" cy="20.0" r="4.2" fill="#9ece6a"/>
<circle cx="1052.7" cy="739.3" r="4.9" fill="#9ece6a"/>
<circle cx="1285.9" cy="1380.0" r="2.5" fill="#9ece6a"/>
<circle cx="604.5" cy="1380.0" r="4.2" fill="#9ece6a"/>
<circle cx="758.4" cy="1380.0" r="4.2" fill="#9ece6a"/>
<circle cx="657.0" cy="1380.0" r="4.2" fill="#9ece6a"/>
<circle cx="708.3" cy="1380.0" r="4.2" fill="#9ece6a"/>
<circle cx="820.2" cy="1380.0" r="4.9" fill="#9ece6a"/>
<circle cx="570.9" cy="391.7" r="5.9" fill="#9ece6a"/>
<circle cx="803.5" cy="563.0" r="7.9" fill="#9ece6a"/>
<circle cx="902.2" cy="280.5" r="6.3" fill="#9ece6a"/>
<circle cx="940.5" cy="155.9" r="4.2" fill="#9ece6a"/>
<circle cx="1019.3" cy="246.1" r="4.9" fill="#9ece6a"/>
<circle cx="1110.1" cy="714.9" r="5.4" fill="#9ece6a"/>
<circle cx="832.7" cy="818.7" r="4.2" fill="#9ece6a"/>
<circle cx="20.0" cy="1380.0" r="2.5" fill="#9ece6a"/>
<circle cx="995.8" cy="20.0" r="2.5" fill="#9ece6a"/>
<circle cx="702.7" cy="684.4" r="6.3" fill="#9ece6a"/>
<circle cx="740.3" cy="369.7" r="4.2" fill="#9ece6a"/>
<circle cx="905.6" cy="857.5" r="5.4" fill="#9ece6a"/>
<circle cx="20.0" cy="1318.4" r="2.5" fill="#9ece6a"/>
<circle cx="798.8" cy="467.8" r="12.7" fill="#9ece6a"/>
<circle cx="621.3" cy="76.0" r="4.2" fill="#9ece6a"/>
<circle cx="1049.8" cy="596.4" r="4.9" fill="#9ece6a"/>
<circle cx="916.9" cy="661.9" r="13.4" fill="#9ece6a"/>
<circle cx="1380.0" cy="43.1" r="4.2" fill="#9ece6a"/>
<circle cx="1368.6" cy="250.5" r="4.2" fill="#9ece6a"/>
<circle cx="736.9" cy="503.1" r="5.4" fill="#9ece6a"/>
<circle cx="1177.1" cy="476.2" r="4.2" fill="#9ece6a"/>
<circle cx="703.6" cy="155.8" r="6.3" fill="#9ece6a"/>
<circle cx="636.3" cy="641.9" r="4.9" fill="#9ece6a"/>
<circle cx="1076.3" cy="515.9" r="7.9" fill="#9ece6a"/>
<circle cx="1380.0" cy="315.2" r="4.2" fill="#9ece6a"/>
<circle cx="20.0" cy="20.0" r="2.5" fill="#9ece6a"/>
<circle cx="1151.3" cy="460.4" r="5.9" fill="#9ece6a"/>
<circle cx="1233.4" cy="697.7" r="4.2" fill="#9ece6a"/>
<circle cx="1380.0" cy="1380.0" r="2.5" fill="#9ece6a"/>
<circle cx="958.9" cy="250.0" r="6.3" fill="#9ece6a"/>
<circle cx="1380.0" cy="866.8" r="4.2" fill="#9ece6a"/>
<circle cx="1034.9" cy="486.9" r="4.2" fill="#9ece6a"/>
<circle cx="863.7" cy="757.9" r="10.3" fill="#9ece6a"/>
<circle cx="753.5" cy="780.1" r="4.2" fill="#9ece6a"/>
<circle cx="853.8" cy="1187.3" r="4.2" fill="#9ece6a"/>
<circle cx="861.2" cy="608.0" r="4.2" fill="#9ece6a"/>
<circle cx="799.6" cy="613.3" r="4.2" fill="#9ece6a"/>
<circle cx="781.1" cy="812.9" r="4.2" fill="#9ece6a"/>
<circle cx="757.0" cy="544.5" r="4.2" fill="#9ece6a"/>
<circle cx="859.2" cy="647.0" r="4.2" fill="#9ece6a"/>
<circle cx="830.1" cy="899.5" r="4.2" fill="#9ece6a"/>
<circle cx="943.7" cy="713.2" r="4.2" fill="#9ece6a"/>
<circle cx="1001.0" cy="702.5" r="4.2" fill="#9ece6a"/>
<circle cx="954.8" cy="858.4" r="4.2" fill="#9ece6a"/>
<circle cx="803.8" cy="655.2" r="4.2" fill="#9ece6a"/>
<circle cx="848.2" cy="690.7" r="4.2" fill="#9ece6a"/>
<circle cx="986.9" cy="759.4" r="4.2" fill="#9ece6a"/>
<circle cx="1072.4" cy="717.1" r="4.2" fill="#9ece6a"/>
<circle cx="883.4" cy="539.4" r="4.2" fill="#9ece6a"/>
<circle cx="663.8" cy="737.0" r="4.2" fill="#9ece6a"/>
<circle cx="902.2" cy="642.6" r="4.2" fill="#9ece6a"/>
<circle cx="933.3" cy="596.6" r="4.2" fill="#9ece6a"/>
<circle cx="779.6" cy="887.0" r="4.2" fill="#9ece6a"/>
<circle cx="970.0" cy="682.7" r="4.2" fill="#9ece6a"/>
<circle cx="769.6" cy="695.1" r="4.2" fill="#9ece6a"/>
<circle cx="914.0" cy="680.5" r="4.2" fill="#9ece6a"/>
<circle cx="839.3" cy="740.9" r="4.2" fill="#9ece6a"/>
<circle cx="915.9" cy="517.1" r="7.0" fill="#9ece6a"/>
<circle cx="838.9" cy="489.2" r="4.9" fill="#9ece6a"/>
<circle cx="1153.0" cy="666.1" r="4.2" fill="#9ece6a"/>
<circle cx="1119.3" cy="644.7" r="4.2" fill="#9ece6a"/>
<circle cx="885.7" cy="583.2" r="4.2" fill="#9ece6a"/>
<circle cx="1051.8" cy="657.9" r="4.2" fill="#9ece6a"/>
<circle cx="643.4" cy="565.4" r="4.2" fill="#9ece6a"/>
<circle cx="1044.1" cy="552.6" r="4.2" fill="#9ece6a"/>
<circle cx="869.8" cy="468.8" r="4.2" fill="#9ece6a"/>
<circle cx="1183.6" cy="597.5" r="4.2" fill="#9ece6a"/>
<circle cx="1003.6" cy="586.3" r="4.2" fill="#9ece6a"/>
<circle cx="894.2" cy="474.1" r="4.9" fill="#9ece6a"/>
<circle cx="841.7" cy="420.4" r="5.9" fill="#9ece6a"/>
<circle cx="1380.0" cy="524.7" r="4.2" fill="#9ece6a"/>
<circle cx="958.1" cy="481.4" r="4.9" fill="#9ece6a"/>
<circle cx="1203.8" cy="734.3" r="4.2" fill="#9ece6a"/>
<circle cx="976.1" cy="603.9" r="4.2" fill="#9ece6a"/>
<circle cx="412.9" cy="1280.0" r="2.5" fill="#f7768e"/>
<circle cx="1372.3" cy="629.3" r="5.4" fill="#bb9af7"/>
<circle cx="1380.0" cy="1380.0" r="2.5" fill="#7dcfff"/>
<circle cx="49.1" cy="20.0" r="2.5" fill="#7dcfff"/>
<circle cx="20.0" cy="20.0" r="2.5" fill="#7dcfff"/>
<circle cx="20.0" cy="1380.0" r="2.5" fill="#7dcfff"/>
<circle cx="69.7" cy="20.0" r="2.5" fill="#e0af68"/>
<circle cx="20.0" cy="1380.0" r="2.5" fill="#73daca"/>
<circle cx="1380.0" cy="1319.1" r="2.5" fill="#73daca"/>
<circle cx="20.0" cy="20.0" r="2.5" fill="#73daca"/>
<circle cx="20.0" cy="1340.7" r="2.5" fill="#73daca"/>
<circle cx="20.0" cy="97.2" r="2.5" fill="#73daca"/>
<circle cx="20.0" cy="1380.0" r="2.5" fill="#73daca"/>
<circle cx="1380.0" cy="1343.0" r="2.5" fill="#73daca"/>
<circle cx="115.4" cy="1052.2" r="2.5" fill="#73daca"/>
<circle cx="20.0" cy="20.0" r="2.5" fill="#c0caf5"/>
<circle cx="1076.6" cy="63.4" r="9.1" fill="#c0caf5"/>
<circle cx="892.5" cy="151.3" r="2.5" fill="#c0caf5"/>
<circle cx="858.3" cy="164.7" r="2.5" fill="#c0caf5"/>
<circle cx="49.0" cy="889.9" r="2.5" fill="#c0caf5"/>
<circle cx="472.8" cy="123.5" r="2.5" fill="#c0caf5"/>
<circle cx="649.0" cy="20.0" r="2.5" fill="#c0caf5"/>
<circle cx="702.8" cy="20.0" r="2.5" fill="#c0caf5"/>
<circle cx="1055.3" cy="101.7" r="2.5" fill="#c0caf5"/>
<circle cx="957.7" cy="20.0" r="2.5" fill="#c0caf5"/>
<circle cx="1203.1" cy="174.8" r="2.5" fill="#c0caf5"/>
<circle cx="1017.6" cy="159.1" r="2.5" fill="#c0caf5"/>
<circle cx="743.4" cy="134.3" r="2.5" fill="#c0caf5"/>
<circle cx="1380.0" cy="378.2" r="2.5" fill="#c0caf5"/>
<circle cx="793.9" cy="715.5" r="2.5" fill="#c0caf5"/>
<circle cx="1175.7" cy="392.0" r="5.9" fill="#c0caf5"/>
<circle cx="924.6" cy="20.0" r="2.5" fill="#c0caf5"/>
<circle cx="1135.2" cy="149.4" r="2.5" fill="#c0caf5"/>
<circle cx="262.9" cy="572.2" r="2.5" fill="#c0caf5"/>
<circle cx="662.0" cy="828.3" r="2.5" fill="#c0caf5"/>
<circle cx="1321.2" cy="1380.0" r="2.5" fill="#c0caf5"/>
<circle cx="357.0" cy="452.8" r="2.5" fill="#c0caf5"/>
<circle cx="859.7" cy="305.2" r="2.5" fill="#c0caf5"/>
<circle cx="1007.3" cy="202.4" r="2.5" fill="#c0caf5"/>
<circle cx="20.0" cy="1380.0" r="2.5" fill="#c0caf5"/>
<circle cx="857.3" cy="399.8" r="2.5" fill="#c0caf5"/>
<circle cx="911.6" cy="187.1" r="2.5" fill="#c0caf5"/>
<circle cx="1168.9" cy="171.5" r="2.5" fill="#c0caf5"/>
<circle cx="811.2" cy="137.7" r="2.5" fill="#c0caf5"/>
<circle cx="1058.0" cy="189.8" r="2.5" fill="#c0caf5"/>
<circle cx="1181.0" cy="136.7" r="2.5" fill="#c0caf5"/>
<circle cx="958.5" cy="180.8" r="2.5" fill="#c0caf5"/>
<circle cx="1103.9" cy="119.9" r="2.5" fill="#c0caf5"/>
<circle cx="1345.5" cy="20.0" r="2.5" fill="#c0caf5"/>
<circle cx="1033.1" cy="894.8" r="2.5" fill="#c0caf5"/>
<circle cx="1123.6" cy="227.9" r="2.5" fill="#c0caf5"/>
<circle cx="467.1" cy="737.6" r="2.5" fill="#c0caf5"/>
<circle cx="1110.4" cy="60.3" r="9.3" fill="#c0caf5"/>
<circle cx="659.2" cy="618.5" r="2.5" fill="#c0caf5"/>
<circle cx="20.0" cy="20.0" r="2.5" fill="#c0caf5"/>
<circle cx="1146.2" cy="113.7" r="2.5" fill="#c0caf5"/>
<circle cx="912.9" cy="954.1" r="2.5" fill="#f4a6c0"/>
<circle cx="20.0" cy="20.0" r="2.5" fill="#a9b1d6"/>
<circle cx="745.6" cy="1150.1" r="6.7" fill="#8ab4ff"/>
<circle cx="1380.0" cy="20.0" r="2.5" fill="#ff9e64"/>
<circle cx="361.7" cy="292.3" r="2.5" fill="#ff9e64"/>
<circle cx="1025.1" cy="643.5" r="4.2" fill="#9ece6a"/>
<circle cx="1085.2" cy="868.7" r="4.2" fill="#f7768e"/>
<circle cx="1380.0" cy="1380.0" r="2.5" fill="#bb9af7"/>
<circle cx="20.0" cy="169.0" r="2.5" fill="#7dcfff"/>
<circle cx="1380.0" cy="1380.0" r="2.5" fill="#e0af68"/>
<text x="929.4" y="433.0" fill="#e8eaf0" font-size="11">models.py (117)</text>
<text x="844.5" y="445.8" fill="#e8eaf0" font-size="11">system_settings.py (103)</text>
<text x="956.6" y="423.7" fill="#e8eaf0" font-size="11">__init__.py (73)</text>
<text x="784.9" y="518.7" fill="#e8eaf0" font-size="11">betterJSONSerializer.py (59)</text>
<text x="921.9" y="661.9" fill="#e8eaf0" font-size="11">response.py (41)</text>
<text x="803.8" y="467.8" fill="#e8eaf0" font-size="11">permission_backend.py (36)</text>
<text x="687.3" y="321.4" fill="#e8eaf0" font-size="11">elasticsearch_dsl_builder.py (33)</text>
<text x="833.2" y="375.9" fill="#e8eaf0" font-size="11">datatypes.py (28)</text>
<text x="891.9" y="380.3" fill="#e8eaf0" font-size="11">resource.py (25)</text>
<text x="786.4" y="330.7" fill="#e8eaf0" font-size="11">search_engine_factory.py (22)</text>
<text x="868.7" y="757.9" fill="#e8eaf0" font-size="11">__init__.py (21)</text>
<text x="816.4" y="311.2" fill="#e8eaf0" font-size="11">mappings.py (18)</text>
</svg>