<svg xmlns="http://www.w3.org/2000/svg" width="1400" height="1400" viewBox="0 0 1400 1400" style="background:#0e0f13;font-family:monospace">
<text x="20" y="34" fill="#8ab4ff" font-size="22">arches — coldstart dependency graph</text>
<text x="20" y="56" fill="#9aa0aa" font-size="14">261 files · 904 edges</text>
<g stroke="#5b6070" stroke-opacity="0.18" stroke-width="0.6">
<line x1="551.6" y1="355.0" x2="657.4" y2="684.8"/>
<line x1="551.6" y1="355.0" x2="820.2" y2="453.3"/>
<line x1="551.6" y1="355.0" x2="726.8" y2="311.2"/>
<line x1="607.3" y1="410.4" x2="551.6" y2="355.0"/>
<line x1="607.3" y1="410.4" x2="776.1" y2="472.6"/>
<line x1="607.3" y1="410.4" x2="657.4" y2="684.8"/>
<line x1="607.3" y1="410.4" x2="802.0" y2="432.9"/>
<line x1="607.3" y1="410.4" x2="820.2" y2="453.3"/>
<line x1="607.3" y1="410.4" x2="726.8" y2="311.2"/>
<line x1="607.3" y1="410.4" x2="791.1" y2="547.2"/>
<line x1="607.3" y1="410.4" x2="510.4" y2="240.7"/>
<line x1="419.3" y1="271.1" x2="550.9" y2="436.6"/>
<line x1="419.3" y1="271.1" x2="449.4" y2="158.7"/>
<line x1="550.9" y1="436.6" x2="551.6" y2="355.0"/>
<line x1="550.9" y1="436.6" x2="657.4" y2="684.8"/>
<line x1="550.9" y1="436.6" x2="820.2" y2="453.3"/>
<line x1="550.9" y1="436.6" x2="726.8" y2="311.2"/>
<line x1="550.9" y1="436.6" x2="791.1" y2="547.2"/>
<line x1="550.9" y1="436.6" x2="613.3" y2="623.0"/>
<line x1="449.4" y1="158.7" x2="551.6" y2="355.0"/>
<line x1="449.4" y1="158.7" x2="482.3" y2="109.1"/>
<line x1="449.4" y1="158.7" x2="726.8" y2="311.2"/>
<line x1="449.4" y1="158.7" x2="644.3" y2="318.2"/>
<line x1="776.1" y1="472.6" x2="677.3" y2="471.9"/>
<line x1="776.1" y1="472.6" x2="551.6" y2="355.0"/>
<line x1="776.1" y1="472.6" x2="419.3" y2="271.1"/>
<line x1="776.1" y1="472.6" x2="482.3" y2="109.1"/>
<line x1="776.1" y1="472.6" x2="657.4" y2="684.8"/>
<line x1="776.1" y1="472.6" x2="802.0" y2="432.9"/>
<line x1="776.1" y1="472.6" x2="897.7" y2="478.3"/>
<line x1="776.1" y1="472.6" x2="820.2" y2="453.3"/>
<line x1="776.1" y1="472.6" x2="726.8" y2="311.2"/>
<line x1="776.1" y1="472.6" x2="801.3" y2="366.1"/>
<line x1="776.1" y1="472.6" x2="750.7" y2="409.5"/>
<line x1="776.1" y1="472.6" x2="644.3" y2="318.2"/>
<line x1="776.1" y1="472.6" x2="510.4" y2="240.7"/>
<line x1="776.1" y1="472.6" x2="1190.9" y2="358.1"/>
<line x1="776.1" y1="472.6" x2="946.3" y2="479.3"/>
<line x1="776.1" y1="472.6" x2="899.8" y2="625.1"/>
<line x1="776.1" y1="472.6" x2="708.7" y2="621.2"/>
<line x1="776.1" y1="472.6" x2="935.7" y2="302.1"/>
<line x1="555.9" y1="196.2" x2="551.6" y2="355.0"/>
<line x1="555.9" y1="196.2" x2="820.2" y2="453.3"/>
<line x1="555.9" y1="196.2" x2="726.8" y2="311.2"/>
<line x1="555.9" y1="196.2" x2="644.3" y2="318.2"/>
<line x1="992.3" y1="373.4" x2="776.1" y2="472.6"/>
<line x1="992.3" y1="373.4" x2="1177.4" y2="294.4"/>
<line x1="992.3" y1="373.4" x2="1050.1" y2="247.7"/>
<line x1="992.3" y1="373.4" x2="920.2" y2="343.5"/>
<line x1="992.3" y1="373.4" x2="820.2" y2="453.3"/>
<line x1="992.3" y1="373.4" x2="726.8" y2="311.2"/>
<line x1="992.3" y1="373.4" x2="801.3" y2="366.1"/>
<line x1="992.3" y1="373.4" x2="750.7" y2="409.5"/>
<line x1="992.3" y1="373.4" x2="1070.6" y2="459.0"/>
<line x1="992.3" y1="373.4" x2="1233.6" y2="196.6"/>
<line x1="992.3" y1="373.4" x2="919.5" y2="668.8"/>
<line x1="992.3" y1="373.4" x2="1151.9" y2="478.3"/>
<line x1="992.3" y1="373.4" x2="1103.6" y2="531.5"/>
<line x1="992.3" y1="373.4" x2="904.1" y2="448.3"/>
<line x1="1114.4" y1="199.9" x2="1177.4" y2="294.4"/>
<line x1="1114.4" y1="199.9" x2="1050.1" y2="247.7"/>
<line x1="1114.4" y1="199.9" x2="920.2" y2="343.5"/>
<line x1="1114.4" y1="199.9" x2="820.2" y2="453.3"/>
<line x1="1078.6" y1="419.8" x2="776.1" y2="472.6"/>
<line x1="1078.6" y1="419.8" x2="1177.4" y2="294.4"/>
<line x1="1078.6" y1="419.8" x2="1050.1" y2="247.7"/>
<line x1="1078.6" y1="419.8" x2="920.2" y2="343.5"/>
<line x1="1078.6" y1="419.8" x2="820.2" y2="453.3"/>
<line x1="1078.6" y1="419.8" x2="1070.6" y2="459.0"/>
<line x1="1078.6" y1="419.8" x2="919.5" y2="668.8"/>
<line x1="1078.6" y1="419.8" x2="1190.9" y2="358.1"/>
<line x1="1078.6" y1="419.8" x2="1151.9" y2="478.3"/>
<line x1="1078.6" y1="419.8" x2="1103.6" y2="531.5"/>
<line x1="1142.6" y1="247.7" x2="1114.4" y2="199.9"/>
<line x1="1142.6" y1="247.7" x2="1177.4" y2="294.4"/>
<line x1="1142.6" y1="247.7" x2="1050.1" y2="247.7"/>
<line x1="1142.6" y1="247.7" x2="920.2" y2="343.5"/>
<line x1="1142.6" y1="247.7" x2="820.2" y2="453.3"/>
<line x1="1142.6" y1="247.7" x2="1070.6" y2="459.0"/>
<line x1="1142.6" y1="247.7" x2="1233.6" y2="196.6"/>
<line x1="1142.6" y1="247.7" x2="1104.5" y2="309.0"/>
<line x1="1078.9" y1="358.9" x2="776.1" y2="472.6"/>
<line x1="1078.9" y1="358.9" x2="1078.6" y2="419.8"/>
<line x1="1078.9" y1="358.9" x2="1177.4" y2="294.4"/>
<line x1="1078.9" y1="358.9" x2="920.2" y2="343.5"/>
<line x1="1078.9" y1="358.9" x2="820.2" y2="453.3"/>
<line x1="1078.9" y1="358.9" x2="1070.6" y2="459.0"/>
<line x1="1078.9" y1="358.9" x2="1104.5" y2="309.0"/>
<line x1="931.1" y1="367.8" x2="992.3" y2="373.4"/>
<line x1="931.1" y1="367.8" x2="1177.4" y2="294.4"/>
<line x1="931.1" y1="367.8" x2="1050.1" y2="247.7"/>
<line x1="931.1" y1="367.8" x2="920.2" y2="343.5"/>
<line x1="931.1" y1="367.8" x2="856.4" y2="430.5"/>
<line x1="931.1" y1="367.8" x2="820.2" y2="453.3"/>
<line x1="931.1" y1="367.8" x2="830.1" y2="541.4"/>
<line x1="931.1" y1="367.8" x2="1070.6" y2="459.0"/>
<line x1="931.1" y1="367.8" x2="844.3" y2="361.1"/>
<line x1="931.1" y1="367.8" x2="656.4" y2="419.4"/>
<line x1="984.9" y1="283.2" x2="992.3" y2="373.4"/>
<line x1="984.9" y1="283.2" x2="1177.4" y2="294.4"/>
<line x1="984.9" y1="283.2" x2="1050.1" y2="247.7"/>
<line x1="984.9" y1="283.2" x2="802.0" y2="432.9"/>
<line x1="984.9" y1="283.2" x2="920.2" y2="343.5"/>
<line x1="984.9" y1="283.2" x2="726.8" y2="311.2"/>
<line x1="984.9" y1="283.2" x2="801.3" y2="366.1"/>
<line x1="984.9" y1="283.2" x2="750.7" y2="409.5"/>
<line x1="984.9" y1="283.2" x2="1070.6" y2="459.0"/>
<line x1="984.9" y1="283.2" x2="1233.6" y2="196.6"/>
<line x1="984.9" y1="283.2" x2="904.1" y2="448.3"/>
<line x1="1177.4" y1="294.4" x2="1151.9" y2="478.3"/>
<line x1="1035.7" y1="376.1" x2="776.1" y2="472.6"/>
<line x1="1035.7" y1="376.1" x2="1078.6" y2="419.8"/>
<line x1="1035.7" y1="376.1" x2="1177.4" y2="294.4"/>
<line x1="1035.7" y1="376.1" x2="1050.1" y2="247.7"/>
<line x1="1035.7" y1="376.1" x2="920.2" y2="343.5"/>
<line x1="1035.7" y1="376.1" x2="820.2" y2="453.3"/>
<line x1="1035.7" y1="376.1" x2="1070.6" y2="459.0"/>
<line x1="1035.7" y1="376.1" x2="791.1" y2="547.2"/>
<line x1="1035.7" y1="376.1" x2="1190.9" y2="358.1"/>
<line x1="1069.3" y1="292.0" x2="1078.6" y2="419.8"/>
<line x1="1069.3" y1="292.0" x2="1177.4" y2="294.4"/>
<line x1="1069.3" y1="292.0" x2="1050.1" y2="247.7"/>
<line x1="1069.3" y1="292.0" x2="1024.5" y2="136.0"/>
<line x1="1069.3" y1="292.0" x2="920.2" y2="343.5"/>
<line x1="1069.3" y1="292.0" x2="820.2" y2="453.3"/>
<line x1="1069.3" y1="292.0" x2="1070.6" y2="459.0"/>
<line x1="1069.3" y1="292.0" x2="842.1" y2="484.0"/>
<line x1="1069.3" y1="292.0" x2="1190.9" y2="358.1"/>
<line x1="1050.1" y1="247.7" x2="1024.5" y2="136.0"/>
<line x1="1050.1" y1="247.7" x2="820.2" y2="453.3"/>
<line x1="1050.1" y1="247.7" x2="844.3" y2="361.1"/>
<line x1="1024.5" y1="136.0" x2="920.2" y2="343.5"/>
<line x1="1024.5" y1="136.0" x2="820.2" y2="453.3"/>
<line x1="1130.5" y1="340.1" x2="1114.4" y2="199.9"/>
<line x1="1130.5" y1="340.1" x2="1177.4" y2="294.4"/>
<line x1="1130.5" y1="340.1" x2="1050.1" y2="247.7"/>
<line x1="1130.5" y1="340.1" x2="910.9" y2="547.0"/>
<line x1="1130.5" y1="340.1" x2="920.2" y2="343.5"/>
<line x1="1130.5" y1="340.1" x2="820.2" y2="453.3"/>
<line x1="1130.5" y1="340.1" x2="1070.6" y2="459.0"/>
<line x1="1130.5" y1="340.1" x2="1233.6" y2="196.6"/>
<line x1="1130.5" y1="340.1" x2="1104.5" y2="309.0"/>
<line x1="1044.4" y1="320.3" x2="776.1" y2="472.6"/>
<line x1="1044.4" y1="320.3" x2="1078.6" y2="419.8"/>
<line x1="1044.4" y1="320.3" x2="1177.4" y2="294.4"/>
<line x1="1044.4" y1="320.3" x2="920.2" y2="343.5"/>
<line x1="1044.4" y1="320.3" x2="820.2" y2="453.3"/>
<line x1="1044.4" y1="320.3" x2="1070.6" y2="459.0"/>
<line x1="1044.4" y1="320.3" x2="1104.5" y2="309.0"/>
<line x1="718.7" y1="908.5" x2="776.1" y2="472.6"/>
<line x1="718.7" y1="908.5" x2="709.8" y2="1324.9"/>
<line x1="718.7" y1="908.5" x2="657.4" y2="684.8"/>
<line x1="718.7" y1="908.5" x2="791.1" y2="547.2"/>
<line x1="910.9" y1="547.0" x2="657.4" y2="684.8"/>
<line x1="910.9" y1="547.0" x2="791.1" y2="547.2"/>
<line x1="802.0" y1="432.9" x2="657.4" y2="684.8"/>
<line x1="802.0" y1="432.9" x2="820.2" y2="453.3"/>
<line x1="802.0" y1="432.9" x2="726.8" y2="311.2"/>
<line x1="802.0" y1="432.9" x2="801.3" y2="366.1"/>
<line x1="802.0" y1="432.9" x2="750.7" y2="409.5"/>
<line x1="802.0" y1="432.9" x2="791.1" y2="547.2"/>
<line x1="802.0" y1="432.9" x2="946.3" y2="479.3"/>
<line x1="897.7" y1="478.3" x2="820.2" y2="453.3"/>
<line x1="897.7" y1="478.3" x2="905.4" y2="387.5"/>
<line x1="668.8" y1="515.5" x2="677.3" y2="471.9"/>
<line x1="668.8" y1="515.5" x2="776.1" y2="472.6"/>
<line x1="668.8" y1="515.5" x2="931.1" y2="367.8"/>
<line x1="668.8" y1="515.5" x2="657.4" y2="684.8"/>
<line x1="668.8" y1="515.5" x2="910.9" y2="547.0"/>
<line x1="668.8" y1="515.5" x2="897.7" y2="478.3"/>
<line x1="668.8" y1="515.5" x2="289.2" y2="381.3"/>
<line x1="668.8" y1="515.5" x2="820.2" y2="453.3"/>
<line x1="668.8" y1="515.5" x2="459.7" y2="441.2"/>
<line x1="668.8" y1="515.5" x2="750.7" y2="409.5"/>
<line x1="668.8" y1="515.5" x2="791.1" y2="547.2"/>
<line x1="668.8" y1="515.5" x2="946.3" y2="479.3"/>
<line x1="920.2" y1="343.5" x2="677.3" y2="471.9"/>
<line x1="920.2" y1="343.5" x2="910.9" y2="547.0"/>
<line x1="920.2" y1="343.5" x2="897.7" y2="478.3"/>
<line x1="920.2" y1="343.5" x2="668.8" y2="515.5"/>
<line x1="920.2" y1="343.5" x2="1205.6" y2="20.0"/>
<line x1="920.2" y1="343.5" x2="1158.3" y2="20.0"/>
<line x1="920.2" y1="343.5" x2="856.4" y2="430.5"/>
<line x1="920.2" y1="343.5" x2="830.1" y2="541.4"/>
<line x1="920.2" y1="343.5" x2="459.7" y2="441.2"/>
<line x1="920.2" y1="343.5" x2="791.1" y2="547.2"/>
<line x1="920.2" y1="343.5" x2="899.8" y2="625.1"/>
<line x1="920.2" y1="343.5" x2="1126.7" y2="291.0"/>
<line x1="920.2" y1="343.5" x2="1059.5" y2="20.0"/>
<line x1="289.2" y1="381.3" x2="459.7" y2="441.2"/>
<line x1="856.4" y1="430.5" x2="776.1" y2="472.6"/>
<line x1="856.4" y1="430.5" x2="657.4" y2="684.8"/>
<line x1="856.4" y1="430.5" x2="920.2" y2="343.5"/>
<line x1="856.4" y1="430.5" x2="820.2" y2="453.3"/>
<line x1="856.4" y1="430.5" x2="459.7" y2="441.2"/>
<line x1="856.4" y1="430.5" x2="726.8" y2="311.2"/>
<line x1="856.4" y1="430.5" x2="872.1" y2="188.6"/>
<line x1="856.4" y1="430.5" x2="801.3" y2="366.1"/>
<line x1="856.4" y1="430.5" x2="750.7" y2="409.5"/>
<line x1="856.4" y1="430.5" x2="1070.6" y2="459.0"/>
<line x1="856.4" y1="430.5" x2="905.4" y2="387.5"/>
<line x1="856.4" y1="430.5" x2="791.1" y2="547.2"/>
<line x1="856.4" y1="430.5" x2="890.7" y2="20.0"/>
<line x1="856.4" y1="430.5" x2="656.4" y2="419.4"/>
<line x1="856.4" y1="430.5" x2="543.5" y2="484.3"/>
<line x1="856.4" y1="430.5" x2="708.7" y2="621.2"/>
<line x1="856.4" y1="430.5" x2="1107.6" y2="476.8"/>
<line x1="49.0" y1="683.0" x2="459.7" y2="441.2"/>
<line x1="820.2" y1="453.3" x2="657.4" y2="684.8"/>
<line x1="830.1" y1="541.4" x2="776.1" y2="472.6"/>
<line x1="830.1" y1="541.4" x2="657.4" y2="684.8"/>
<line x1="830.1" y1="541.4" x2="856.4" y2="430.5"/>
<line x1="830.1" y1="541.4" x2="820.2" y2="453.3"/>
<line x1="830.1" y1="541.4" x2="726.8" y2="311.2"/>
<line x1="830.1" y1="541.4" x2="801.3" y2="366.1"/>
<line x1="830.1" y1="541.4" x2="750.7" y2="409.5"/>
<line x1="830.1" y1="541.4" x2="791.1" y2="547.2"/>
<line x1="830.1" y1="541.4" x2="708.7" y2="621.2"/>
<line x1="894.5" y1="261.6" x2="920.2" y2="343.5"/>
<line x1="894.5" y1="261.6" x2="856.4" y2="430.5"/>
<line x1="894.5" y1="261.6" x2="820.2" y2="453.3"/>
<line x1="894.5" y1="261.6" x2="952.3" y2="551.1"/>
<line x1="894.5" y1="261.6" x2="726.8" y2="311.2"/>
<line x1="894.5" y1="261.6" x2="801.3" y2="366.1"/>
<line x1="894.5" y1="261.6" x2="749.3" y2="231.3"/>
<line x1="867.0" y1="268.7" x2="920.2" y2="343.5"/>
<line x1="867.0" y1="268.7" x2="856.4" y2="430.5"/>
<line x1="867.0" y1="268.7" x2="820.2" y2="453.3"/>
<line x1="867.0" y1="268.7" x2="952.3" y2="551.1"/>
<line x1="867.0" y1="268.7" x2="726.8" y2="311.2"/>
<line x1="867.0" y1="268.7" x2="801.3" y2="366.1"/>
<line x1="867.0" y1="268.7" x2="749.3" y2="231.3"/>
<line x1="952.3" y1="551.1" x2="920.2" y2="343.5"/>
<line x1="952.3" y1="551.1" x2="820.2" y2="453.3"/>
<line x1="952.3" y1="551.1" x2="708.7" y2="621.2"/>
<line x1="703.5" y1="364.0" x2="657.4" y2="684.8"/>
<line x1="703.5" y1="364.0" x2="856.4" y2="430.5"/>
<line x1="703.5" y1="364.0" x2="820.2" y2="453.3"/>
<line x1="703.5" y1="364.0" x2="726.8" y2="311.2"/>
<line x1="703.5" y1="364.0" x2="750.7" y2="409.5"/>
<line x1="703.5" y1="364.0" x2="905.4" y2="387.5"/>
<line x1="768.0" y1="272.2" x2="776.1" y2="472.6"/>
<line x1="768.0" y1="272.2" x2="920.2" y2="343.5"/>
<line x1="768.0" y1="272.2" x2="820.2" y2="453.3"/>
<line x1="768.0" y1="272.2" x2="792.6" y2="229.1"/>
<line x1="768.0" y1="272.2" x2="726.8" y2="311.2"/>
<line x1="768.0" y1="272.2" x2="791.1" y2="547.2"/>
<line x1="856.0" y1="20.0" x2="920.2" y2="343.5"/>
<line x1="856.0" y1="20.0" x2="792.6" y2="229.1"/>
<line x1="792.6" y1="229.1" x2="677.3" y2="471.9"/>
<line x1="792.6" y1="229.1" x2="920.2" y2="343.5"/>
<line x1="792.6" y1="229.1" x2="899.8" y2="625.1"/>
<line x1="625.8" y1="163.3" x2="792.6" y2="229.1"/>
<line x1="625.8" y1="163.3" x2="726.8" y2="311.2"/>
<line x1="625.8" y1="163.3" x2="791.1" y2="547.2"/>
<line x1="791.4" y1="151.8" x2="920.2" y2="343.5"/>
<line x1="791.4" y1="151.8" x2="792.6" y2="229.1"/>
<line x1="791.4" y1="151.8" x2="726.8" y2="311.2"/>
<line x1="791.4" y1="151.8" x2="791.1" y2="547.2"/>
<line x1="625.1" y1="261.5" x2="820.2" y2="453.3"/>
<line x1="625.1" y1="261.5" x2="792.6" y2="229.1"/>
<line x1="625.1" y1="261.5" x2="726.8" y2="311.2"/>
<line x1="625.1" y1="261.5" x2="791.1" y2="547.2"/>
<line x1="1075.3" y1="160.7" x2="820.2" y2="453.3"/>
<line x1="1075.3" y1="160.7" x2="792.6" y2="229.1"/>
<line x1="1075.3" y1="160.7" x2="1272.4" y2="367.5"/>
<line x1="603.7" y1="20.0" x2="792.6" y2="229.1"/>
<line x1="603.7" y1="20.0" x2="726.8" y2="311.2"/>
<line x1="685.0" y1="319.2" x2="920.2" y2="343.5"/>
<line x1="685.0" y1="319.2" x2="792.6" y2="229.1"/>
<line x1="685.0" y1="319.2" x2="726.8" y2="311.2"/>
<line x1="685.0" y1="319.2" x2="791.1" y2="547.2"/>
<line x1="685.0" y1="319.2" x2="708.7" y2="621.2"/>
<line x1="805.6" y1="21.8" x2="820.2" y2="453.3"/>
<line x1="805.6" y1="21.8" x2="792.6" y2="229.1"/>
<line x1="759.3" y1="20.0" x2="792.6" y2="229.1"/>
<line x1="762.7" y1="310.9" x2="920.2" y2="343.5"/>
<line x1="762.7" y1="310.9" x2="820.2" y2="453.3"/>
<line x1="762.7" y1="310.9" x2="792.6" y2="229.1"/>
<line x1="762.7" y1="310.9" x2="685.0" y2="319.2"/>
<line x1="762.7" y1="310.9" x2="726.8" y2="311.2"/>
<line x1="762.7" y1="310.9" x2="905.4" y2="387.5"/>
<line x1="762.7" y1="310.9" x2="708.7" y2="621.2"/>
<line x1="930.4" y1="20.0" x2="920.2" y2="343.5"/>
<line x1="930.4" y1="20.0" x2="792.6" y2="229.1"/>
<line x1="812.8" y1="275.5" x2="820.2" y2="453.3"/>
<line x1="812.8" y1="275.5" x2="856.0" y2="20.0"/>
<line x1="812.8" y1="275.5" x2="792.6" y2="229.1"/>
<line x1="812.8" y1="275.5" x2="726.8" y2="311.2"/>
<line x1="812.8" y1="275.5" x2="801.3" y2="366.1"/>
<line x1="812.8" y1="275.5" x2="750.7" y2="409.5"/>
<line x1="812.8" y1="275.5" x2="708.7" y2="621.2"/>
<line x1="812.8" y1="275.5" x2="935.7" y2="302.1"/>
<line x1="812.8" y1="275.5" x2="904.1" y2="448.3"/>
<line x1="727.6" y1="183.4" x2="802.0" y2="432.9"/>
<line x1="727.6" y1="183.4" x2="792.6" y2="229.1"/>
<line x1="727.6" y1="183.4" x2="726.8" y2="311.2"/>
<line x1="727.6" y1="183.4" x2="872.1" y2="188.6"/>
<line x1="727.6" y1="183.4" x2="791.1" y2="547.2"/>
<line x1="682.4" y1="194.5" x2="920.2" y2="343.5"/>
<line x1="682.4" y1="194.5" x2="792.6" y2="229.1"/>
<line x1="682.4" y1="194.5" x2="726.8" y2="311.2"/>
<line x1="682.4" y1="194.5" x2="791.1" y2="547.2"/>
<line x1="682.4" y1="194.5" x2="510.4" y2="240.7"/>
<line x1="646.4" y1="222.7" x2="802.0" y2="432.9"/>
<line x1="646.4" y1="222.7" x2="820.2" y2="453.3"/>
<line x1="646.4" y1="222.7" x2="726.8" y2="311.2"/>
<line x1="646.4" y1="222.7" x2="750.7" y2="409.5"/>
<line x1="726.8" y1="311.2" x2="791.1" y2="547.2"/>
<line x1="872.1" y1="188.6" x2="820.2" y2="453.3"/>
<line x1="872.1" y1="188.6" x2="905.4" y2="387.5"/>
<line x1="801.3" y1="366.1" x2="657.4" y2="684.8"/>
<line x1="801.3" y1="366.1" x2="872.1" y2="188.6"/>
<line x1="801.3" y1="366.1" x2="750.7" y2="409.5"/>
<line x1="801.3" y1="366.1" x2="905.4" y2="387.5"/>
<line x1="750.7" y1="409.5" x2="820.2" y2="453.3"/>
<line x1="970.2" y1="596.6" x2="776.1" y2="472.6"/>
<line x1="970.2" y1="596.6" x2="657.4" y2="684.8"/>
<line x1="970.2" y1="596.6" x2="820.2" y2="453.3"/>
<line x1="970.2" y1="596.6" x2="791.1" y2="547.2"/>
<line x1="970.2" y1="596.6" x2="1050.8" y2="562.7"/>
<line x1="970.2" y1="596.6" x2="1380.0" y2="763.5"/>
<line x1="970.2" y1="596.6" x2="613.3" y2="623.0"/>
<line x1="970.2" y1="596.6" x2="935.7" y2="302.1"/>
<line x1="970.2" y1="596.6" x2="1105.2" y2="642.4"/>
<line x1="644.3" y1="318.2" x2="802.0" y2="432.9"/>
<line x1="644.3" y1="318.2" x2="920.2" y2="343.5"/>
<line x1="644.3" y1="318.2" x2="820.2" y2="453.3"/>
<line x1="644.3" y1="318.2" x2="726.8" y2="311.2"/>
<line x1="644.3" y1="318.2" x2="750.7" y2="409.5"/>
<line x1="644.3" y1="318.2" x2="708.7" y2="621.2"/>
<line x1="749.3" y1="231.3" x2="820.2" y2="453.3"/>
<line x1="749.3" y1="231.3" x2="801.3" y2="366.1"/>
<line x1="749.3" y1="231.3" x2="791.1" y2="547.2"/>
<line x1="640.7" y1="357.6" x2="820.2" y2="453.3"/>
<line x1="640.7" y1="357.6" x2="726.8" y2="311.2"/>
<line x1="640.7" y1="357.6" x2="801.3" y2="366.1"/>
<line x1="640.7" y1="357.6" x2="750.7" y2="409.5"/>
<line x1="640.7" y1="357.6" x2="510.4" y2="240.7"/>
<line x1="640.7" y1="357.6" x2="708.7" y2="621.2"/>
<line x1="767.4" y1="933.5" x2="657.4" y2="684.8"/>
<line x1="767.4" y1="933.5" x2="956.9" y2="745.5"/>
<line x1="767.4" y1="933.5" x2="708.7" y2="621.2"/>
<line x1="1070.6" y1="459.0" x2="657.4" y2="684.8"/>
<line x1="1070.6" y1="459.0" x2="905.4" y2="387.5"/>
<line x1="1070.6" y1="459.0" x2="1056.4" y2="714.7"/>
<line x1="1070.6" y1="459.0" x2="1380.0" y2="510.6"/>
<line x1="983.6" y1="236.0" x2="856.4" y2="430.5"/>
<line x1="983.6" y1="236.0" x2="820.2" y2="453.3"/>
<line x1="791.1" y1="547.2" x2="897.7" y2="478.3"/>
<line x1="618.1" y1="594.5" x2="467.2" y2="940.1"/>
<line x1="618.1" y1="594.5" x2="920.2" y2="343.5"/>
<line x1="618.1" y1="594.5" x2="820.2" y2="453.3"/>
<line x1="618.1" y1="594.5" x2="791.1" y2="547.2"/>
<line x1="618.1" y1="594.5" x2="613.3" y2="623.0"/>
<line x1="1112.1" y1="581.3" x2="802.0" y2="432.9"/>
<line x1="1112.1" y1="581.3" x2="791.1" y2="547.2"/>
<line x1="816.3" y1="496.5" x2="802.0" y2="432.9"/>
<line x1="816.3" y1="496.5" x2="668.8" y2="515.5"/>
<line x1="816.3" y1="496.5" x2="920.2" y2="343.5"/>
<line x1="816.3" y1="496.5" x2="820.2" y2="453.3"/>
<line x1="816.3" y1="496.5" x2="791.1" y2="547.2"/>
<line x1="732.8" y1="387.5" x2="668.8" y2="515.5"/>
<line x1="732.8" y1="387.5" x2="920.2" y2="343.5"/>
<line x1="732.8" y1="387.5" x2="820.2" y2="453.3"/>
<line x1="732.8" y1="387.5" x2="791.1" y2="547.2"/>
<line x1="1050.8" y1="562.7" x2="820.2" y2="453.3"/>
<line x1="1050.8" y1="562.7" x2="905.4" y2="387.5"/>
<line x1="830.4" y1="396.6" x2="920.2" y2="343.5"/>
<line x1="830.4" y1="396.6" x2="856.4" y2="430.5"/>
<line x1="830.4" y1="396.6" x2="820.2" y2="453.3"/>
<line x1="830.4" y1="396.6" x2="830.1" y2="541.4"/>
<line x1="830.4" y1="396.6" x2="791.1" y2="547.2"/>
<line x1="830.4" y1="396.6" x2="732.8" y2="387.5"/>
<line x1="996.9" y1="513.8" x2="776.1" y2="472.6"/>
<line x1="996.9" y1="513.8" x2="910.9" y2="547.0"/>
<line x1="996.9" y1="513.8" x2="802.0" y2="432.9"/>
<line x1="996.9" y1="513.8" x2="920.2" y2="343.5"/>
<line x1="996.9" y1="513.8" x2="856.4" y2="430.5"/>
<line x1="996.9" y1="513.8" x2="820.2" y2="453.3"/>
<line x1="996.9" y1="513.8" x2="830.1" y2="541.4"/>
<line x1="996.9" y1="513.8" x2="1177.2" y2="690.6"/>
<line x1="996.9" y1="513.8" x2="946.3" y2="479.3"/>
<line x1="996.9" y1="513.8" x2="1151.9" y2="478.3"/>
<line x1="733.0" y1="505.3" x2="776.1" y2="472.6"/>
<line x1="733.0" y1="505.3" x2="657.4" y2="684.8"/>
<line x1="733.0" y1="505.3" x2="802.0" y2="432.9"/>
<line x1="733.0" y1="505.3" x2="920.2" y2="343.5"/>
<line x1="733.0" y1="505.3" x2="856.4" y2="430.5"/>
<line x1="733.0" y1="505.3" x2="820.2" y2="453.3"/>
<line x1="733.0" y1="505.3" x2="791.1" y2="547.2"/>
<line x1="733.0" y1="505.3" x2="708.7" y2="621.2"/>
<line x1="947.6" y1="202.4" x2="920.2" y2="343.5"/>
<line x1="947.6" y1="202.4" x2="856.4" y2="430.5"/>
<line x1="947.6" y1="202.4" x2="820.2" y2="453.3"/>
<line x1="842.1" y1="484.0" x2="776.1" y2="472.6"/>
<line x1="842.1" y1="484.0" x2="657.4" y2="684.8"/>
<line x1="842.1" y1="484.0" x2="802.0" y2="432.9"/>
<line x1="842.1" y1="484.0" x2="668.8" y2="515.5"/>
<line x1="842.1" y1="484.0" x2="856.4" y2="430.5"/>
<line x1="842.1" y1="484.0" x2="820.2" y2="453.3"/>
<line x1="842.1" y1="484.0" x2="830.1" y2="541.4"/>
<line x1="842.1" y1="484.0" x2="791.1" y2="547.2"/>
<line x1="1009.8" y1="491.0" x2="776.1" y2="472.6"/>
<line x1="1009.8" y1="491.0" x2="920.2" y2="343.5"/>
<line x1="1009.8" y1="491.0" x2="820.2" y2="453.3"/>
<line x1="1009.8" y1="491.0" x2="791.1" y2="547.2"/>
<line x1="1009.8" y1="491.0" x2="946.3" y2="479.3"/>
<line x1="1009.8" y1="491.0" x2="1105.2" y2="642.4"/>
<line x1="601.8" y1="458.2" x2="657.4" y2="684.8"/>
<line x1="601.8" y1="458.2" x2="856.4" y2="430.5"/>
<line x1="601.8" y1="458.2" x2="820.2" y2="453.3"/>
<line x1="601.8" y1="458.2" x2="726.8" y2="311.2"/>
<line x1="601.8" y1="458.2" x2="801.3" y2="366.1"/>
<line x1="601.8" y1="458.2" x2="750.7" y2="409.5"/>
<line x1="1000.8" y1="411.0" x2="802.0" y2="432.9"/>
<line x1="1000.8" y1="411.0" x2="920.2" y2="343.5"/>
<line x1="1000.8" y1="411.0" x2="820.2" y2="453.3"/>
<line x1="1000.8" y1="411.0" x2="791.1" y2="547.2"/>
<line x1="518.9" y1="819.4" x2="657.4" y2="684.8"/>
<line x1="518.9" y1="819.4" x2="791.1" y2="547.2"/>
<line x1="919.5" y1="668.8" x2="657.4" y2="684.8"/>
<line x1="919.5" y1="668.8" x2="708.7" y2="621.2"/>
<line x1="919.5" y1="668.8" x2="810.2" y2="752.8"/>
<line x1="956.9" y1="745.5" x2="920.2" y2="343.5"/>
<line x1="956.9" y1="745.5" x2="820.2" y2="453.3"/>
<line x1="741.9" y1="1019.1" x2="657.4" y2="684.8"/>
<line x1="1026.7" y1="1380.0" x2="1159.5" y2="1380.0"/>
<line x1="1026.7" y1="1380.0" x2="1121.1" y2="1380.0"/>
<line x1="1026.7" y1="1380.0" x2="1189.4" y2="1380.0"/>
<line x1="1026.7" y1="1380.0" x2="1242.9" y2="1380.0"/>
<line x1="1159.5" y1="1380.0" x2="1242.9" y2="1380.0"/>
<line x1="1159.5" y1="1380.0" x2="1066.4" y2="1124.4"/>
<line x1="1121.1" y1="1380.0" x2="1066.4" y2="1124.4"/>
<line x1="1189.4" y1="1380.0" x2="1066.4" y2="1124.4"/>
<line x1="613.3" y1="623.0" x2="791.1" y2="547.2"/>
<line x1="946.3" y1="479.3" x2="897.7" y2="478.3"/>
<line x1="946.3" y1="479.3" x2="920.2" y2="343.5"/>
<line x1="946.3" y1="479.3" x2="820.2" y2="453.3"/>
<line x1="946.3" y1="479.3" x2="791.1" y2="547.2"/>
<line x1="844.3" y1="361.1" x2="776.1" y2="472.6"/>
<line x1="844.3" y1="361.1" x2="657.4" y2="684.8"/>
<line x1="844.3" y1="361.1" x2="856.4" y2="430.5"/>
<line x1="844.3" y1="361.1" x2="820.2" y2="453.3"/>
<line x1="844.3" y1="361.1" x2="703.5" y2="364.0"/>
<line x1="844.3" y1="361.1" x2="726.8" y2="311.2"/>
<line x1="844.3" y1="361.1" x2="801.3" y2="366.1"/>
<line x1="844.3" y1="361.1" x2="750.7" y2="409.5"/>
<line x1="844.3" y1="361.1" x2="905.4" y2="387.5"/>
<line x1="656.4" y1="419.4" x2="776.1" y2="472.6"/>
<line x1="656.4" y1="419.4" x2="657.4" y2="684.8"/>
<line x1="543.5" y1="484.3" x2="776.1" y2="472.6"/>
<line x1="543.5" y1="484.3" x2="657.4" y2="684.8"/>
<line x1="1056.4" y1="714.7" x2="820.2" y2="453.3"/>
<line x1="969.6" y1="791.8" x2="820.2" y2="453.3"/>
<line x1="969.6" y1="791.8" x2="791.1" y2="547.2"/>
<line x1="969.6" y1="791.8" x2="810.2" y2="752.8"/>
<line x1="20.0" y1="1001.0" x2="351.6" y2="759.8"/>
<line x1="899.8" y1="625.1" x2="677.3" y2="471.9"/>
<line x1="899.8" y1="625.1" x2="820.2" y2="453.3"/>
<line x1="899.8" y1="625.1" x2="1066.4" y2="1124.4"/>
<line x1="564.5" y1="547.5" x2="657.4" y2="684.8"/>
<line x1="564.5" y1="547.5" x2="820.2" y2="453.3"/>
<line x1="564.5" y1="547.5" x2="750.7" y2="409.5"/>
<line x1="564.5" y1="547.5" x2="708.7" y2="621.2"/>
<line x1="708.7" y1="621.2" x2="677.3" y2="471.9"/>
<line x1="708.7" y1="621.2" x2="920.2" y2="343.5"/>
<line x1="708.7" y1="621.2" x2="820.2" y2="453.3"/>
<line x1="708.7" y1="621.2" x2="899.8" y2="625.1"/>
<line x1="1107.6" y1="476.8" x2="920.2" y2="343.5"/>
<line x1="1107.6" y1="476.8" x2="946.3" y2="479.3"/>
<line x1="810.2" y1="752.8" x2="820.2" y2="453.3"/>
<line x1="810.2" y1="752.8" x2="791.1" y2="547.2"/>
<line x1="1348.9" y1="422.9" x2="856.4" y2="430.5"/>
<line x1="1348.9" y1="422.9" x2="1380.0" y2="199.5"/>
<line x1="736.7" y1="574.5" x2="657.4" y2="684.8"/>
<line x1="736.7" y1="574.5" x2="802.0" y2="432.9"/>
<line x1="736.7" y1="574.5" x2="820.2" y2="453.3"/>
<line x1="736.7" y1="574.5" x2="791.1" y2="547.2"/>
<line x1="736.7" y1="574.5" x2="946.3" y2="479.3"/>
<line x1="1126.7" y1="291.0" x2="820.2" y2="453.3"/>
<line x1="1126.7" y1="291.0" x2="905.4" y2="387.5"/>
<line x1="804.3" y1="731.1" x2="820.2" y2="453.3"/>
<line x1="1151.9" y1="478.3" x2="820.2" y2="453.3"/>
<line x1="1151.9" y1="478.3" x2="1380.0" y2="510.6"/>
<line x1="1103.6" y1="531.5" x2="920.2" y2="343.5"/>
<line x1="1103.6" y1="531.5" x2="856.4" y2="430.5"/>
<line x1="1103.6" y1="531.5" x2="830.1" y2="541.4"/>
<line x1="1296.9" y1="583.0" x2="1070.6" y2="459.0"/>
<line x1="1296.9" y1="583.0" x2="1151.9" y2="478.3"/>
<line x1="993.7" y1="628.7" x2="856.4" y2="430.5"/>
<line x1="993.7" y1="628.7" x2="791.1" y2="547.2"/>
<line x1="993.7" y1="628.7" x2="919.5" y2="668.8"/>
<line x1="993.7" y1="628.7" x2="844.3" y2="361.1"/>
<line x1="993.7" y1="628.7" x2="810.2" y2="752.8"/>
<line x1="717.9" y1="842.3" x2="669.0" y2="749.1"/>
<line x1="717.9" y1="842.3" x2="605.4" y2="1242.1"/>
<line x1="717.9" y1="842.3" x2="748.8" y2="680.4"/>
<line x1="717.9" y1="842.3" x2="701.7" y2="684.3"/>
<line x1="717.9" y1="842.3" x2="672.6" y2="859.3"/>
<line x1="717.9" y1="842.3" x2="624.0" y2="678.1"/>
<line x1="717.9" y1="842.3" x2="711.3" y2="737.9"/>
<line x1="717.9" y1="842.3" x2="913.0" y2="903.9"/>
<line x1="717.9" y1="842.3" x2="648.1" y2="918.7"/>
<line x1="717.9" y1="842.3" x2="646.6" y2="836.7"/>
<line x1="717.9" y1="842.3" x2="888.9" y2="865.3"/>
<line x1="717.9" y1="842.3" x2="598.4" y2="790.0"/>
<line x1="717.9" y1="842.3" x2="612.5" y2="895.3"/>
<line x1="717.9" y1="842.3" x2="678.4" y2="997.3"/>
<line x1="717.9" y1="842.3" x2="632.6" y2="1004.1"/>
<line x1="717.9" y1="842.3" x2="843.2" y2="621.2"/>
<line x1="717.9" y1="842.3" x2="680.2" y2="603.4"/>
<line x1="717.9" y1="842.3" x2="732.1" y2="800.5"/>
<line x1="717.9" y1="842.3" x2="760.3" y2="733.3"/>
<line x1="717.9" y1="842.3" x2="814.9" y2="939.8"/>
<line x1="717.9" y1="842.3" x2="792.3" y2="865.7"/>
<line x1="717.9" y1="842.3" x2="837.9" y2="746.6"/>
<line x1="717.9" y1="842.3" x2="769.9" y2="814.3"/>
<line x1="669.0" y1="749.1" x2="820.2" y2="453.3"/>
<line x1="669.0" y1="749.1" x2="791.1" y2="547.2"/>
<line x1="669.0" y1="749.1" x2="810.2" y2="752.8"/>
<line x1="669.0" y1="749.1" x2="717.9" y2="842.3"/>
<line x1="748.8" y1="680.4" x2="657.4" y2="684.8"/>
<line x1="748.8" y1="680.4" x2="856.4" y2="430.5"/>
<line x1="748.8" y1="680.4" x2="820.2" y2="453.3"/>
<line x1="748.8" y1="680.4" x2="791.1" y2="547.2"/>
<line x1="748.8" y1="680.4" x2="708.7" y2="621.2"/>
<line x1="748.8" y1="680.4" x2="810.2" y2="752.8"/>
<line x1="748.8" y1="680.4" x2="717.9" y2="842.3"/>
<line x1="701.7" y1="684.3" x2="657.4" y2="684.8"/>
<line x1="701.7" y1="684.3" x2="802.0" y2="432.9"/>
<line x1="701.7" y1="684.3" x2="820.2" y2="453.3"/>
<line x1="701.7" y1="684.3" x2="708.7" y2="621.2"/>
<line x1="701.7" y1="684.3" x2="810.2" y2="752.8"/>
<line x1="701.7" y1="684.3" x2="736.7" y2="574.5"/>
<line x1="701.7" y1="684.3" x2="717.9" y2="842.3"/>
<line x1="672.6" y1="859.3" x2="776.1" y2="472.6"/>
<line x1="672.6" y1="859.3" x2="810.2" y2="752.8"/>
<line x1="672.6" y1="859.3" x2="717.9" y2="842.3"/>
<line x1="624.0" y1="678.1" x2="776.1" y2="472.6"/>
<line x1="624.0" y1="678.1" x2="657.4" y2="684.8"/>
<line x1="624.0" y1="678.1" x2="750.7" y2="409.5"/>
<line x1="624.0" y1="678.1" x2="613.3" y2="623.0"/>
<line x1="624.0" y1="678.1" x2="564.5" y2="547.5"/>
<line x1="624.0" y1="678.1" x2="708.7" y2="621.2"/>
<line x1="624.0" y1="678.1" x2="810.2" y2="752.8"/>
<line x1="624.0" y1="678.1" x2="717.9" y2="842.3"/>
<line x1="711.3" y1="737.9" x2="657.4" y2="684.8"/>
<line x1="711.3" y1="737.9" x2="910.9" y2="547.0"/>
<line x1="711.3" y1="737.9" x2="668.8" y2="515.5"/>
<line x1="711.3" y1="737.9" x2="791.1" y2="547.2"/>
<line x1="711.3" y1="737.9" x2="810.2" y2="752.8"/>
<line x1="711.3" y1="737.9" x2="717.9" y2="842.3"/>
<line x1="913.0" y1="903.9" x2="820.2" y2="453.3"/>
<line x1="913.0" y1="903.9" x2="810.2" y2="752.8"/>
<line x1="913.0" y1="903.9" x2="717.9" y2="842.3"/>
<line x1="913.0" y1="903.9" x2="1066.4" y2="1124.4"/>
<line x1="648.1" y1="918.7" x2="657.4" y2="684.8"/>
<line x1="648.1" y1="918.7" x2="708.7" y2="621.2"/>
<line x1="648.1" y1="918.7" x2="810.2" y2="752.8"/>
<line x1="648.1" y1="918.7" x2="717.9" y2="842.3"/>
<line x1="646.6" y1="836.7" x2="657.4" y2="684.8"/>
<line x1="646.6" y1="836.7" x2="830.1" y2="541.4"/>
<line x1="646.6" y1="836.7" x2="810.2" y2="752.8"/>
<line x1="646.6" y1="836.7" x2="717.9" y2="842.3"/>
<line x1="888.9" y1="865.3" x2="820.2" y2="453.3"/>
<line x1="888.9" y1="865.3" x2="810.2" y2="752.8"/>
<line x1="598.4" y1="790.0" x2="657.4" y2="684.8"/>
<line x1="598.4" y1="790.0" x2="668.8" y2="515.5"/>
<line x1="598.4" y1="790.0" x2="708.7" y2="621.2"/>
<line x1="598.4" y1="790.0" x2="810.2" y2="752.8"/>
<line x1="598.4" y1="790.0" x2="717.9" y2="842.3"/>
<line x1="612.5" y1="895.3" x2="657.4" y2="684.8"/>
<line x1="612.5" y1="895.3" x2="708.7" y2="621.2"/>
<line x1="612.5" y1="895.3" x2="810.2" y2="752.8"/>
<line x1="612.5" y1="895.3" x2="717.9" y2="842.3"/>
<line x1="678.4" y1="997.3" x2="657.4" y2="684.8"/>
<line x1="678.4" y1="997.3" x2="810.2" y2="752.8"/>
<line x1="678.4" y1="997.3" x2="717.9" y2="842.3"/>
<line x1="632.6" y1="1004.1" x2="657.4" y2="684.8"/>
<line x1="632.6" y1="1004.1" x2="810.2" y2="752.8"/>
<line x1="843.2" y1="621.2" x2="657.4" y2="684.8"/>
<line x1="843.2" y1="621.2" x2="910.9" y2="547.0"/>
<line x1="843.2" y1="621.2" x2="668.8" y2="515.5"/>
<line x1="843.2" y1="621.2" x2="856.4" y2="430.5"/>
<line x1="843.2" y1="621.2" x2="820.2" y2="453.3"/>
<line x1="843.2" y1="621.2" x2="791.1" y2="547.2"/>
<line x1="843.2" y1="621.2" x2="1050.8" y2="562.7"/>
<line x1="843.2" y1="621.2" x2="830.4" y2="396.6"/>
<line x1="843.2" y1="621.2" x2="842.1" y2="484.0"/>
<line x1="843.2" y1="621.2" x2="708.7" y2="621.2"/>
<line x1="843.2" y1="621.2" x2="1107.6" y2="476.8"/>
<line x1="843.2" y1="621.2" x2="810.2" y2="752.8"/>
<line x1="843.2" y1="621.2" x2="717.9" y2="842.3"/>
<line x1="843.2" y1="621.2" x2="899.0" y2="516.7"/>
<line x1="680.2" y1="603.4" x2="820.2" y2="453.3"/>
<line x1="680.2" y1="603.4" x2="792.6" y2="229.1"/>
<line x1="680.2" y1="603.4" x2="810.2" y2="752.8"/>
<line x1="680.2" y1="603.4" x2="717.9" y2="842.3"/>
<line x1="732.1" y1="800.5" x2="657.4" y2="684.8"/>
<line x1="732.1" y1="800.5" x2="791.1" y2="547.2"/>
<line x1="732.1" y1="800.5" x2="919.5" y2="668.8"/>
<line x1="732.1" y1="800.5" x2="708.7" y2="621.2"/>
<line x1="732.1" y1="800.5" x2="810.2" y2="752.8"/>
<line x1="732.1" y1="800.5" x2="717.9" y2="842.3"/>
<line x1="760.3" y1="733.3" x2="776.1" y2="472.6"/>
<line x1="760.3" y1="733.3" x2="657.4" y2="684.8"/>
<line x1="760.3" y1="733.3" x2="830.1" y2="541.4"/>
<line x1="760.3" y1="733.3" x2="919.5" y2="668.8"/>
<line x1="760.3" y1="733.3" x2="708.7" y2="621.2"/>
<line x1="760.3" y1="733.3" x2="810.2" y2="752.8"/>
<line x1="760.3" y1="733.3" x2="717.9" y2="842.3"/>
<line x1="760.3" y1="733.3" x2="868.5" y2="654.1"/>
<line x1="814.9" y1="939.8" x2="791.1" y2="547.2"/>
<line x1="814.9" y1="939.8" x2="810.2" y2="752.8"/>
<line x1="814.9" y1="939.8" x2="717.9" y2="842.3"/>
<line x1="792.3" y1="865.7" x2="657.4" y2="684.8"/>
<line x1="792.3" y1="865.7" x2="791.1" y2="547.2"/>
<line x1="792.3" y1="865.7" x2="919.5" y2="668.8"/>
<line x1="792.3" y1="865.7" x2="810.2" y2="752.8"/>
<line x1="792.3" y1="865.7" x2="717.9" y2="842.3"/>
<line x1="837.9" y1="746.6" x2="856.4" y2="430.5"/>
<line x1="837.9" y1="746.6" x2="830.1" y2="541.4"/>
<line x1="837.9" y1="746.6" x2="791.1" y2="547.2"/>
<line x1="837.9" y1="746.6" x2="810.2" y2="752.8"/>
<line x1="837.9" y1="746.6" x2="717.9" y2="842.3"/>
<line x1="769.9" y1="814.3" x2="657.4" y2="684.8"/>
<line x1="769.9" y1="814.3" x2="791.1" y2="547.2"/>
<line x1="769.9" y1="814.3" x2="919.5" y2="668.8"/>
<line x1="769.9" y1="814.3" x2="708.7" y2="621.2"/>
<line x1="769.9" y1="814.3" x2="810.2" y2="752.8"/>
<line x1="769.9" y1="814.3" x2="717.9" y2="842.3"/>
<line x1="813.2" y1="842.8" x2="467.2" y2="940.1"/>
<line x1="813.2" y1="842.8" x2="657.4" y2="684.8"/>
<line x1="813.2" y1="842.8" x2="820.2" y2="453.3"/>
<line x1="813.2" y1="842.8" x2="844.9" y2="1251.5"/>
<line x1="813.2" y1="842.8" x2="791.1" y2="547.2"/>
<line x1="813.2" y1="842.8" x2="956.9" y2="745.5"/>
<line x1="813.2" y1="842.8" x2="741.9" y2="1019.1"/>
<line x1="813.2" y1="842.8" x2="1056.4" y2="714.7"/>
<line x1="813.2" y1="842.8" x2="708.7" y2="621.2"/>
<line x1="813.2" y1="842.8" x2="810.2" y2="752.8"/>
<line x1="813.4" y1="616.5" x2="776.1" y2="472.6"/>
<line x1="813.4" y1="616.5" x2="657.4" y2="684.8"/>
<line x1="813.4" y1="616.5" x2="856.4" y2="430.5"/>
<line x1="813.4" y1="616.5" x2="820.2" y2="453.3"/>
<line x1="813.4" y1="616.5" x2="791.1" y2="547.2"/>
<line x1="813.4" y1="616.5" x2="708.7" y2="621.2"/>
<line x1="821.6" y1="567.7" x2="657.4" y2="684.8"/>
<line x1="821.6" y1="567.7" x2="802.0" y2="432.9"/>
<line x1="821.6" y1="567.7" x2="820.2" y2="453.3"/>
<line x1="821.6" y1="567.7" x2="726.8" y2="311.2"/>
<line x1="821.6" y1="567.7" x2="801.3" y2="366.1"/>
<line x1="821.6" y1="567.7" x2="750.7" y2="409.5"/>
<line x1="821.6" y1="567.7" x2="791.1" y2="547.2"/>
<line x1="821.6" y1="567.7" x2="919.5" y2="668.8"/>
<line x1="821.6" y1="567.7" x2="810.2" y2="752.8"/>
<line x1="821.6" y1="567.7" x2="736.7" y2="574.5"/>
<line x1="821.6" y1="567.7" x2="813.4" y2="616.5"/>
<line x1="1158.4" y1="577.2" x2="1078.6" y2="419.8"/>
<line x1="1158.4" y1="577.2" x2="920.2" y2="343.5"/>
<line x1="1158.4" y1="577.2" x2="919.5" y2="668.8"/>
<line x1="1158.4" y1="577.2" x2="1272.4" y2="367.5"/>
<line x1="1158.4" y1="577.2" x2="810.2" y2="752.8"/>
<line x1="1158.4" y1="577.2" x2="1151.9" y2="478.3"/>
<line x1="1158.4" y1="577.2" x2="1380.0" y2="510.6"/>
<line x1="1054.2" y1="627.3" x2="920.2" y2="343.5"/>
<line x1="1054.2" y1="627.3" x2="820.2" y2="453.3"/>
<line x1="1054.2" y1="627.3" x2="810.2" y2="752.8"/>
<line x1="932.5" y1="618.7" x2="657.4" y2="684.8"/>
<line x1="932.5" y1="618.7" x2="910.9" y2="547.0"/>
<line x1="932.5" y1="618.7" x2="897.7" y2="478.3"/>
<line x1="932.5" y1="618.7" x2="668.8" y2="515.5"/>
<line x1="932.5" y1="618.7" x2="820.2" y2="453.3"/>
<line x1="932.5" y1="618.7" x2="905.4" y2="387.5"/>
<line x1="932.5" y1="618.7" x2="791.1" y2="547.2"/>
<line x1="932.5" y1="618.7" x2="1177.2" y2="690.6"/>
<line x1="932.5" y1="618.7" x2="816.3" y2="496.5"/>
<line x1="932.5" y1="618.7" x2="919.5" y2="668.8"/>
<line x1="932.5" y1="618.7" x2="708.7" y2="621.2"/>
<line x1="932.5" y1="618.7" x2="810.2" y2="752.8"/>
<line x1="932.5" y1="618.7" x2="804.3" y2="731.1"/>
<line x1="932.5" y1="618.7" x2="1296.9" y2="583.0"/>
<line x1="932.5" y1="618.7" x2="813.4" y2="616.5"/>
<line x1="912.6" y1="843.3" x2="657.4" y2="684.8"/>
<line x1="912.6" y1="843.3" x2="791.1" y2="547.2"/>
<line x1="912.6" y1="843.3" x2="810.2" y2="752.8"/>
<line x1="424.8" y1="702.6" x2="467.2" y2="940.1"/>
<line x1="424.8" y1="702.6" x2="820.2" y2="453.3"/>
<line x1="424.8" y1="702.6" x2="20.0" y2="587.3"/>
<line x1="424.8" y1="702.6" x2="810.2" y2="752.8"/>
<line x1="899.6" y1="761.1" x2="657.4" y2="684.8"/>
<line x1="899.6" y1="761.1" x2="820.2" y2="453.3"/>
<line x1="899.6" y1="761.1" x2="791.1" y2="547.2"/>
<line x1="899.6" y1="761.1" x2="810.2" y2="752.8"/>
<line x1="792.3" y1="579.6" x2="776.1" y2="472.6"/>
<line x1="792.3" y1="579.6" x2="657.4" y2="684.8"/>
<line x1="792.3" y1="579.6" x2="910.9" y2="547.0"/>
<line x1="792.3" y1="579.6" x2="820.2" y2="453.3"/>
<line x1="792.3" y1="579.6" x2="726.8" y2="311.2"/>
<line x1="792.3" y1="579.6" x2="801.3" y2="366.1"/>
<line x1="792.3" y1="579.6" x2="750.7" y2="409.5"/>
<line x1="792.3" y1="579.6" x2="791.1" y2="547.2"/>
<line x1="792.3" y1="579.6" x2="919.5" y2="668.8"/>
<line x1="792.3" y1="579.6" x2="708.7" y2="621.2"/>
<line x1="792.3" y1="579.6" x2="810.2" y2="752.8"/>
<line x1="792.3" y1="579.6" x2="813.4" y2="616.5"/>
<line x1="881.2" y1="971.2" x2="657.4" y2="684.8"/>
<line x1="881.2" y1="971.2" x2="810.2" y2="752.8"/>
<line x1="895.5" y1="718.1" x2="657.4" y2="684.8"/>
<line x1="895.5" y1="718.1" x2="820.2" y2="453.3"/>
<line x1="895.5" y1="718.1" x2="791.1" y2="547.2"/>
<line x1="895.5" y1="718.1" x2="810.2" y2="752.8"/>
<line x1="895.5" y1="718.1" x2="813.4" y2="616.5"/>
<line x1="899.0" y1="516.7" x2="776.1" y2="472.6"/>
<line x1="899.0" y1="516.7" x2="657.4" y2="684.8"/>
<line x1="899.0" y1="516.7" x2="910.9" y2="547.0"/>
<line x1="899.0" y1="516.7" x2="668.8" y2="515.5"/>
<line x1="899.0" y1="516.7" x2="856.4" y2="430.5"/>
<line x1="899.0" y1="516.7" x2="820.2" y2="453.3"/>
<line x1="899.0" y1="516.7" x2="830.1" y2="541.4"/>
<line x1="899.0" y1="516.7" x2="801.3" y2="366.1"/>
<line x1="899.0" y1="516.7" x2="750.7" y2="409.5"/>
<line x1="899.0" y1="516.7" x2="983.6" y2="236.0"/>
<line x1="899.0" y1="516.7" x2="791.1" y2="547.2"/>
<line x1="899.0" y1="516.7" x2="919.5" y2="668.8"/>
<line x1="899.0" y1="516.7" x2="946.3" y2="479.3"/>
<line x1="899.0" y1="516.7" x2="1272.4" y2="367.5"/>
<line x1="899.0" y1="516.7" x2="708.7" y2="621.2"/>
<line x1="899.0" y1="516.7" x2="810.2" y2="752.8"/>
<line x1="899.0" y1="516.7" x2="935.7" y2="302.1"/>
<line x1="899.0" y1="516.7" x2="813.4" y2="616.5"/>
<line x1="899.0" y1="516.7" x2="821.6" y2="567.7"/>
<line x1="904.1" y1="448.3" x2="802.0" y2="432.9"/>
<line x1="904.1" y1="448.3" x2="920.2" y2="343.5"/>
<line x1="904.1" y1="448.3" x2="820.2" y2="453.3"/>
<line x1="904.1" y1="448.3" x2="792.6" y2="229.1"/>
<line x1="904.1" y1="448.3" x2="726.8" y2="311.2"/>
<line x1="904.1" y1="448.3" x2="970.2" y2="596.6"/>
<line x1="904.1" y1="448.3" x2="640.7" y2="357.6"/>
<line x1="904.1" y1="448.3" x2="1070.6" y2="459.0"/>
<line x1="904.1" y1="448.3" x2="905.4" y2="387.5"/>
<line x1="904.1" y1="448.3" x2="791.1" y2="547.2"/>
<line x1="904.1" y1="448.3" x2="947.6" y2="202.4"/>
<line x1="904.1" y1="448.3" x2="919.5" y2="668.8"/>
<line x1="904.1" y1="448.3" x2="708.7" y2="621.2"/>
<line x1="904.1" y1="448.3" x2="810.2" y2="752.8"/>
<line x1="904.1" y1="448.3" x2="1151.9" y2="478.3"/>
<line x1="904.1" y1="448.3" x2="1105.2" y2="642.4"/>
<line x1="904.1" y1="448.3" x2="813.4" y2="616.5"/>
<line x1="1380.0" y1="691.3" x2="1348.9" y2="422.9"/>
<line x1="868.5" y1="654.1" x2="776.1" y2="472.6"/>
<line x1="868.5" y1="654.1" x2="657.4" y2="684.8"/>
<line x1="868.5" y1="654.1" x2="856.4" y2="430.5"/>
<line x1="868.5" y1="654.1" x2="820.2" y2="453.3"/>
<line x1="868.5" y1="654.1" x2="830.1" y2="541.4"/>
<line x1="868.5" y1="654.1" x2="791.1" y2="547.2"/>
<line x1="868.5" y1="654.1" x2="919.5" y2="668.8"/>
<line x1="868.5" y1="654.1" x2="708.7" y2="621.2"/>
<line x1="868.5" y1="654.1" x2="810.2" y2="752.8"/>
<line x1="868.5" y1="654.1" x2="1105.2" y2="642.4"/>
<line x1="1120.3" y1="829.8" x2="919.5" y2="668.8"/>
<line x1="1120.3" y1="829.8" x2="810.2" y2="752.8"/>
<line x1="1120.3" y1="829.8" x2="1103.6" y2="531.5"/>
<line x1="864.8" y1="741.2" x2="657.4" y2="684.8"/>
<line x1="864.8" y1="741.2" x2="910.9" y2="547.0"/>
<line x1="864.8" y1="741.2" x2="820.2" y2="453.3"/>
<line x1="864.8" y1="741.2" x2="791.1" y2="547.2"/>
<line x1="864.8" y1="741.2" x2="919.5" y2="668.8"/>
<line x1="864.8" y1="741.2" x2="741.9" y2="1019.1"/>
<line x1="864.8" y1="741.2" x2="1056.4" y2="714.7"/>
<line x1="864.8" y1="741.2" x2="708.7" y2="621.2"/>
<line x1="864.8" y1="741.2" x2="810.2" y2="752.8"/>
<line x1="864.8" y1="741.2" x2="813.4" y2="616.5"/>
<line x1="670.4" y1="1348.7" x2="467.2" y2="940.1"/>
<line x1="670.4" y1="1348.7" x2="1026.7" y2="1380.0"/>
<line x1="43.5" y1="909.1" x2="467.2" y2="940.1"/>
<line x1="431.4" y1="812.7" x2="657.4" y2="684.8"/>
<line x1="431.4" y1="812.7" x2="708.7" y2="621.2"/>
<line x1="465.2" y1="863.0" x2="657.4" y2="684.8"/>
<line x1="465.2" y1="863.0" x2="708.7" y2="621.2"/>
<line x1="33.8" y1="937.0" x2="467.2" y2="940.1"/>
<line x1="644.1" y1="22.0" x2="820.2" y2="453.3"/>
<line x1="681.4" y1="20.0" x2="820.2" y2="453.3"/>
<line x1="721.3" y1="20.0" x2="820.2" y2="453.3"/>
<line x1="328.6" y1="905.4" x2="657.4" y2="684.8"/>
<line x1="328.6" y1="905.4" x2="351.6" y2="759.8"/>
<line x1="370.7" y1="538.2" x2="820.2" y2="453.3"/>
<line x1="370.7" y1="538.2" x2="351.6" y2="759.8"/>
<line x1="370.5" y1="968.8" x2="657.4" y2="684.8"/>
<line x1="370.5" y1="968.8" x2="351.6" y2="759.8"/>
<line x1="450.9" y1="629.0" x2="657.4" y2="684.8"/>
<line x1="450.9" y1="629.0" x2="820.2" y2="453.3"/>
<line x1="450.9" y1="629.0" x2="351.6" y2="759.8"/>
<line x1="776.5" y1="200.6" x2="820.2" y2="453.3"/>
<line x1="776.5" y1="200.6" x2="703.5" y2="364.0"/>
<line x1="776.5" y1="200.6" x2="801.3" y2="366.1"/>
<line x1="776.5" y1="200.6" x2="750.7" y2="409.5"/>
<line x1="776.5" y1="200.6" x2="844.3" y2="361.1"/>
<line x1="776.5" y1="200.6" x2="935.7" y2="302.1"/>
<line x1="1168.0" y1="163.8" x2="920.2" y2="343.5"/>
<line x1="1168.0" y1="163.8" x2="905.4" y2="387.5"/>
<line x1="1104.5" y1="309.0" x2="910.9" y2="547.0"/>
<line x1="1104.5" y1="309.0" x2="920.2" y2="343.5"/>
<line x1="1104.5" y1="309.0" x2="820.2" y2="453.3"/>
<line x1="1104.5" y1="309.0" x2="1233.6" y2="196.6"/>
<line x1="1111.4" y1="20.0" x2="920.2" y2="343.5"/>
<line x1="366.4" y1="496.8" x2="820.2" y2="453.3"/>
<line x1="366.4" y1="496.8" x2="351.6" y2="759.8"/>
<line x1="329.9" y1="948.9" x2="657.4" y2="684.8"/>
<line x1="329.9" y1="948.9" x2="351.6" y2="759.8"/>
<line x1="218.0" y1="484.1" x2="668.8" y2="515.5"/>
<line x1="1221.2" y1="449.9" x2="820.2" y2="453.3"/>
<line x1="1221.2" y1="449.9" x2="946.3" y2="479.3"/>
<line x1="568.9" y1="52.6" x2="820.2" y2="453.3"/>
<line x1="715.1" y1="450.6" x2="776.1" y2="472.6"/>
<line x1="715.1" y1="450.6" x2="657.4" y2="684.8"/>
<line x1="715.1" y1="450.6" x2="920.2" y2="343.5"/>
<line x1="715.1" y1="450.6" x2="856.4" y2="430.5"/>
<line x1="715.1" y1="450.6" x2="820.2" y2="453.3"/>
<line x1="715.1" y1="450.6" x2="750.7" y2="409.5"/>
<line x1="715.1" y1="450.6" x2="791.1" y2="547.2"/>
<line x1="715.1" y1="450.6" x2="842.1" y2="484.0"/>
<line x1="454.8" y1="504.0" x2="657.4" y2="684.8"/>
<line x1="454.8" y1="504.0" x2="820.2" y2="453.3"/>
<line x1="864.1" y1="589.2" x2="657.4" y2="684.8"/>
<line x1="864.1" y1="589.2" x2="897.7" y2="478.3"/>
<line x1="864.1" y1="589.2" x2="820.2" y2="453.3"/>
<line x1="864.1" y1="589.2" x2="905.4" y2="387.5"/>
<line x1="864.1" y1="589.2" x2="791.1" y2="547.2"/>
<line x1="864.1" y1="589.2" x2="1177.2" y2="690.6"/>
<line x1="864.1" y1="589.2" x2="816.3" y2="496.5"/>
<line x1="864.1" y1="589.2" x2="732.8" y2="387.5"/>
<line x1="864.1" y1="589.2" x2="1050.8" y2="562.7"/>
<line x1="864.1" y1="589.2" x2="996.9" y2="513.8"/>
<line x1="864.1" y1="589.2" x2="733.0" y2="505.3"/>
<line x1="864.1" y1="589.2" x2="1009.8" y2="491.0"/>
<line x1="864.1" y1="589.2" x2="946.3" y2="479.3"/>
<line x1="864.1" y1="589.2" x2="736.7" y2="574.5"/>
<line x1="864.1" y1="589.2" x2="804.3" y2="731.1"/>
<line x1="864.1" y1="589.2" x2="1151.9" y2="478.3"/>
<line x1="864.1" y1="589.2" x2="1105.2" y2="642.4"/>
<line x1="864.1" y1="589.2" x2="351.6" y2="759.8"/>
<line x1="518.0" y1="913.9" x2="657.4" y2="684.8"/>
<line x1="518.0" y1="913.9" x2="708.7" y2="621.2"/>
<line x1="283.2" y1="904.8" x2="657.4" y2="684.8"/>
<line x1="283.2" y1="904.8" x2="351.6" y2="759.8"/>
<line x1="855.6" y1="155.2" x2="920.2" y2="343.5"/>
<line x1="855.6" y1="155.2" x2="856.4" y2="430.5"/>
<line x1="855.6" y1="155.2" x2="726.8" y2="311.2"/>
<line x1="855.6" y1="155.2" x2="801.3" y2="366.1"/>
<line x1="855.6" y1="155.2" x2="844.3" y2="361.1"/>
<line x1="472.1" y1="676.7" x2="657.4" y2="684.8"/>
<line x1="472.1" y1="676.7" x2="820.2" y2="453.3"/>
<line x1="472.1" y1="676.7" x2="351.6" y2="759.8"/>
<line x1="251.6" y1="828.6" x2="657.4" y2="684.8"/>
<line x1="251.6" y1="828.6" x2="351.6" y2="759.8"/>
<line x1="379.9" y1="616.0" x2="657.4" y2="684.8"/>
<line x1="379.9" y1="616.0" x2="668.8" y2="515.5"/>
<line x1="379.9" y1="616.0" x2="601.8" y2="458.2"/>
<line x1="379.9" y1="616.0" x2="351.6" y2="759.8"/>
<line x1="283.5" y1="859.5" x2="657.4" y2="684.8"/>
<line x1="283.5" y1="859.5" x2="351.6" y2="759.8"/>
<line x1="1380.0" y1="46.4" x2="1380.0" y2="20.0"/>
<line x1="973.2" y1="20.0" x2="820.2" y2="453.3"/>
<line x1="499.2" y1="567.5" x2="657.4" y2="684.8"/>
<line x1="499.2" y1="567.5" x2="905.4" y2="387.5"/>
<line x1="499.2" y1="567.5" x2="351.6" y2="759.8"/>
<line x1="419.3" y1="677.3" x2="467.2" y2="940.1"/>
<line x1="419.3" y1="677.3" x2="820.2" y2="453.3"/>
<line x1="518.5" y1="694.4" x2="467.2" y2="940.1"/>
<line x1="518.5" y1="694.4" x2="677.3" y2="471.9"/>
<line x1="518.5" y1="694.4" x2="776.1" y2="472.6"/>
<line x1="518.5" y1="694.4" x2="657.4" y2="684.8"/>
<line x1="241.1" y1="779.4" x2="657.4" y2="684.8"/>
<line x1="241.1" y1="779.4" x2="351.6" y2="759.8"/>
<line x1="938.4" y1="971.8" x2="467.2" y2="940.1"/>
<line x1="938.4" y1="971.8" x2="952.3" y2="551.1"/>
<line x1="938.4" y1="971.8" x2="995.3" y2="1342.5"/>
<line x1="938.4" y1="971.8" x2="956.9" y2="745.5"/>
<line x1="938.4" y1="971.8" x2="969.6" y2="791.8"/>
<line x1="938.4" y1="971.8" x2="1066.4" y2="1124.4"/>
<line x1="938.4" y1="971.8" x2="1028.0" y2="747.3"/>
<line x1="938.4" y1="971.8" x2="1102.5" y2="807.4"/>
<line x1="265.3" y1="666.3" x2="708.7" y2="621.2"/>
<line x1="1028.0" y1="747.3" x2="820.2" y2="453.3"/>
<line x1="1028.0" y1="747.3" x2="1380.0" y2="955.0"/>
<line x1="1028.0" y1="747.3" x2="993.7" y2="628.7"/>
<line x1="1028.0" y1="747.3" x2="813.2" y2="842.8"/>
<line x1="1028.0" y1="747.3" x2="821.6" y2="567.7"/>
<line x1="1028.0" y1="747.3" x2="1158.4" y2="577.2"/>
<line x1="1028.0" y1="747.3" x2="1054.2" y2="627.3"/>
<line x1="1028.0" y1="747.3" x2="932.5" y2="618.7"/>
<line x1="1028.0" y1="747.3" x2="912.6" y2="843.3"/>
<line x1="1028.0" y1="747.3" x2="899.6" y2="761.1"/>
<line x1="1028.0" y1="747.3" x2="792.3" y2="579.6"/>
<line x1="1028.0" y1="747.3" x2="881.2" y2="971.2"/>
<line x1="1028.0" y1="747.3" x2="895.5" y2="718.1"/>
<line x1="1028.0" y1="747.3" x2="899.0" y2="516.7"/>
<line x1="1028.0" y1="747.3" x2="1380.0" y2="691.3"/>
<line x1="1028.0" y1="747.3" x2="868.5" y2="654.1"/>
<line x1="1028.0" y1="747.3" x2="1120.3" y2="829.8"/>
<line x1="1028.0" y1="747.3" x2="864.8" y2="741.2"/>
<line x1="1102.5" y1="807.4" x2="820.2" y2="453.3"/>
</g>
<circle cx="467.2" cy="940.1" r="7.6" fill="#8ab4ff"/>
<circle cx="1380.0" cy="20.0" r="2.5" fill="#ff9e64"/>
<circle cx="1380.0" cy="20.0" r="2.5" fill="#9ece6a"/>
<circle cx="677.3" cy="471.9" r="7.0" fill="#9ece6a"/>
<circle cx="20.0" cy="20.0" r="2.5" fill="#9ece6a"/>
<circle cx="551.6" cy="355.0" r="6.3" fill="#9ece6a"/>
<circle cx="607.3" cy="410.4" r="2.5" fill="#9ece6a"/>
<circle cx="419.3" cy="271.1" r="4.2" fill="#9ece6a"/>
<circle cx="550.9" cy="436.6" r="4.2" fill="#9ece6a"/>
<circle cx="449.4" cy="158.7" r="4.2" fill="#9ece6a"/>
<circle cx="482.3" cy="109.1" r="4.9" fill="#9ece6a"/>
<circle cx="776.1" cy="472.6" r="11.5" fill="#9ece6a"/>
<circle cx="555.9" cy="196.2" r="2.5" fill="#9ece6a"/>
<circle cx="74.3" cy="1380.0" r="2.5" fill="#9ece6a"/>
<circle cx="992.3" cy="373.4" r="4.9" fill="#9ece6a"/>
<circle cx="1114.4" cy="199.9" r="4.9" fill="#9ece6a"/>
<circle cx="1078.6" cy="419.8" r="6.3" fill="#9ece6a"/>
<circle cx="1142.6" cy="247.7" r="2.5" fill="#9ece6a"/>
<circle cx="1078.9" cy="358.9" r="2.5" fill="#9ece6a"/>
<circle cx="931.1" cy="367.8" r="4.2" fill="#9ece6a"/>
<circle cx="984.9" cy="283.2" r="2.5" fill="#9ece6a"/>
<circle cx="1177.4" cy="294.4" r="8.1" fill="#9ece6a"/>
<circle cx="1035.7" cy="376.1" r="2.5" fill="#9ece6a"/>
<circle cx="1069.3" cy="292.0" r="2.5" fill="#9ece6a"/>
<circle cx="1050.1" cy="247.7" r="7.6" fill="#9ece6a"/>
<circle cx="1024.5" cy="136.0" r="4.9" fill="#9ece6a"/>
<circle cx="1130.5" cy="340.1" r="2.5" fill="#9ece6a"/>
<circle cx="1044.4" cy="320.3" r="2.5" fill="#9ece6a"/>
<circle cx="20.0" cy="1380.0" r="2.5" fill="#9ece6a"/>
<circle cx="709.8" cy="1324.9" r="4.2" fill="#9ece6a"/>
<circle cx="718.7" cy="908.5" r="2.5" fill="#9ece6a"/>
<circle cx="657.4" cy="684.8" r="16.9" fill="#9ece6a"/>
<circle cx="910.9" cy="547.0" r="8.1" fill="#9ece6a"/>
<circle cx="802.0" cy="432.9" r="9.3" fill="#9ece6a"/>
<circle cx="897.7" cy="478.3" r="7.0" fill="#9ece6a"/>
<circle cx="668.8" cy="515.5" r="8.1" fill="#9ece6a"/>
<circle cx="1205.6" cy="20.0" r="4.2" fill="#9ece6a"/>
<circle cx="920.2" cy="343.5" r="14.2" fill="#9ece6a"/>
<circle cx="1158.3" cy="20.0" r="4.2" fill="#9ece6a"/>
<circle cx="289.2" cy="381.3" r="4.2" fill="#9ece6a"/>
<circle cx="856.4" cy="430.5" r="11.0" fill="#9ece6a"/>
<circle cx="49.0" cy="683.0" r="2.5" fill="#9ece6a"/>
<circle cx="820.2" cy="453.3" r="19.8" fill="#9ece6a"/>
<circle cx="830.1" cy="541.4" r="8.1" fill="#9ece6a"/>
<circle cx="459.7" cy="441.2" r="6.3" fill="#9ece6a"/>
<circle cx="1306.1" cy="1380.0" r="2.5" fill="#9ece6a"/>
<circle cx="894.5" cy="261.6" r="2.5" fill="#9ece6a"/>
<circle cx="867.0" cy="268.7" r="2.5" fill="#9ece6a"/>
<circle cx="952.3" cy="551.1" r="5.4" fill="#9ece6a"/>
<circle cx="1380.0" cy="20.0" r="2.5" fill="#9ece6a"/>
<circle cx="703.5" cy="364.0" r="4.9" fill="#9ece6a"/>
<circle cx="20.0" cy="1380.0" r="2.5" fill="#9ece6a"/>
<circle cx="768.0" cy="272.2" r="2.5" fill="#9ece6a"/>
<circle cx="792.6" cy="229.1" r="9.5" fill="#9ece6a"/>
<circle cx="856.0" cy="20.0" r="4.2" fill="#9ece6a"/>
<circle cx="625.8" cy="163.3" r="2.5" fill="#9ece6a"/>
<circle cx="791.4" cy="151.8" r="2.5" fill="#9ece6a"/>
<circle cx="625.1" cy="261.5" r="2.5" fill="#9ece6a"/>
<circle cx="1075.3" cy="160.7" r="2.5" fill="#9ece6a"/>
<circle cx="603.7" cy="20.0" r="2.5" fill="#9ece6a"/>
<circle cx="62.7" cy="20.0" r="2.5" fill="#9ece6a"/>
<circle cx="685.0" cy="319.2" r="4.2" fill="#9ece6a"/>
<circle cx="805.6" cy="21.8" r="2.5" fill="#9ece6a"/>
<circle cx="759.3" cy="20.0" r="2.5" fill="#9ece6a"/>
<circle cx="762.7" cy="310.9" r="2.5" fill="#9ece6a"/>
<circle cx="930.4" cy="20.0" r="2.5" fill="#9ece6a"/>
<circle cx="812.8" cy="275.5" r="2.5" fill="#9ece6a"/>
<circle cx="727.6" cy="183.4" r="2.5" fill="#9ece6a"/>
<circle cx="682.4" cy="194.5" r="2.5" fill="#9ece6a"/>
<circle cx="646.4" cy="222.7" r="2.5" fill="#9ece6a"/>
<circle cx="726.8" cy="311.2" r="12.3" fill="#9ece6a"/>
<circle cx="872.1" cy="188.6" r="5.4" fill="#9ece6a"/>
<circle cx="801.3" cy="366.1" r="9.7" fill="#9ece6a"/>
<circle cx="749.3" cy="231.3" r="4.9" fill="#9ece6a"/>
<circle cx="750.7" cy="409.5" r="10.5" fill="#9ece6a"/>
<circle cx="970.2" cy="596.6" r="4.2" fill="#9ece6a"/>
<circle cx="644.3" cy="318.2" r="5.4" fill="#9ece6a"/>
<circle cx="640.7" cy="357.6" r="4.2" fill="#9ece6a"/>
<circle cx="767.4" cy="933.5" r="2.5" fill="#9ece6a"/>
<circle cx="1070.6" cy="459.0" r="8.6" fill="#9ece6a"/>
<circle cx="905.4" cy="387.5" r="9.1" fill="#9ece6a"/>
<circle cx="983.6" cy="236.0" r="4.2" fill="#9ece6a"/>
<circle cx="844.9" cy="1251.5" r="4.2" fill="#9ece6a"/>
<circle cx="791.1" cy="547.2" r="15.6" fill="#9ece6a"/>
<circle cx="618.1" cy="594.5" r="2.5" fill="#9ece6a"/>
<circle cx="1380.0" cy="1380.0" r="2.5" fill="#9ece6a"/>
<circle cx="1380.0" cy="1380.0" r="2.5" fill="#9ece6a"/>
<circle cx="1112.1" cy="581.3" r="2.5" fill="#9ece6a"/>
<circle cx="1177.2" cy="690.6" r="5.4" fill="#9ece6a"/>
<circle cx="816.3" cy="496.5" r="4.9" fill="#9ece6a"/>
<circle cx="732.8" cy="387.5" r="4.9" fill="#9ece6a"/>
<circle cx="106.4" cy="1380.0" r="2.5" fill="#9ece6a"/>
<circle cx="1050.8" cy="562.7" r="5.4" fill="#9ece6a"/>
<circle cx="1380.0" cy="1380.0" r="2.5" fill="#9ece6a"/>
<circle cx="830.4" cy="396.6" r="4.2" fill="#9ece6a"/>
<circle cx="996.9" cy="513.8" r="4.2" fill="#9ece6a"/>
<circle cx="20.0" cy="20.0" r="2.5" fill="#9ece6a"/>
<circle cx="733.0" cy="505.3" r="4.2" fill="#9ece6a"/>
<circle cx="947.6" cy="202.4" r="4.2" fill="#9ece6a"/>
<circle cx="842.1" cy="484.0" r="5.4" fill="#9ece6a"/>
<circle cx="20.0" cy="1380.0" r="2.5" fill="#9ece6a"/>
<circle cx="1009.8" cy="491.0" r="4.2" fill="#9ece6a"/>
<circle cx="601.8" cy="458.2" r="4.2" fill="#9ece6a"/>
<circle cx="20.0" cy="1380.0" r="2.5" fill="#9ece6a"/>
<circle cx="1000.8" cy="411.0" r="2.5" fill="#9ece6a"/>
<circle cx="518.9" cy="819.4" r="2.5" fill="#9ece6a"/>
<circle cx="510.4" cy="240.7" r="5.9" fill="#9ece6a"/>
<circle cx="1233.6" cy="196.6" r="6.3" fill="#9ece6a"/>
<circle cx="919.5" cy="668.8" r="9.3" fill="#9ece6a"/>
<circle cx="995.3" cy="1342.5" r="4.2" fill="#9ece6a"/>
<circle cx="890.7" cy="20.0" r="4.2" fill="#9ece6a"/>
<circle cx="956.9" cy="745.5" r="5.4" fill="#9ece6a"/>
<circle cx="1190.9" cy="358.1" r="5.9" fill="#9ece6a"/>
<circle cx="1380.0" cy="763.5" r="4.2" fill="#9ece6a"/>
<circle cx="741.9" cy="1019.1" r="4.9" fill="#9ece6a"/>
<circle cx="1329.9" cy="1380.0" r="2.5" fill="#9ece6a"/>
<circle cx="1026.7" cy="1380.0" r="4.2" fill="#9ece6a"/>
<circle cx="1159.5" cy="1380.0" r="4.2" fill="#9ece6a"/>
<circle cx="1121.1" cy="1380.0" r="4.2" fill="#9ece6a"/>
<circle cx="1189.4" cy="1380.0" r="4.2" fill="#9ece6a"/>
<circle cx="1242.9" cy="1380.0" r="4.9" fill="#9ece6a"/>
<circle cx="613.3" cy="623.0" r="5.9" fill="#9ece6a"/>
<circle cx="946.3" cy="479.3" r="7.9" fill="#9ece6a"/>
<circle cx="844.3" cy="361.1" r="6.3" fill="#9ece6a"/>
<circle cx="543.5" cy="484.3" r="4.2" fill="#9ece6a"/>
<circle cx="656.4" cy="419.4" r="4.9" fill="#9ece6a"/>
<circle cx="1056.4" cy="714.7" r="5.4" fill="#9ece6a"/>
<circle cx="969.6" cy="791.8" r="4.2" fill="#9ece6a"/>
<circle cx="20.0" cy="1380.0" r="2.5" fill="#9ece6a"/>
<circle cx="20.0" cy="1001.0" r="2.5" fill="#9ece6a"/>
<circle cx="899.8" cy="625.1" r="5.9" fill="#9ece6a"/>
<circle cx="564.5" cy="547.5" r="4.2" fill="#9ece6a"/>
<circle cx="1272.4" cy="367.5" r="5.4" fill="#9ece6a"/>
<circle cx="20.0" cy="1318.9" r="2.5" fill="#9ece6a"/>
<circle cx="708.7" cy="621.2" r="12.6" fill="#9ece6a"/>
<circle cx="20.0" cy="587.3" r="4.2" fill="#9ece6a"/>
<circle cx="1107.6" cy="476.8" r="4.9" fill="#9ece6a"/>
<circle cx="810.2" cy="752.8" r="13.4" fill="#9ece6a"/>
<circle cx="1380.0" cy="199.5" r="4.2" fill="#9ece6a"/>
<circle cx="1348.9" cy="422.9" r="4.2" fill="#9ece6a"/>
<circle cx="736.7" cy="574.5" r="5.4" fill="#9ece6a"/>
<circle cx="1126.7" cy="291.0" r="4.2" fill="#9ece6a"/>
<circle cx="935.7" cy="302.1" r="6.3" fill="#9ece6a"/>
<circle cx="804.3" cy="731.1" r="4.9" fill="#9ece6a"/>
<circle cx="1151.9" cy="478.3" r="7.3" fill="#9ece6a"/>
<circle cx="1059.5" cy="20.0" r="4.2" fill="#9ece6a"/>
<circle cx="20.0" cy="20.0" r="2.5" fill="#9ece6a"/>
<circle cx="1103.6" cy="531.5" r="5.4" fill="#9ece6a"/>
<circle cx="1296.9" cy="583.0" r="4.2" fill="#9ece6a"/>
<circle cx="1380.0" cy="1380.0" r="2.5" fill="#9ece6a"/>
<circle cx="1105.2" cy="642.4" r="6.3" fill="#9ece6a"/>
<circle cx="1380.0" cy="955.0" r="4.2" fill="#9ece6a"/>
<circle cx="993.7" cy="628.7" r="4.2" fill="#9ece6a"/>
<circle cx="717.9" cy="842.3" r="10.1" fill="#9ece6a"/>
<circle cx="669.0" cy="749.1" r="4.2" fill="#9ece6a"/>
<circle cx="605.4" cy="1242.1" r="4.2" fill="#9ece6a"/>
<circle cx="748.8" cy="680.4" r="4.2" fill="#9ece6a"/>
<circle cx="701.7" cy="684.3" r="4.2" fill="#9ece6a"/>
<circle cx="672.6" cy="859.3" r="4.2" fill="#9ece6a"/>
<circle cx="624.0" cy="678.1" r="4.2" fill="#9ece6a"/>
<circle cx="711.3" cy="737.9" r="4.2" fill="#9ece6a"/>
<circle cx="913.0" cy="903.9" r="4.2" fill="#9ece6a"/>
<circle cx="648.1" cy="918.7" r="4.2" fill="#9ece6a"/>
<circle cx="646.6" cy="836.7" r="4.2" fill="#9ece6a"/>
<circle cx="888.9" cy="865.3" r="4.2" fill="#9ece6a"/>
<circle cx="598.4" cy="790.0" r="4.2" fill="#9ece6a"/>
<circle cx="612.5" cy="895.3" r="4.2" fill="#9ece6a"/>
<circle cx="678.4" cy="997.3" r="4.2" fill="#9ece6a"/>
<circle cx="632.6" cy="1004.1" r="4.2" fill="#9ece6a"/>
<circle cx="843.2" cy="621.2" r="4.2" fill="#9ece6a"/>
<circle cx="680.2" cy="603.4" r="4.2" fill="#9ece6a"/>
<circle cx="732.1" cy="800.5" r="4.2" fill="#9ece6a"/>
<circle cx="760.3" cy="733.3" r="4.2" fill="#9ece6a"/>
<circle cx="814.9" cy="939.8" r="4.2" fill="#9ece6a"/>
<circle cx="792.3" cy="865.7" r="4.2" fill="#9ece6a"/>
<circle cx="837.9" cy="746.6" r="4.2" fill="#9ece6a"/>
<circle cx="769.9" cy="814.3" r="4.2" fill="#9ece6a"/>
<circle cx="813.2" cy="842.8" r="4.2" fill="#9ece6a"/>
<circle cx="813.4" cy="616.5" r="7.0" fill="#9ece6a"/>
<circle cx="821.6" cy="567.7" r="4.9" fill="#9ece6a"/>
<circle cx="1158.4" cy="577.2" r="4.2" fill="#9ece6a"/>
<circle cx="1054.2" cy="627.3" r="4.2" fill="#9ece6a"/>
<circle cx="932.5" cy="618.7" r="4.2" fill="#9ece6a"/>
<circle cx="912.6" cy="843.3" r="4.2" fill="#9ece6a"/>
<circle cx="424.8" cy="702.6" r="2.5" fill="#9ece6a"/>
<circle cx="899.6" cy="761.1" r="4.2" fill="#9ece6a"/>
<circle cx="792.3" cy="579.6" r="4.2" fill="#9ece6a"/>
<circle cx="881.2" cy="971.2" r="4.2" fill="#9ece6a"/>
<circle cx="895.5" cy="718.1" r="4.2" fill="#9ece6a"/>
<circle cx="899.0" cy="516.7" r="4.9" fill="#9ece6a"/>
<circle cx="904.1" cy="448.3" r="5.4" fill="#9ece6a"/>
<circle cx="1380.0" cy="691.3" r="4.2" fill="#9ece6a"/>
<circle cx="868.5" cy="654.1" r="4.9" fill="#9ece6a"/>
<circle cx="1120.3" cy="829.8" r="4.2" fill="#9ece6a"/>
<circle cx="864.8" cy="741.2" r="4.2" fill="#9ece6a"/>
<circle cx="670.4" cy="1348.7" r="2.5" fill="#f7768e"/>
<circle cx="1380.0" cy="510.6" r="5.4" fill="#bb9af7"/>
<circle cx="1380.0" cy="1337.5" r="2.5" fill="#7dcfff"/>
<circle cx="88.5" cy="20.0" r="2.5" fill="#7dcfff"/>
<circle cx="20.0" cy="20.0" r="2.5" fill="#7dcfff"/>
<circle cx="20.0" cy="1380.0" r="2.5" fill="#7dcfff"/>
<circle cx="20.0" cy="20.0" r="2.5" fill="#e0af68"/>
<circle cx="20.0" cy="1380.0" r="2.5" fill="#73daca"/>
<circle cx="1380.0" cy="1380.0" r="2.5" fill="#73daca"/>
<circle cx="20.0" cy="20.0" r="2.5" fill="#73daca"/>
<circle cx="20.0" cy="71.1" r="2.5" fill="#73daca"/>
<circle cx="20.0" cy="131.1" r="2.5" fill="#73daca"/>
<circle cx="20.0" cy="1380.0" r="2.5" fill="#73daca"/>
<circle cx="1380.0" cy="1307.9" r="2.5" fill="#73daca"/>
<circle cx="43.5" cy="909.1" r="2.5" fill="#73daca"/>
<circle cx="20.0" cy="20.0" r="2.5" fill="#c0caf5"/>
<circle cx="351.6" cy="759.8" r="9.1" fill="#c0caf5"/>
<circle cx="431.4" cy="812.7" r="2.5" fill="#c0caf5"/>
<circle cx="465.2" cy="863.0" r="2.5" fill="#c0caf5"/>
<circle cx="33.8" cy="937.0" r="2.5" fill="#c0caf5"/>
<circle cx="644.1" cy="22.0" r="2.5" fill="#c0caf5"/>
<circle cx="681.4" cy="20.0" r="2.5" fill="#c0caf5"/>
<circle cx="721.3" cy="20.0" r="2.5" fill="#c0caf5"/>
<circle cx="328.6" cy="905.4" r="2.5" fill="#c0caf5"/>
<circle cx="370.7" cy="538.2" r="2.5" fill="#c0caf5"/>
<circle cx="370.5" cy="968.8" r="2.5" fill="#c0caf5"/>
<circle cx="450.9" cy="629.0" r="2.5" fill="#c0caf5"/>
<circle cx="776.5" cy="200.6" r="2.5" fill="#c0caf5"/>
<circle cx="1111.4" cy="20.0" r="2.5" fill="#c0caf5"/>
<circle cx="1168.0" cy="163.8" r="2.5" fill="#c0caf5"/>
<circle cx="1104.5" cy="309.0" r="5.9" fill="#c0caf5"/>
<circle cx="366.4" cy="496.8" r="2.5" fill="#c0caf5"/>
<circle cx="329.9" cy="948.9" r="2.5" fill="#c0caf5"/>
<circle cx="218.0" cy="484.1" r="2.5" fill="#c0caf5"/>
<circle cx="1221.2" cy="449.9" r="2.5" fill="#c0caf5"/>
<circle cx="1348.7" cy="1380.0" r="2.5" fill="#c0caf5"/>
<circle cx="568.9" cy="52.6" r="2.5" fill="#c0caf5"/>
<circle cx="715.1" cy="450.6" r="2.5" fill="#c0caf5"/>
<circle cx="454.8" cy="504.0" r="2.5" fill="#c0caf5"/>
<circle cx="20.0" cy="1380.0" r="2.5" fill="#c0caf5"/>
<circle cx="864.1" cy="589.2" r="2.5" fill="#c0caf5"/>
<circle cx="518.0" cy="913.9" r="2.5" fill="#c0caf5"/>
<circle cx="283.2" cy="904.8" r="2.5" fill="#c0caf5"/>
<circle cx="855.6" cy="155.2" r="2.5" fill="#c0caf5"/>
<circle cx="472.1" cy="676.7" r="2.5" fill="#c0caf5"/>
<circle cx="251.6" cy="828.6" r="2.5" fill="#c0caf5"/>
<circle cx="379.9" cy="616.0" r="2.5" fill="#c0caf5"/>
<circle cx="283.5" cy="859.5" r="2.5" fill="#c0caf5"/>
<circle cx="1380.0" cy="46.4" r="2.5" fill="#c0caf5"/>
<circle cx="973.2" cy="20.0" r="2.5" fill="#c0caf5"/>
<circle cx="499.2" cy="567.5" r="2.5" fill="#c0caf5"/>
<circle cx="419.3" cy="677.3" r="2.5" fill="#c0caf5"/>
<circle cx="1380.0" cy="20.0" r="4.2" fill="#c0caf5"/>
<circle cx="518.5" cy="694.4" r="2.5" fill="#c0caf5"/>
<circle cx="20.0" cy="20.0" r="2.5" fill="#c0caf5"/>
<circle cx="241.1" cy="779.4" r="2.5" fill="#c0caf5"/>
<circle cx="938.4" cy="971.8" r="2.5" fill="#f4a6c0"/>
<circle cx="20.0" cy="20.0" r="2.5" fill="#a9b1d6"/>
<circle cx="1066.4" cy="1124.4" r="6.7" fill="#8ab4ff"/>
<circle cx="1380.0" cy="20.0" r="2.5" fill="#ff9e64"/>
<circle cx="265.3" cy="666.3" r="2.5" fill="#ff9e64"/>
<circle cx="1028.0" cy="747.3" r="4.2" fill="#9ece6a"/>
<circle cx="1102.5" cy="807.4" r="4.2" fill="#f7768e"/>
<circle cx="1380.0" cy="1380.0" r="2.5" fill="#bb9af7"/>
<circle cx="20.0" cy="97.5" r="2.5" fill="#7dcfff"/>
<circle cx="1380.0" cy="1380.0" r="2.5" fill="#e0af68"/>
<text x="825.2" y="453.3" fill="#e8eaf0" font-size="11">system_settings.py (103)</text>
<text x="662.4" y="684.8" fill="#e8eaf0" font-size="11">__init__.py (72)</text>
<text x="796.1" y="547.2" fill="#e8eaf0" font-size="11">betterJSONSerializer.py (59)</text>
<text x="925.2" y="343.5" fill="#e8eaf0" font-size="11">models.py (47)</text>
<text x="815.2" y="752.8" fill="#e8eaf0" font-size="11">response.py (41)</text>
<text x="713.7" y="621.2" fill="#e8eaf0" font-size="11">permission_backend.py (35)</text>
<text x="731.8" y="311.2" fill="#e8eaf0" font-size="11">elasticsearch_dsl_builder.py (33)</text>
<text x="781.1" y="472.6" fill="#e8eaf0" font-size="11">datatypes.py (28)</text>
<text x="861.4" y="430.5" fill="#e8eaf0" font-size="11">resource.py (25)</text>
<text x="755.7" y="409.5" fill="#e8eaf0" font-size="11">search_engine_factory.py (22)</text>
<text x="722.9" y="842.3" fill="#e8eaf0" font-size="11">__init__.py (20)</text>
<text x="806.3" y="366.1" fill="#e8eaf0" font-size="11">mappings.py (18)</text>
</svg>