<svg xmlns="http://www.w3.org/2000/svg" width="1400" height="1400" viewBox="0 0 1400 1400" style="background:#0e0f13;font-family:monospace">
<text x="20" y="34" fill="#8ab4ff" font-size="22">arches — standalone (ast) dependency graph</text>
<text x="20" y="56" fill="#9aa0aa" font-size="14">263 files · 1035 edges</text>
<g stroke="#5b6070" stroke-opacity="0.18" stroke-width="0.6">
<line x1="661.8" y1="1055.9" x2="479.0" y2="937.3"/>
<line x1="1117.2" y1="288.0" x2="832.4" y2="414.1"/>
<line x1="1117.2" y1="288.0" x2="771.6" y2="397.1"/>
<line x1="488.1" y1="434.5" x2="832.4" y2="414.1"/>
<line x1="488.1" y1="434.5" x2="771.6" y2="397.1"/>
<line x1="488.1" y1="434.5" x2="631.6" y2="399.5"/>
<line x1="488.1" y1="434.5" x2="479.4" y2="514.1"/>
<line x1="488.1" y1="434.5" x2="675.0" y2="510.2"/>
<line x1="581.3" y1="568.9" x2="488.1" y2="434.5"/>
<line x1="581.3" y1="568.9" x2="642.9" y2="444.0"/>
<line x1="581.3" y1="568.9" x2="832.4" y2="414.1"/>
<line x1="581.3" y1="568.9" x2="560.9" y2="463.7"/>
<line x1="581.3" y1="568.9" x2="771.6" y2="397.1"/>
<line x1="581.3" y1="568.9" x2="631.6" y2="399.5"/>
<line x1="581.3" y1="568.9" x2="479.4" y2="514.1"/>
<line x1="581.3" y1="568.9" x2="675.0" y2="510.2"/>
<line x1="581.3" y1="568.9" x2="387.9" y2="719.0"/>
<line x1="243.8" y1="522.8" x2="517.0" y2="543.0"/>
<line x1="243.8" y1="522.8" x2="198.0" y2="459.7"/>
<line x1="517.0" y1="543.0" x2="488.1" y2="434.5"/>
<line x1="517.0" y1="543.0" x2="832.4" y2="414.1"/>
<line x1="517.0" y1="543.0" x2="771.6" y2="397.1"/>
<line x1="517.0" y1="543.0" x2="631.6" y2="399.5"/>
<line x1="517.0" y1="543.0" x2="479.4" y2="514.1"/>
<line x1="517.0" y1="543.0" x2="675.0" y2="510.2"/>
<line x1="517.0" y1="543.0" x2="515.7" y2="745.3"/>
<line x1="198.0" y1="459.7" x2="488.1" y2="434.5"/>
<line x1="198.0" y1="459.7" x2="174.9" y2="390.9"/>
<line x1="198.0" y1="459.7" x2="479.4" y2="514.1"/>
<line x1="198.0" y1="459.7" x2="451.9" y2="428.2"/>
<line x1="642.9" y1="444.0" x2="633.0" y2="644.6"/>
<line x1="642.9" y1="444.0" x2="488.1" y2="434.5"/>
<line x1="642.9" y1="444.0" x2="243.8" y2="522.8"/>
<line x1="642.9" y1="444.0" x2="174.9" y2="390.9"/>
<line x1="642.9" y1="444.0" x2="832.4" y2="414.1"/>
<line x1="642.9" y1="444.0" x2="560.9" y2="463.7"/>
<line x1="642.9" y1="444.0" x2="624.9" y2="306.7"/>
<line x1="642.9" y1="444.0" x2="771.6" y2="397.1"/>
<line x1="642.9" y1="444.0" x2="690.3" y2="489.4"/>
<line x1="642.9" y1="444.0" x2="631.6" y2="399.5"/>
<line x1="642.9" y1="444.0" x2="479.4" y2="514.1"/>
<line x1="642.9" y1="444.0" x2="579.9" y2="449.2"/>
<line x1="642.9" y1="444.0" x2="568.8" y2="502.6"/>
<line x1="642.9" y1="444.0" x2="451.9" y2="428.2"/>
<line x1="642.9" y1="444.0" x2="387.9" y2="719.0"/>
<line x1="642.9" y1="444.0" x2="807.3" y2="130.4"/>
<line x1="642.9" y1="444.0" x2="588.6" y2="318.2"/>
<line x1="642.9" y1="444.0" x2="778.8" y2="711.9"/>
<line x1="642.9" y1="444.0" x2="775.5" y2="523.5"/>
<line x1="642.9" y1="444.0" x2="420.3" y2="668.1"/>
<line x1="293.1" y1="370.0" x2="488.1" y2="434.5"/>
<line x1="293.1" y1="370.0" x2="631.6" y2="399.5"/>
<line x1="293.1" y1="370.0" x2="479.4" y2="514.1"/>
<line x1="293.1" y1="370.0" x2="451.9" y2="428.2"/>
<line x1="661.1" y1="304.3" x2="642.9" y2="444.0"/>
<line x1="661.1" y1="304.3" x2="627.4" y2="137.5"/>
<line x1="661.1" y1="304.3" x2="599.2" y2="159.4"/>
<line x1="661.1" y1="304.3" x2="771.6" y2="397.1"/>
<line x1="661.1" y1="304.3" x2="631.6" y2="399.5"/>
<line x1="661.1" y1="304.3" x2="479.4" y2="514.1"/>
<line x1="661.1" y1="304.3" x2="579.9" y2="449.2"/>
<line x1="661.1" y1="304.3" x2="568.8" y2="502.6"/>
<line x1="661.1" y1="304.3" x2="727.3" y2="269.0"/>
<line x1="661.1" y1="304.3" x2="654.0" y2="20.0"/>
<line x1="661.1" y1="304.3" x2="840.1" y2="501.6"/>
<line x1="661.1" y1="304.3" x2="591.7" y2="475.1"/>
<line x1="661.1" y1="304.3" x2="919.6" y2="348.4"/>
<line x1="661.1" y1="304.3" x2="637.9" y2="471.1"/>
<line x1="641.6" y1="64.7" x2="627.4" y2="137.5"/>
<line x1="641.6" y1="64.7" x2="599.2" y2="159.4"/>
<line x1="641.6" y1="64.7" x2="771.6" y2="397.1"/>
<line x1="641.6" y1="64.7" x2="631.6" y2="399.5"/>
<line x1="751.0" y1="293.8" x2="642.9" y2="444.0"/>
<line x1="751.0" y1="293.8" x2="627.4" y2="137.5"/>
<line x1="751.0" y1="293.8" x2="599.2" y2="159.4"/>
<line x1="751.0" y1="293.8" x2="771.6" y2="397.1"/>
<line x1="751.0" y1="293.8" x2="631.6" y2="399.5"/>
<line x1="751.0" y1="293.8" x2="727.3" y2="269.0"/>
<line x1="751.0" y1="293.8" x2="840.1" y2="501.6"/>
<line x1="751.0" y1="293.8" x2="807.3" y2="130.4"/>
<line x1="751.0" y1="293.8" x2="591.7" y2="475.1"/>
<line x1="751.0" y1="293.8" x2="919.6" y2="348.4"/>
<line x1="677.0" y1="99.8" x2="641.6" y2="64.7"/>
<line x1="677.0" y1="99.8" x2="627.4" y2="137.5"/>
<line x1="677.0" y1="99.8" x2="599.2" y2="159.4"/>
<line x1="677.0" y1="99.8" x2="771.6" y2="397.1"/>
<line x1="677.0" y1="99.8" x2="631.6" y2="399.5"/>
<line x1="677.0" y1="99.8" x2="727.3" y2="269.0"/>
<line x1="677.0" y1="99.8" x2="654.0" y2="20.0"/>
<line x1="677.0" y1="99.8" x2="749.2" y2="110.6"/>
<line x1="750.0" y1="185.5" x2="642.9" y2="444.0"/>
<line x1="750.0" y1="185.5" x2="751.0" y2="293.8"/>
<line x1="750.0" y1="185.5" x2="627.4" y2="137.5"/>
<line x1="750.0" y1="185.5" x2="771.6" y2="397.1"/>
<line x1="750.0" y1="185.5" x2="631.6" y2="399.5"/>
<line x1="750.0" y1="185.5" x2="727.3" y2="269.0"/>
<line x1="750.0" y1="185.5" x2="749.2" y2="110.6"/>
<line x1="688.3" y1="268.1" x2="661.1" y2="304.3"/>
<line x1="688.3" y1="268.1" x2="627.4" y2="137.5"/>
<line x1="688.3" y1="268.1" x2="599.2" y2="159.4"/>
<line x1="688.3" y1="268.1" x2="771.6" y2="397.1"/>
<line x1="688.3" y1="268.1" x2="690.3" y2="489.4"/>
<line x1="688.3" y1="268.1" x2="631.6" y2="399.5"/>
<line x1="688.3" y1="268.1" x2="724.7" y2="465.2"/>
<line x1="688.3" y1="268.1" x2="727.3" y2="269.0"/>
<line x1="688.3" y1="268.1" x2="614.1" y2="452.6"/>
<line x1="688.3" y1="268.1" x2="850.6" y2="284.9"/>
<line x1="583.6" y1="271.7" x2="661.1" y2="304.3"/>
<line x1="583.6" y1="271.7" x2="627.4" y2="137.5"/>
<line x1="583.6" y1="271.7" x2="599.2" y2="159.4"/>
<line x1="583.6" y1="271.7" x2="560.9" y2="463.7"/>
<line x1="583.6" y1="271.7" x2="771.6" y2="397.1"/>
<line x1="583.6" y1="271.7" x2="479.4" y2="514.1"/>
<line x1="583.6" y1="271.7" x2="579.9" y2="449.2"/>
<line x1="583.6" y1="271.7" x2="568.8" y2="502.6"/>
<line x1="583.6" y1="271.7" x2="727.3" y2="269.0"/>
<line x1="583.6" y1="271.7" x2="654.0" y2="20.0"/>
<line x1="583.6" y1="271.7" x2="588.6" y2="318.2"/>
<line x1="583.6" y1="271.7" x2="637.9" y2="471.1"/>
<line x1="627.4" y1="137.5" x2="591.7" y2="475.1"/>
<line x1="704.7" y1="225.2" x2="642.9" y2="444.0"/>
<line x1="704.7" y1="225.2" x2="751.0" y2="293.8"/>
<line x1="704.7" y1="225.2" x2="627.4" y2="137.5"/>
<line x1="704.7" y1="225.2" x2="599.2" y2="159.4"/>
<line x1="704.7" y1="225.2" x2="771.6" y2="397.1"/>
<line x1="704.7" y1="225.2" x2="631.6" y2="399.5"/>
<line x1="704.7" y1="225.2" x2="727.3" y2="269.0"/>
<line x1="704.7" y1="225.2" x2="675.0" y2="510.2"/>
<line x1="704.7" y1="225.2" x2="807.3" y2="130.4"/>
<line x1="705.9" y1="144.1" x2="751.0" y2="293.8"/>
<line x1="705.9" y1="144.1" x2="627.4" y2="137.5"/>
<line x1="705.9" y1="144.1" x2="599.2" y2="159.4"/>
<line x1="705.9" y1="144.1" x2="602.7" y2="72.4"/>
<line x1="705.9" y1="144.1" x2="771.6" y2="397.1"/>
<line x1="705.9" y1="144.1" x2="631.6" y2="399.5"/>
<line x1="705.9" y1="144.1" x2="727.3" y2="269.0"/>
<line x1="705.9" y1="144.1" x2="684.3" y2="354.7"/>
<line x1="705.9" y1="144.1" x2="807.3" y2="130.4"/>
<line x1="599.2" y1="159.4" x2="602.7" y2="72.4"/>
<line x1="599.2" y1="159.4" x2="631.6" y2="399.5"/>
<line x1="599.2" y1="159.4" x2="614.1" y2="452.6"/>
<line x1="602.7" y1="72.4" x2="771.6" y2="397.1"/>
<line x1="602.7" y1="72.4" x2="631.6" y2="399.5"/>
<line x1="669.9" y1="168.2" x2="642.9" y2="444.0"/>
<line x1="669.9" y1="168.2" x2="641.6" y2="64.7"/>
<line x1="669.9" y1="168.2" x2="627.4" y2="137.5"/>
<line x1="669.9" y1="168.2" x2="599.2" y2="159.4"/>
<line x1="669.9" y1="168.2" x2="759.9" y2="346.8"/>
<line x1="669.9" y1="168.2" x2="771.6" y2="397.1"/>
<line x1="669.9" y1="168.2" x2="631.6" y2="399.5"/>
<line x1="669.9" y1="168.2" x2="727.3" y2="269.0"/>
<line x1="669.9" y1="168.2" x2="654.0" y2="20.0"/>
<line x1="669.9" y1="168.2" x2="749.2" y2="110.6"/>
<line x1="712.0" y1="184.1" x2="642.9" y2="444.0"/>
<line x1="712.0" y1="184.1" x2="751.0" y2="293.8"/>
<line x1="712.0" y1="184.1" x2="627.4" y2="137.5"/>
<line x1="712.0" y1="184.1" x2="771.6" y2="397.1"/>
<line x1="712.0" y1="184.1" x2="631.6" y2="399.5"/>
<line x1="712.0" y1="184.1" x2="727.3" y2="269.0"/>
<line x1="712.0" y1="184.1" x2="749.2" y2="110.6"/>
<line x1="1010.8" y1="398.0" x2="642.9" y2="444.0"/>
<line x1="1010.8" y1="398.0" x2="1380.0" y2="389.6"/>
<line x1="1010.8" y1="398.0" x2="832.4" y2="414.1"/>
<line x1="1010.8" y1="398.0" x2="771.6" y2="397.1"/>
<line x1="1010.8" y1="398.0" x2="675.0" y2="510.2"/>
<line x1="759.9" y1="346.8" x2="832.4" y2="414.1"/>
<line x1="759.9" y1="346.8" x2="771.6" y2="397.1"/>
<line x1="759.9" y1="346.8" x2="675.0" y2="510.2"/>
<line x1="560.9" y1="463.7" x2="832.4" y2="414.1"/>
<line x1="560.9" y1="463.7" x2="771.6" y2="397.1"/>
<line x1="560.9" y1="463.7" x2="631.6" y2="399.5"/>
<line x1="560.9" y1="463.7" x2="479.4" y2="514.1"/>
<line x1="560.9" y1="463.7" x2="579.9" y2="449.2"/>
<line x1="560.9" y1="463.7" x2="568.8" y2="502.6"/>
<line x1="560.9" y1="463.7" x2="675.0" y2="510.2"/>
<line x1="560.9" y1="463.7" x2="588.6" y2="318.2"/>
<line x1="624.9" y1="306.7" x2="631.6" y2="399.5"/>
<line x1="624.9" y1="306.7" x2="672.7" y2="332.0"/>
<line x1="624.9" y1="306.7" x2="675.0" y2="510.2"/>
<line x1="609.3" y1="403.4" x2="633.0" y2="644.6"/>
<line x1="609.3" y1="403.4" x2="642.9" y2="444.0"/>
<line x1="609.3" y1="403.4" x2="688.3" y2="268.1"/>
<line x1="609.3" y1="403.4" x2="832.4" y2="414.1"/>
<line x1="609.3" y1="403.4" x2="759.9" y2="346.8"/>
<line x1="609.3" y1="403.4" x2="624.9" y2="306.7"/>
<line x1="609.3" y1="403.4" x2="771.6" y2="397.1"/>
<line x1="609.3" y1="403.4" x2="492.2" y2="365.8"/>
<line x1="609.3" y1="403.4" x2="631.6" y2="399.5"/>
<line x1="609.3" y1="403.4" x2="387.3" y2="528.7"/>
<line x1="609.3" y1="403.4" x2="568.8" y2="502.6"/>
<line x1="609.3" y1="403.4" x2="675.0" y2="510.2"/>
<line x1="609.3" y1="403.4" x2="588.6" y2="318.2"/>
<line x1="771.6" y1="397.1" x2="633.0" y2="644.6"/>
<line x1="771.6" y1="397.1" x2="642.9" y2="444.0"/>
<line x1="771.6" y1="397.1" x2="759.9" y2="346.8"/>
<line x1="771.6" y1="397.1" x2="624.9" y2="306.7"/>
<line x1="771.6" y1="397.1" x2="609.3" y2="403.4"/>
<line x1="771.6" y1="397.1" x2="1234.0" y2="304.0"/>
<line x1="771.6" y1="397.1" x2="1213.3" y2="234.0"/>
<line x1="771.6" y1="397.1" x2="690.3" y2="489.4"/>
<line x1="771.6" y1="397.1" x2="724.7" y2="465.2"/>
<line x1="771.6" y1="397.1" x2="387.3" y2="528.7"/>
<line x1="771.6" y1="397.1" x2="675.0" y2="510.2"/>
<line x1="771.6" y1="397.1" x2="778.8" y2="711.9"/>
<line x1="771.6" y1="397.1" x2="775.5" y2="523.5"/>
<line x1="771.6" y1="397.1" x2="714.6" y2="87.2"/>
<line x1="771.6" y1="397.1" x2="1144.0" y2="104.8"/>
<line x1="492.2" y1="365.8" x2="832.4" y2="414.1"/>
<line x1="492.2" y1="365.8" x2="771.6" y2="397.1"/>
<line x1="492.2" y1="365.8" x2="387.3" y2="528.7"/>
<line x1="690.3" y1="489.4" x2="642.9" y2="444.0"/>
<line x1="690.3" y1="489.4" x2="832.4" y2="414.1"/>
<line x1="690.3" y1="489.4" x2="771.6" y2="397.1"/>
<line x1="690.3" y1="489.4" x2="631.6" y2="399.5"/>
<line x1="690.3" y1="489.4" x2="724.7" y2="465.2"/>
<line x1="690.3" y1="489.4" x2="387.3" y2="528.7"/>
<line x1="690.3" y1="489.4" x2="479.4" y2="514.1"/>
<line x1="690.3" y1="489.4" x2="411.4" y2="462.3"/>
<line x1="690.3" y1="489.4" x2="579.9" y2="449.2"/>
<line x1="690.3" y1="489.4" x2="568.8" y2="502.6"/>
<line x1="690.3" y1="489.4" x2="727.3" y2="269.0"/>
<line x1="690.3" y1="489.4" x2="672.7" y2="332.0"/>
<line x1="690.3" y1="489.4" x2="675.0" y2="510.2"/>
<line x1="690.3" y1="489.4" x2="630.5" y2="940.3"/>
<line x1="690.3" y1="489.4" x2="894.2" y2="314.0"/>
<line x1="690.3" y1="489.4" x2="850.6" y2="284.9"/>
<line x1="690.3" y1="489.4" x2="775.5" y2="523.5"/>
<line x1="690.3" y1="489.4" x2="815.5" y2="262.9"/>
<line x1="690.3" y1="489.4" x2="591.7" y2="475.1"/>
<line x1="20.0" y1="769.5" x2="387.3" y2="528.7"/>
<line x1="631.6" y1="399.5" x2="642.9" y2="444.0"/>
<line x1="631.6" y1="399.5" x2="832.4" y2="414.1"/>
<line x1="631.6" y1="399.5" x2="771.6" y2="397.1"/>
<line x1="724.7" y1="465.2" x2="642.9" y2="444.0"/>
<line x1="724.7" y1="465.2" x2="832.4" y2="414.1"/>
<line x1="724.7" y1="465.2" x2="771.6" y2="397.1"/>
<line x1="724.7" y1="465.2" x2="690.3" y2="489.4"/>
<line x1="724.7" y1="465.2" x2="631.6" y2="399.5"/>
<line x1="724.7" y1="465.2" x2="479.4" y2="514.1"/>
<line x1="724.7" y1="465.2" x2="579.9" y2="449.2"/>
<line x1="724.7" y1="465.2" x2="568.8" y2="502.6"/>
<line x1="724.7" y1="465.2" x2="675.0" y2="510.2"/>
<line x1="724.7" y1="465.2" x2="775.5" y2="523.5"/>
<line x1="387.3" y1="528.7" x2="631.6" y2="399.5"/>
<line x1="529.3" y1="394.4" x2="771.6" y2="397.1"/>
<line x1="529.3" y1="394.4" x2="690.3" y2="489.4"/>
<line x1="529.3" y1="394.4" x2="631.6" y2="399.5"/>
<line x1="529.3" y1="394.4" x2="563.9" y2="237.9"/>
<line x1="529.3" y1="394.4" x2="479.4" y2="514.1"/>
<line x1="529.3" y1="394.4" x2="579.9" y2="449.2"/>
<line x1="529.3" y1="394.4" x2="382.6" y2="363.5"/>
<line x1="455.4" y1="354.7" x2="771.6" y2="397.1"/>
<line x1="455.4" y1="354.7" x2="690.3" y2="489.4"/>
<line x1="455.4" y1="354.7" x2="631.6" y2="399.5"/>
<line x1="455.4" y1="354.7" x2="563.9" y2="237.9"/>
<line x1="455.4" y1="354.7" x2="479.4" y2="514.1"/>
<line x1="455.4" y1="354.7" x2="579.9" y2="449.2"/>
<line x1="455.4" y1="354.7" x2="382.6" y2="363.5"/>
<line x1="563.9" y1="237.9" x2="771.6" y2="397.1"/>
<line x1="563.9" y1="237.9" x2="631.6" y2="399.5"/>
<line x1="563.9" y1="237.9" x2="775.5" y2="523.5"/>
<line x1="603.9" y1="515.2" x2="832.4" y2="414.1"/>
<line x1="603.9" y1="515.2" x2="771.6" y2="397.1"/>
<line x1="603.9" y1="515.2" x2="690.3" y2="489.4"/>
<line x1="603.9" y1="515.2" x2="631.6" y2="399.5"/>
<line x1="603.9" y1="515.2" x2="479.4" y2="514.1"/>
<line x1="603.9" y1="515.2" x2="568.8" y2="502.6"/>
<line x1="603.9" y1="515.2" x2="672.7" y2="332.0"/>
<line x1="464.2" y1="484.3" x2="642.9" y2="444.0"/>
<line x1="464.2" y1="484.3" x2="771.6" y2="397.1"/>
<line x1="464.2" y1="484.3" x2="631.6" y2="399.5"/>
<line x1="464.2" y1="484.3" x2="416.6" y2="632.4"/>
<line x1="464.2" y1="484.3" x2="479.4" y2="514.1"/>
<line x1="464.2" y1="484.3" x2="675.0" y2="510.2"/>
<line x1="416.6" y1="632.4" x2="633.0" y2="644.6"/>
<line x1="416.6" y1="632.4" x2="771.6" y2="397.1"/>
<line x1="416.6" y1="632.4" x2="778.8" y2="711.9"/>
<line x1="330.2" y1="488.2" x2="771.6" y2="397.1"/>
<line x1="330.2" y1="488.2" x2="416.6" y2="632.4"/>
<line x1="315.2" y1="704.8" x2="416.6" y2="632.4"/>
<line x1="315.2" y1="704.8" x2="479.4" y2="514.1"/>
<line x1="315.2" y1="704.8" x2="675.0" y2="510.2"/>
<line x1="413.9" y1="514.7" x2="771.6" y2="397.1"/>
<line x1="413.9" y1="514.7" x2="416.6" y2="632.4"/>
<line x1="413.9" y1="514.7" x2="479.4" y2="514.1"/>
<line x1="413.9" y1="514.7" x2="675.0" y2="510.2"/>
<line x1="360.1" y1="587.2" x2="631.6" y2="399.5"/>
<line x1="360.1" y1="587.2" x2="416.6" y2="632.4"/>
<line x1="360.1" y1="587.2" x2="479.4" y2="514.1"/>
<line x1="360.1" y1="587.2" x2="675.0" y2="510.2"/>
<line x1="385.2" y1="789.1" x2="631.6" y2="399.5"/>
<line x1="385.2" y1="789.1" x2="416.6" y2="632.4"/>
<line x1="385.2" y1="789.1" x2="574.3" y2="878.7"/>
<line x1="157.9" y1="701.7" x2="416.6" y2="632.4"/>
<line x1="157.9" y1="701.7" x2="479.4" y2="514.1"/>
<line x1="578.3" y1="658.2" x2="771.6" y2="397.1"/>
<line x1="578.3" y1="658.2" x2="416.6" y2="632.4"/>
<line x1="578.3" y1="658.2" x2="479.4" y2="514.1"/>
<line x1="578.3" y1="658.2" x2="675.0" y2="510.2"/>
<line x1="578.3" y1="658.2" x2="775.5" y2="523.5"/>
<line x1="213.8" y1="571.5" x2="631.6" y2="399.5"/>
<line x1="213.8" y1="571.5" x2="416.6" y2="632.4"/>
<line x1="20.0" y1="746.9" x2="416.6" y2="632.4"/>
<line x1="556.2" y1="555.8" x2="771.6" y2="397.1"/>
<line x1="556.2" y1="555.8" x2="631.6" y2="399.5"/>
<line x1="556.2" y1="555.8" x2="416.6" y2="632.4"/>
<line x1="556.2" y1="555.8" x2="578.3" y2="658.2"/>
<line x1="556.2" y1="555.8" x2="479.4" y2="514.1"/>
<line x1="556.2" y1="555.8" x2="672.7" y2="332.0"/>
<line x1="556.2" y1="555.8" x2="775.5" y2="523.5"/>
<line x1="315.0" y1="428.0" x2="771.6" y2="397.1"/>
<line x1="315.0" y1="428.0" x2="416.6" y2="632.4"/>
<line x1="470.5" y1="578.1" x2="631.6" y2="399.5"/>
<line x1="470.5" y1="578.1" x2="416.6" y2="632.4"/>
<line x1="470.5" y1="578.1" x2="330.2" y2="488.2"/>
<line x1="470.5" y1="578.1" x2="479.4" y2="514.1"/>
<line x1="470.5" y1="578.1" x2="579.9" y2="449.2"/>
<line x1="470.5" y1="578.1" x2="568.8" y2="502.6"/>
<line x1="470.5" y1="578.1" x2="775.5" y2="523.5"/>
<line x1="470.5" y1="578.1" x2="420.3" y2="668.1"/>
<line x1="470.5" y1="578.1" x2="637.9" y2="471.1"/>
<line x1="332.6" y1="611.7" x2="560.9" y2="463.7"/>
<line x1="332.6" y1="611.7" x2="416.6" y2="632.4"/>
<line x1="332.6" y1="611.7" x2="479.4" y2="514.1"/>
<line x1="332.6" y1="611.7" x2="411.4" y2="462.3"/>
<line x1="332.6" y1="611.7" x2="675.0" y2="510.2"/>
<line x1="498.8" y1="679.0" x2="771.6" y2="397.1"/>
<line x1="498.8" y1="679.0" x2="416.6" y2="632.4"/>
<line x1="498.8" y1="679.0" x2="479.4" y2="514.1"/>
<line x1="498.8" y1="679.0" x2="675.0" y2="510.2"/>
<line x1="498.8" y1="679.0" x2="387.9" y2="719.0"/>
<line x1="325.6" y1="532.7" x2="560.9" y2="463.7"/>
<line x1="325.6" y1="532.7" x2="631.6" y2="399.5"/>
<line x1="325.6" y1="532.7" x2="479.4" y2="514.1"/>
<line x1="325.6" y1="532.7" x2="568.8" y2="502.6"/>
<line x1="479.4" y1="514.1" x2="675.0" y2="510.2"/>
<line x1="411.4" y1="462.3" x2="631.6" y2="399.5"/>
<line x1="411.4" y1="462.3" x2="672.7" y2="332.0"/>
<line x1="579.9" y1="449.2" x2="642.9" y2="444.0"/>
<line x1="579.9" y1="449.2" x2="832.4" y2="414.1"/>
<line x1="579.9" y1="449.2" x2="771.6" y2="397.1"/>
<line x1="579.9" y1="449.2" x2="411.4" y2="462.3"/>
<line x1="579.9" y1="449.2" x2="568.8" y2="502.6"/>
<line x1="579.9" y1="449.2" x2="672.7" y2="332.0"/>
<line x1="579.9" y1="449.2" x2="775.5" y2="523.5"/>
<line x1="382.6" y1="363.5" x2="631.6" y2="399.5"/>
<line x1="382.6" y1="363.5" x2="579.9" y2="449.2"/>
<line x1="382.6" y1="363.5" x2="675.0" y2="510.2"/>
<line x1="568.8" y1="502.6" x2="631.6" y2="399.5"/>
<line x1="501.6" y1="472.9" x2="642.9" y2="444.0"/>
<line x1="501.6" y1="472.9" x2="832.4" y2="414.1"/>
<line x1="501.6" y1="472.9" x2="771.6" y2="397.1"/>
<line x1="501.6" y1="472.9" x2="631.6" y2="399.5"/>
<line x1="501.6" y1="472.9" x2="675.0" y2="510.2"/>
<line x1="501.6" y1="472.9" x2="471.1" y2="262.0"/>
<line x1="501.6" y1="472.9" x2="44.7" y2="505.5"/>
<line x1="501.6" y1="472.9" x2="515.7" y2="745.3"/>
<line x1="501.6" y1="472.9" x2="420.3" y2="668.1"/>
<line x1="501.6" y1="472.9" x2="489.6" y2="235.4"/>
<line x1="451.9" y1="428.2" x2="560.9" y2="463.7"/>
<line x1="451.9" y1="428.2" x2="771.6" y2="397.1"/>
<line x1="451.9" y1="428.2" x2="631.6" y2="399.5"/>
<line x1="451.9" y1="428.2" x2="479.4" y2="514.1"/>
<line x1="451.9" y1="428.2" x2="568.8" y2="502.6"/>
<line x1="451.9" y1="428.2" x2="775.5" y2="523.5"/>
<line x1="504.0" y1="618.7" x2="631.6" y2="399.5"/>
<line x1="504.0" y1="618.7" x2="479.4" y2="514.1"/>
<line x1="504.0" y1="618.7" x2="579.9" y2="449.2"/>
<line x1="504.0" y1="618.7" x2="568.8" y2="502.6"/>
<line x1="504.0" y1="618.7" x2="387.9" y2="719.0"/>
<line x1="504.0" y1="618.7" x2="775.5" y2="523.5"/>
<line x1="943.6" y1="750.2" x2="832.4" y2="414.1"/>
<line x1="943.6" y1="750.2" x2="771.6" y2="397.1"/>
<line x1="943.6" y1="750.2" x2="963.8" y2="567.1"/>
<line x1="943.6" y1="750.2" x2="775.5" y2="523.5"/>
<line x1="727.3" y1="269.0" x2="1023.6" y2="20.0"/>
<line x1="727.3" y1="269.0" x2="661.1" y2="304.3"/>
<line x1="727.3" y1="269.0" x2="751.0" y2="293.8"/>
<line x1="727.3" y1="269.0" x2="677.0" y2="99.8"/>
<line x1="727.3" y1="269.0" x2="750.0" y2="185.5"/>
<line x1="727.3" y1="269.0" x2="688.3" y2="268.1"/>
<line x1="727.3" y1="269.0" x2="583.6" y2="271.7"/>
<line x1="727.3" y1="269.0" x2="704.7" y2="225.2"/>
<line x1="727.3" y1="269.0" x2="705.9" y2="144.1"/>
<line x1="727.3" y1="269.0" x2="669.9" y2="168.2"/>
<line x1="727.3" y1="269.0" x2="712.0" y2="184.1"/>
<line x1="727.3" y1="269.0" x2="832.4" y2="414.1"/>
<line x1="727.3" y1="269.0" x2="771.6" y2="397.1"/>
<line x1="727.3" y1="269.0" x2="690.3" y2="489.4"/>
<line x1="727.3" y1="269.0" x2="631.6" y2="399.5"/>
<line x1="727.3" y1="269.0" x2="501.6" y2="472.9"/>
<line x1="727.3" y1="269.0" x2="672.7" y2="332.0"/>
<line x1="727.3" y1="269.0" x2="940.8" y2="396.7"/>
<line x1="565.8" y1="725.1" x2="690.3" y2="489.4"/>
<line x1="565.8" y1="725.1" x2="631.6" y2="399.5"/>
<line x1="675.0" y1="510.2" x2="624.9" y2="306.7"/>
<line x1="639.0" y1="751.0" x2="661.8" y2="1055.9"/>
<line x1="639.0" y1="751.0" x2="771.6" y2="397.1"/>
<line x1="639.0" y1="751.0" x2="631.6" y2="399.5"/>
<line x1="639.0" y1="751.0" x2="675.0" y2="510.2"/>
<line x1="639.0" y1="751.0" x2="515.7" y2="745.3"/>
<line x1="427.7" y1="760.8" x2="560.9" y2="463.7"/>
<line x1="427.7" y1="760.8" x2="675.0" y2="510.2"/>
<line x1="551.0" y1="316.3" x2="560.9" y2="463.7"/>
<line x1="551.0" y1="316.3" x2="609.3" y2="403.4"/>
<line x1="551.0" y1="316.3" x2="771.6" y2="397.1"/>
<line x1="551.0" y1="316.3" x2="631.6" y2="399.5"/>
<line x1="551.0" y1="316.3" x2="675.0" y2="510.2"/>
<line x1="613.1" y1="241.6" x2="609.3" y2="403.4"/>
<line x1="613.1" y1="241.6" x2="771.6" y2="397.1"/>
<line x1="613.1" y1="241.6" x2="631.6" y2="399.5"/>
<line x1="613.1" y1="241.6" x2="675.0" y2="510.2"/>
<line x1="471.1" y1="262.0" x2="631.6" y2="399.5"/>
<line x1="471.1" y1="262.0" x2="672.7" y2="332.0"/>
<line x1="594.6" y1="356.9" x2="771.6" y2="397.1"/>
<line x1="594.6" y1="356.9" x2="690.3" y2="489.4"/>
<line x1="594.6" y1="356.9" x2="631.6" y2="399.5"/>
<line x1="594.6" y1="356.9" x2="724.7" y2="465.2"/>
<line x1="594.6" y1="356.9" x2="675.0" y2="510.2"/>
<line x1="594.6" y1="356.9" x2="613.1" y2="241.6"/>
<line x1="594.6" y1="356.9" x2="514.5" y2="335.8"/>
<line x1="538.0" y1="289.4" x2="642.9" y2="444.0"/>
<line x1="538.0" y1="289.4" x2="759.9" y2="346.8"/>
<line x1="538.0" y1="289.4" x2="560.9" y2="463.7"/>
<line x1="538.0" y1="289.4" x2="771.6" y2="397.1"/>
<line x1="538.0" y1="289.4" x2="690.3" y2="489.4"/>
<line x1="538.0" y1="289.4" x2="631.6" y2="399.5"/>
<line x1="538.0" y1="289.4" x2="724.7" y2="465.2"/>
<line x1="538.0" y1="289.4" x2="518.7" y2="42.3"/>
<line x1="538.0" y1="289.4" x2="551.0" y2="316.3"/>
<line x1="538.0" y1="289.4" x2="514.5" y2="335.8"/>
<line x1="538.0" y1="289.4" x2="588.6" y2="318.2"/>
<line x1="538.0" y1="289.4" x2="591.7" y2="475.1"/>
<line x1="242.7" y1="166.1" x2="538.0" y2="289.4"/>
<line x1="242.7" y1="166.1" x2="514.5" y2="335.8"/>
<line x1="514.5" y1="335.8" x2="642.9" y2="444.0"/>
<line x1="514.5" y1="335.8" x2="832.4" y2="414.1"/>
<line x1="514.5" y1="335.8" x2="560.9" y2="463.7"/>
<line x1="514.5" y1="335.8" x2="771.6" y2="397.1"/>
<line x1="514.5" y1="335.8" x2="690.3" y2="489.4"/>
<line x1="514.5" y1="335.8" x2="631.6" y2="399.5"/>
<line x1="514.5" y1="335.8" x2="675.0" y2="510.2"/>
<line x1="514.5" y1="335.8" x2="775.5" y2="523.5"/>
<line x1="477.5" y1="314.2" x2="771.6" y2="397.1"/>
<line x1="477.5" y1="314.2" x2="690.3" y2="489.4"/>
<line x1="477.5" y1="314.2" x2="631.6" y2="399.5"/>
<line x1="477.5" y1="314.2" x2="514.5" y2="335.8"/>
<line x1="684.3" y1="354.7" x2="642.9" y2="444.0"/>
<line x1="684.3" y1="354.7" x2="832.4" y2="414.1"/>
<line x1="684.3" y1="354.7" x2="560.9" y2="463.7"/>
<line x1="684.3" y1="354.7" x2="609.3" y2="403.4"/>
<line x1="684.3" y1="354.7" x2="771.6" y2="397.1"/>
<line x1="684.3" y1="354.7" x2="690.3" y2="489.4"/>
<line x1="684.3" y1="354.7" x2="631.6" y2="399.5"/>
<line x1="684.3" y1="354.7" x2="724.7" y2="465.2"/>
<line x1="684.3" y1="354.7" x2="675.0" y2="510.2"/>
<line x1="684.3" y1="354.7" x2="514.5" y2="335.8"/>
<line x1="98.5" y1="197.6" x2="514.5" y2="335.8"/>
<line x1="539.5" y1="258.1" x2="642.9" y2="444.0"/>
<line x1="539.5" y1="258.1" x2="771.6" y2="397.1"/>
<line x1="539.5" y1="258.1" x2="631.6" y2="399.5"/>
<line x1="539.5" y1="258.1" x2="675.0" y2="510.2"/>
<line x1="539.5" y1="258.1" x2="594.6" y2="356.9"/>
<line x1="539.5" y1="258.1" x2="538.0" y2="289.4"/>
<line x1="539.5" y1="258.1" x2="588.6" y2="318.2"/>
<line x1="539.5" y1="258.1" x2="489.6" y2="235.4"/>
<line x1="641.6" y1="348.3" x2="832.4" y2="414.1"/>
<line x1="641.6" y1="348.3" x2="771.6" y2="397.1"/>
<line x1="641.6" y1="348.3" x2="690.3" y2="489.4"/>
<line x1="641.6" y1="348.3" x2="631.6" y2="399.5"/>
<line x1="641.6" y1="348.3" x2="479.4" y2="514.1"/>
<line x1="641.6" y1="348.3" x2="579.9" y2="449.2"/>
<line x1="641.6" y1="348.3" x2="568.8" y2="502.6"/>
<line x1="817.1" y1="332.2" x2="560.9" y2="463.7"/>
<line x1="817.1" y1="332.2" x2="771.6" y2="397.1"/>
<line x1="817.1" y1="332.2" x2="631.6" y2="399.5"/>
<line x1="817.1" y1="332.2" x2="675.0" y2="510.2"/>
<line x1="817.1" y1="332.2" x2="973.0" y2="325.5"/>
<line x1="973.0" y1="325.5" x2="832.4" y2="414.1"/>
<line x1="973.0" y1="325.5" x2="771.6" y2="397.1"/>
<line x1="973.0" y1="325.5" x2="675.0" y2="510.2"/>
<line x1="840.1" y1="501.6" x2="832.4" y2="414.1"/>
<line x1="840.1" y1="501.6" x2="771.6" y2="397.1"/>
<line x1="840.1" y1="501.6" x2="775.5" y2="523.5"/>
<line x1="840.1" y1="501.6" x2="859.5" y2="607.6"/>
<line x1="963.8" y1="567.1" x2="771.6" y2="397.1"/>
<line x1="963.8" y1="567.1" x2="631.6" y2="399.5"/>
<line x1="1061.7" y1="523.9" x2="832.4" y2="414.1"/>
<line x1="1061.7" y1="523.9" x2="771.6" y2="397.1"/>
<line x1="1142.4" y1="1380.0" x2="1209.6" y2="1380.0"/>
<line x1="1142.4" y1="1380.0" x2="1234.2" y2="1380.0"/>
<line x1="1142.4" y1="1380.0" x2="1178.3" y2="1380.0"/>
<line x1="1142.4" y1="1380.0" x2="1302.5" y2="1380.0"/>
<line x1="1209.6" y1="1380.0" x2="1302.5" y2="1380.0"/>
<line x1="1209.6" y1="1380.0" x2="1080.0" y2="1158.4"/>
<line x1="1234.2" y1="1380.0" x2="1080.0" y2="1158.4"/>
<line x1="1178.3" y1="1380.0" x2="1080.0" y2="1158.4"/>
<line x1="515.7" y1="745.3" x2="675.0" y2="510.2"/>
<line x1="588.6" y1="318.2" x2="624.9" y2="306.7"/>
<line x1="588.6" y1="318.2" x2="609.3" y2="403.4"/>
<line x1="588.6" y1="318.2" x2="771.6" y2="397.1"/>
<line x1="588.6" y1="318.2" x2="631.6" y2="399.5"/>
<line x1="588.6" y1="318.2" x2="675.0" y2="510.2"/>
<line x1="614.1" y1="452.6" x2="642.9" y2="444.0"/>
<line x1="614.1" y1="452.6" x2="832.4" y2="414.1"/>
<line x1="614.1" y1="452.6" x2="771.6" y2="397.1"/>
<line x1="614.1" y1="452.6" x2="690.3" y2="489.4"/>
<line x1="614.1" y1="452.6" x2="631.6" y2="399.5"/>
<line x1="614.1" y1="452.6" x2="603.9" y2="515.2"/>
<line x1="614.1" y1="452.6" x2="479.4" y2="514.1"/>
<line x1="614.1" y1="452.6" x2="579.9" y2="449.2"/>
<line x1="614.1" y1="452.6" x2="568.8" y2="502.6"/>
<line x1="614.1" y1="452.6" x2="672.7" y2="332.0"/>
<line x1="894.2" y1="314.0" x2="642.9" y2="444.0"/>
<line x1="894.2" y1="314.0" x2="832.4" y2="414.1"/>
<line x1="894.2" y1="314.0" x2="771.6" y2="397.1"/>
<line x1="850.6" y1="284.9" x2="642.9" y2="444.0"/>
<line x1="850.6" y1="284.9" x2="832.4" y2="414.1"/>
<line x1="850.6" y1="284.9" x2="771.6" y2="397.1"/>
<line x1="940.8" y1="396.7" x2="631.6" y2="399.5"/>
<line x1="937.2" y1="517.2" x2="631.6" y2="399.5"/>
<line x1="937.2" y1="517.2" x2="675.0" y2="510.2"/>
<line x1="937.2" y1="517.2" x2="859.5" y2="607.6"/>
<line x1="822.1" y1="20.0" x2="915.3" y2="22.4"/>
<line x1="822.1" y1="20.0" x2="873.8" y2="25.1"/>
<line x1="778.8" y1="711.9" x2="633.0" y2="644.6"/>
<line x1="778.8" y1="711.9" x2="631.6" y2="399.5"/>
<line x1="778.8" y1="711.9" x2="1080.0" y2="1158.4"/>
<line x1="706.5" y1="601.7" x2="832.4" y2="414.1"/>
<line x1="706.5" y1="601.7" x2="771.6" y2="397.1"/>
<line x1="706.5" y1="601.7" x2="631.6" y2="399.5"/>
<line x1="706.5" y1="601.7" x2="568.8" y2="502.6"/>
<line x1="706.5" y1="601.7" x2="775.5" y2="523.5"/>
<line x1="775.5" y1="523.5" x2="633.0" y2="644.6"/>
<line x1="775.5" y1="523.5" x2="771.6" y2="397.1"/>
<line x1="775.5" y1="523.5" x2="631.6" y2="399.5"/>
<line x1="775.5" y1="523.5" x2="529.3" y2="394.4"/>
<line x1="775.5" y1="523.5" x2="778.8" y2="711.9"/>
<line x1="815.5" y1="262.9" x2="771.6" y2="397.1"/>
<line x1="815.5" y1="262.9" x2="588.6" y2="318.2"/>
<line x1="859.5" y1="607.6" x2="631.6" y2="399.5"/>
<line x1="859.5" y1="607.6" x2="675.0" y2="510.2"/>
<line x1="1128.5" y1="886.8" x2="690.3" y2="489.4"/>
<line x1="1128.5" y1="886.8" x2="1380.0" y2="1199.0"/>
<line x1="699.1" y1="403.3" x2="832.4" y2="414.1"/>
<line x1="699.1" y1="403.3" x2="560.9" y2="463.7"/>
<line x1="699.1" y1="403.3" x2="771.6" y2="397.1"/>
<line x1="699.1" y1="403.3" x2="631.6" y2="399.5"/>
<line x1="699.1" y1="403.3" x2="675.0" y2="510.2"/>
<line x1="699.1" y1="403.3" x2="588.6" y2="318.2"/>
<line x1="714.6" y1="87.2" x2="631.6" y2="399.5"/>
<line x1="714.6" y1="87.2" x2="672.7" y2="332.0"/>
<line x1="516.8" y1="104.4" x2="631.6" y2="399.5"/>
<line x1="591.7" y1="475.1" x2="631.6" y2="399.5"/>
<line x1="591.7" y1="475.1" x2="479.0" y2="937.3"/>
<line x1="919.6" y1="348.4" x2="771.6" y2="397.1"/>
<line x1="919.6" y1="348.4" x2="690.3" y2="489.4"/>
<line x1="919.6" y1="348.4" x2="724.7" y2="465.2"/>
<line x1="623.0" y1="554.8" x2="727.3" y2="269.0"/>
<line x1="623.0" y1="554.8" x2="591.7" y2="475.1"/>
<line x1="786.4" y1="669.4" x2="690.3" y2="489.4"/>
<line x1="786.4" y1="669.4" x2="675.0" y2="510.2"/>
<line x1="786.4" y1="669.4" x2="840.1" y2="501.6"/>
<line x1="786.4" y1="669.4" x2="614.1" y2="452.6"/>
<line x1="786.4" y1="669.4" x2="859.5" y2="607.6"/>
<line x1="890.2" y1="693.4" x2="759.3" y2="746.1"/>
<line x1="890.2" y1="693.4" x2="1099.7" y2="1040.4"/>
<line x1="890.2" y1="693.4" x2="816.6" y2="580.4"/>
<line x1="890.2" y1="693.4" x2="775.9" y2="573.4"/>
<line x1="890.2" y1="693.4" x2="842.7" y2="802.8"/>
<line x1="890.2" y1="693.4" x2="728.5" y2="647.2"/>
<line x1="890.2" y1="693.4" x2="840.5" y2="539.2"/>
<line x1="890.2" y1="693.4" x2="930.2" y2="828.1"/>
<line x1="890.2" y1="693.4" x2="1005.4" y2="609.5"/>
<line x1="890.2" y1="693.4" x2="983.0" y2="589.4"/>
<line x1="890.2" y1="693.4" x2="766.1" y2="803.9"/>
<line x1="890.2" y1="693.4" x2="828.1" y2="619.0"/>
<line x1="890.2" y1="693.4" x2="981.1" y2="645.8"/>
<line x1="890.2" y1="693.4" x2="1036.3" y2="637.6"/>
<line x1="890.2" y1="693.4" x2="1063.7" y2="580.8"/>
<line x1="890.2" y1="693.4" x2="750.0" y2="460.5"/>
<line x1="890.2" y1="693.4" x2="659.0" y2="700.9"/>
<line x1="890.2" y1="693.4" x2="914.9" y2="575.9"/>
<line x1="890.2" y1="693.4" x2="878.0" y2="546.5"/>
<line x1="890.2" y1="693.4" x2="889.6" y2="828.2"/>
<line x1="890.2" y1="693.4" x2="929.3" y2="635.2"/>
<line x1="890.2" y1="693.4" x2="816.0" y2="727.8"/>
<line x1="890.2" y1="693.4" x2="894.7" y2="620.4"/>
<line x1="759.3" y1="746.1" x2="631.6" y2="399.5"/>
<line x1="759.3" y1="746.1" x2="675.0" y2="510.2"/>
<line x1="759.3" y1="746.1" x2="859.5" y2="607.6"/>
<line x1="759.3" y1="746.1" x2="890.2" y2="693.4"/>
<line x1="816.6" y1="580.4" x2="832.4" y2="414.1"/>
<line x1="816.6" y1="580.4" x2="771.6" y2="397.1"/>
<line x1="816.6" y1="580.4" x2="690.3" y2="489.4"/>
<line x1="816.6" y1="580.4" x2="631.6" y2="399.5"/>
<line x1="816.6" y1="580.4" x2="675.0" y2="510.2"/>
<line x1="816.6" y1="580.4" x2="775.5" y2="523.5"/>
<line x1="816.6" y1="580.4" x2="859.5" y2="607.6"/>
<line x1="816.6" y1="580.4" x2="890.2" y2="693.4"/>
<line x1="775.9" y1="573.4" x2="832.4" y2="414.1"/>
<line x1="775.9" y1="573.4" x2="560.9" y2="463.7"/>
<line x1="775.9" y1="573.4" x2="771.6" y2="397.1"/>
<line x1="775.9" y1="573.4" x2="631.6" y2="399.5"/>
<line x1="775.9" y1="573.4" x2="775.5" y2="523.5"/>
<line x1="775.9" y1="573.4" x2="859.5" y2="607.6"/>
<line x1="775.9" y1="573.4" x2="699.1" y2="403.3"/>
<line x1="775.9" y1="573.4" x2="890.2" y2="693.4"/>
<line x1="842.7" y1="802.8" x2="642.9" y2="444.0"/>
<line x1="842.7" y1="802.8" x2="859.5" y2="607.6"/>
<line x1="842.7" y1="802.8" x2="890.2" y2="693.4"/>
<line x1="728.5" y1="647.2" x2="642.9" y2="444.0"/>
<line x1="728.5" y1="647.2" x2="832.4" y2="414.1"/>
<line x1="728.5" y1="647.2" x2="771.6" y2="397.1"/>
<line x1="728.5" y1="647.2" x2="568.8" y2="502.6"/>
<line x1="728.5" y1="647.2" x2="515.7" y2="745.3"/>
<line x1="728.5" y1="647.2" x2="706.5" y2="601.7"/>
<line x1="728.5" y1="647.2" x2="775.5" y2="523.5"/>
<line x1="728.5" y1="647.2" x2="859.5" y2="607.6"/>
<line x1="728.5" y1="647.2" x2="890.2" y2="693.4"/>
<line x1="840.5" y1="539.2" x2="832.4" y2="414.1"/>
<line x1="840.5" y1="539.2" x2="759.9" y2="346.8"/>
<line x1="840.5" y1="539.2" x2="609.3" y2="403.4"/>
<line x1="840.5" y1="539.2" x2="771.6" y2="397.1"/>
<line x1="840.5" y1="539.2" x2="675.0" y2="510.2"/>
<line x1="840.5" y1="539.2" x2="859.5" y2="607.6"/>
<line x1="840.5" y1="539.2" x2="890.2" y2="693.4"/>
<line x1="930.2" y1="828.1" x2="631.6" y2="399.5"/>
<line x1="930.2" y1="828.1" x2="859.5" y2="607.6"/>
<line x1="930.2" y1="828.1" x2="890.2" y2="693.4"/>
<line x1="930.2" y1="828.1" x2="1080.0" y2="1158.4"/>
<line x1="1005.4" y1="609.5" x2="832.4" y2="414.1"/>
<line x1="1005.4" y1="609.5" x2="771.6" y2="397.1"/>
<line x1="1005.4" y1="609.5" x2="775.5" y2="523.5"/>
<line x1="1005.4" y1="609.5" x2="859.5" y2="607.6"/>
<line x1="1005.4" y1="609.5" x2="890.2" y2="693.4"/>
<line x1="983.0" y1="589.4" x2="832.4" y2="414.1"/>
<line x1="983.0" y1="589.4" x2="771.6" y2="397.1"/>
<line x1="983.0" y1="589.4" x2="724.7" y2="465.2"/>
<line x1="983.0" y1="589.4" x2="859.5" y2="607.6"/>
<line x1="983.0" y1="589.4" x2="890.2" y2="693.4"/>
<line x1="766.1" y1="803.9" x2="631.6" y2="399.5"/>
<line x1="766.1" y1="803.9" x2="859.5" y2="607.6"/>
<line x1="828.1" y1="619.0" x2="832.4" y2="414.1"/>
<line x1="828.1" y1="619.0" x2="609.3" y2="403.4"/>
<line x1="828.1" y1="619.0" x2="771.6" y2="397.1"/>
<line x1="828.1" y1="619.0" x2="775.5" y2="523.5"/>
<line x1="828.1" y1="619.0" x2="859.5" y2="607.6"/>
<line x1="828.1" y1="619.0" x2="890.2" y2="693.4"/>
<line x1="981.1" y1="645.8" x2="832.4" y2="414.1"/>
<line x1="981.1" y1="645.8" x2="771.6" y2="397.1"/>
<line x1="981.1" y1="645.8" x2="775.5" y2="523.5"/>
<line x1="981.1" y1="645.8" x2="859.5" y2="607.6"/>
<line x1="981.1" y1="645.8" x2="890.2" y2="693.4"/>
<line x1="1036.3" y1="637.6" x2="832.4" y2="414.1"/>
<line x1="1036.3" y1="637.6" x2="771.6" y2="397.1"/>
<line x1="1036.3" y1="637.6" x2="859.5" y2="607.6"/>
<line x1="1036.3" y1="637.6" x2="890.2" y2="693.4"/>
<line x1="1063.7" y1="580.8" x2="832.4" y2="414.1"/>
<line x1="1063.7" y1="580.8" x2="771.6" y2="397.1"/>
<line x1="1063.7" y1="580.8" x2="859.5" y2="607.6"/>
<line x1="750.0" y1="460.5" x2="832.4" y2="414.1"/>
<line x1="750.0" y1="460.5" x2="759.9" y2="346.8"/>
<line x1="750.0" y1="460.5" x2="609.3" y2="403.4"/>
<line x1="750.0" y1="460.5" x2="771.6" y2="397.1"/>
<line x1="750.0" y1="460.5" x2="690.3" y2="489.4"/>
<line x1="750.0" y1="460.5" x2="631.6" y2="399.5"/>
<line x1="750.0" y1="460.5" x2="675.0" y2="510.2"/>
<line x1="750.0" y1="460.5" x2="471.1" y2="262.0"/>
<line x1="750.0" y1="460.5" x2="594.6" y2="356.9"/>
<line x1="750.0" y1="460.5" x2="684.3" y2="354.7"/>
<line x1="750.0" y1="460.5" x2="775.5" y2="523.5"/>
<line x1="750.0" y1="460.5" x2="815.5" y2="262.9"/>
<line x1="750.0" y1="460.5" x2="859.5" y2="607.6"/>
<line x1="750.0" y1="460.5" x2="890.2" y2="693.4"/>
<line x1="750.0" y1="460.5" x2="678.8" y2="561.2"/>
<line x1="659.0" y1="700.9" x2="631.6" y2="399.5"/>
<line x1="659.0" y1="700.9" x2="416.6" y2="632.4"/>
<line x1="659.0" y1="700.9" x2="501.6" y2="472.9"/>
<line x1="659.0" y1="700.9" x2="859.5" y2="607.6"/>
<line x1="659.0" y1="700.9" x2="890.2" y2="693.4"/>
<line x1="914.9" y1="575.9" x2="832.4" y2="414.1"/>
<line x1="914.9" y1="575.9" x2="771.6" y2="397.1"/>
<line x1="914.9" y1="575.9" x2="675.0" y2="510.2"/>
<line x1="914.9" y1="575.9" x2="840.1" y2="501.6"/>
<line x1="914.9" y1="575.9" x2="775.5" y2="523.5"/>
<line x1="914.9" y1="575.9" x2="859.5" y2="607.6"/>
<line x1="914.9" y1="575.9" x2="890.2" y2="693.4"/>
<line x1="878.0" y1="546.5" x2="642.9" y2="444.0"/>
<line x1="878.0" y1="546.5" x2="832.4" y2="414.1"/>
<line x1="878.0" y1="546.5" x2="771.6" y2="397.1"/>
<line x1="878.0" y1="546.5" x2="724.7" y2="465.2"/>
<line x1="878.0" y1="546.5" x2="840.1" y2="501.6"/>
<line x1="878.0" y1="546.5" x2="775.5" y2="523.5"/>
<line x1="878.0" y1="546.5" x2="859.5" y2="607.6"/>
<line x1="878.0" y1="546.5" x2="890.2" y2="693.4"/>
<line x1="878.0" y1="546.5" x2="782.4" y2="439.3"/>
<line x1="889.6" y1="828.2" x2="675.0" y2="510.2"/>
<line x1="889.6" y1="828.2" x2="859.5" y2="607.6"/>
<line x1="889.6" y1="828.2" x2="890.2" y2="693.4"/>
<line x1="929.3" y1="635.2" x2="832.4" y2="414.1"/>
<line x1="929.3" y1="635.2" x2="771.6" y2="397.1"/>
<line x1="929.3" y1="635.2" x2="675.0" y2="510.2"/>
<line x1="929.3" y1="635.2" x2="840.1" y2="501.6"/>
<line x1="929.3" y1="635.2" x2="859.5" y2="607.6"/>
<line x1="929.3" y1="635.2" x2="890.2" y2="693.4"/>
<line x1="816.0" y1="727.8" x2="690.3" y2="489.4"/>
<line x1="816.0" y1="727.8" x2="724.7" y2="465.2"/>
<line x1="816.0" y1="727.8" x2="675.0" y2="510.2"/>
<line x1="816.0" y1="727.8" x2="859.5" y2="607.6"/>
<line x1="816.0" y1="727.8" x2="890.2" y2="693.4"/>
<line x1="894.7" y1="620.4" x2="832.4" y2="414.1"/>
<line x1="894.7" y1="620.4" x2="771.6" y2="397.1"/>
<line x1="894.7" y1="620.4" x2="675.0" y2="510.2"/>
<line x1="894.7" y1="620.4" x2="840.1" y2="501.6"/>
<line x1="894.7" y1="620.4" x2="775.5" y2="523.5"/>
<line x1="894.7" y1="620.4" x2="859.5" y2="607.6"/>
<line x1="894.7" y1="620.4" x2="890.2" y2="693.4"/>
<line x1="855.4" y1="683.2" x2="661.8" y2="1055.9"/>
<line x1="855.4" y1="683.2" x2="832.4" y2="414.1"/>
<line x1="855.4" y1="683.2" x2="771.6" y2="397.1"/>
<line x1="855.4" y1="683.2" x2="631.6" y2="399.5"/>
<line x1="855.4" y1="683.2" x2="986.6" y2="1064.0"/>
<line x1="855.4" y1="683.2" x2="675.0" y2="510.2"/>
<line x1="855.4" y1="683.2" x2="963.8" y2="567.1"/>
<line x1="855.4" y1="683.2" x2="1061.7" y2="523.9"/>
<line x1="855.4" y1="683.2" x2="940.8" y2="396.7"/>
<line x1="855.4" y1="683.2" x2="775.5" y2="523.5"/>
<line x1="855.4" y1="683.2" x2="859.5" y2="607.6"/>
<line x1="785.0" y1="477.0" x2="642.9" y2="444.0"/>
<line x1="785.0" y1="477.0" x2="832.4" y2="414.1"/>
<line x1="785.0" y1="477.0" x2="771.6" y2="397.1"/>
<line x1="785.0" y1="477.0" x2="690.3" y2="489.4"/>
<line x1="785.0" y1="477.0" x2="631.6" y2="399.5"/>
<line x1="785.0" y1="477.0" x2="675.0" y2="510.2"/>
<line x1="785.0" y1="477.0" x2="775.5" y2="523.5"/>
<line x1="712.2" y1="541.3" x2="832.4" y2="414.1"/>
<line x1="712.2" y1="541.3" x2="560.9" y2="463.7"/>
<line x1="712.2" y1="541.3" x2="771.6" y2="397.1"/>
<line x1="712.2" y1="541.3" x2="631.6" y2="399.5"/>
<line x1="712.2" y1="541.3" x2="479.4" y2="514.1"/>
<line x1="712.2" y1="541.3" x2="579.9" y2="449.2"/>
<line x1="712.2" y1="541.3" x2="568.8" y2="502.6"/>
<line x1="712.2" y1="541.3" x2="675.0" y2="510.2"/>
<line x1="712.2" y1="541.3" x2="840.1" y2="501.6"/>
<line x1="712.2" y1="541.3" x2="859.5" y2="607.6"/>
<line x1="712.2" y1="541.3" x2="699.1" y2="403.3"/>
<line x1="712.2" y1="541.3" x2="785.0" y2="477.0"/>
<line x1="754.4" y1="629.2" x2="751.0" y2="293.8"/>
<line x1="754.4" y1="629.2" x2="771.6" y2="397.1"/>
<line x1="754.4" y1="629.2" x2="840.1" y2="501.6"/>
<line x1="754.4" y1="629.2" x2="574.3" y2="878.7"/>
<line x1="754.4" y1="629.2" x2="859.5" y2="607.6"/>
<line x1="754.4" y1="629.2" x2="591.7" y2="475.1"/>
<line x1="997.9" y1="459.6" x2="771.6" y2="397.1"/>
<line x1="997.9" y1="459.6" x2="631.6" y2="399.5"/>
<line x1="997.9" y1="459.6" x2="859.5" y2="607.6"/>
<line x1="709.2" y1="362.5" x2="832.4" y2="414.1"/>
<line x1="709.2" y1="362.5" x2="759.9" y2="346.8"/>
<line x1="709.2" y1="362.5" x2="624.9" y2="306.7"/>
<line x1="709.2" y1="362.5" x2="609.3" y2="403.4"/>
<line x1="709.2" y1="362.5" x2="771.6" y2="397.1"/>
<line x1="709.2" y1="362.5" x2="631.6" y2="399.5"/>
<line x1="709.2" y1="362.5" x2="672.7" y2="332.0"/>
<line x1="709.2" y1="362.5" x2="675.0" y2="510.2"/>
<line x1="709.2" y1="362.5" x2="518.7" y2="42.3"/>
<line x1="709.2" y1="362.5" x2="551.0" y2="316.3"/>
<line x1="709.2" y1="362.5" x2="613.1" y2="241.6"/>
<line x1="709.2" y1="362.5" x2="840.1" y2="501.6"/>
<line x1="709.2" y1="362.5" x2="775.5" y2="523.5"/>
<line x1="709.2" y1="362.5" x2="859.5" y2="607.6"/>
<line x1="709.2" y1="362.5" x2="516.8" y2="104.4"/>
<line x1="709.2" y1="362.5" x2="591.7" y2="475.1"/>
<line x1="709.2" y1="362.5" x2="623.0" y2="554.8"/>
<line x1="709.2" y1="362.5" x2="785.0" y2="477.0"/>
<line x1="997.2" y1="516.9" x2="832.4" y2="414.1"/>
<line x1="997.2" y1="516.9" x2="771.6" y2="397.1"/>
<line x1="997.2" y1="516.9" x2="675.0" y2="510.2"/>
<line x1="997.2" y1="516.9" x2="859.5" y2="607.6"/>
<line x1="811.1" y1="888.2" x2="661.8" y2="1055.9"/>
<line x1="811.1" y1="888.2" x2="631.6" y2="399.5"/>
<line x1="811.1" y1="888.2" x2="904.5" y2="1293.1"/>
<line x1="811.1" y1="888.2" x2="859.5" y2="607.6"/>
<line x1="913.1" y1="474.1" x2="832.4" y2="414.1"/>
<line x1="913.1" y1="474.1" x2="771.6" y2="397.1"/>
<line x1="913.1" y1="474.1" x2="631.6" y2="399.5"/>
<line x1="913.1" y1="474.1" x2="675.0" y2="510.2"/>
<line x1="913.1" y1="474.1" x2="859.5" y2="607.6"/>
<line x1="732.5" y1="516.6" x2="642.9" y2="444.0"/>
<line x1="732.5" y1="516.6" x2="832.4" y2="414.1"/>
<line x1="732.5" y1="516.6" x2="759.9" y2="346.8"/>
<line x1="732.5" y1="516.6" x2="771.6" y2="397.1"/>
<line x1="732.5" y1="516.6" x2="631.6" y2="399.5"/>
<line x1="732.5" y1="516.6" x2="479.4" y2="514.1"/>
<line x1="732.5" y1="516.6" x2="579.9" y2="449.2"/>
<line x1="732.5" y1="516.6" x2="568.8" y2="502.6"/>
<line x1="732.5" y1="516.6" x2="675.0" y2="510.2"/>
<line x1="732.5" y1="516.6" x2="840.1" y2="501.6"/>
<line x1="732.5" y1="516.6" x2="775.5" y2="523.5"/>
<line x1="732.5" y1="516.6" x2="859.5" y2="607.6"/>
<line x1="732.5" y1="516.6" x2="785.0" y2="477.0"/>
<line x1="1087.1" y1="495.2" x2="832.4" y2="414.1"/>
<line x1="1087.1" y1="495.2" x2="771.6" y2="397.1"/>
<line x1="1087.1" y1="495.2" x2="859.5" y2="607.6"/>
<line x1="893.9" y1="439.7" x2="832.4" y2="414.1"/>
<line x1="893.9" y1="439.7" x2="771.6" y2="397.1"/>
<line x1="893.9" y1="439.7" x2="631.6" y2="399.5"/>
<line x1="893.9" y1="439.7" x2="675.0" y2="510.2"/>
<line x1="893.9" y1="439.7" x2="859.5" y2="607.6"/>
<line x1="893.9" y1="439.7" x2="785.0" y2="477.0"/>
<line x1="678.8" y1="561.2" x2="642.9" y2="444.0"/>
<line x1="678.8" y1="561.2" x2="832.4" y2="414.1"/>
<line x1="678.8" y1="561.2" x2="759.9" y2="346.8"/>
<line x1="678.8" y1="561.2" x2="609.3" y2="403.4"/>
<line x1="678.8" y1="561.2" x2="771.6" y2="397.1"/>
<line x1="678.8" y1="561.2" x2="690.3" y2="489.4"/>
<line x1="678.8" y1="561.2" x2="631.6" y2="399.5"/>
<line x1="678.8" y1="561.2" x2="724.7" y2="465.2"/>
<line x1="678.8" y1="561.2" x2="579.9" y2="449.2"/>
<line x1="678.8" y1="561.2" x2="568.8" y2="502.6"/>
<line x1="678.8" y1="561.2" x2="565.8" y2="725.1"/>
<line x1="678.8" y1="561.2" x2="675.0" y2="510.2"/>
<line x1="678.8" y1="561.2" x2="840.1" y2="501.6"/>
<line x1="678.8" y1="561.2" x2="588.6" y2="318.2"/>
<line x1="678.8" y1="561.2" x2="574.3" y2="878.7"/>
<line x1="678.8" y1="561.2" x2="775.5" y2="523.5"/>
<line x1="678.8" y1="561.2" x2="859.5" y2="607.6"/>
<line x1="678.8" y1="561.2" x2="420.3" y2="668.1"/>
<line x1="678.8" y1="561.2" x2="785.0" y2="477.0"/>
<line x1="678.8" y1="561.2" x2="712.2" y2="541.3"/>
<line x1="637.9" y1="471.1" x2="560.9" y2="463.7"/>
<line x1="637.9" y1="471.1" x2="771.6" y2="397.1"/>
<line x1="637.9" y1="471.1" x2="631.6" y2="399.5"/>
<line x1="637.9" y1="471.1" x2="416.6" y2="632.4"/>
<line x1="637.9" y1="471.1" x2="479.4" y2="514.1"/>
<line x1="637.9" y1="471.1" x2="501.6" y2="472.9"/>
<line x1="637.9" y1="471.1" x2="504.0" y2="618.7"/>
<line x1="637.9" y1="471.1" x2="727.3" y2="269.0"/>
<line x1="637.9" y1="471.1" x2="672.7" y2="332.0"/>
<line x1="637.9" y1="471.1" x2="675.0" y2="510.2"/>
<line x1="637.9" y1="471.1" x2="477.5" y2="314.2"/>
<line x1="637.9" y1="471.1" x2="840.1" y2="501.6"/>
<line x1="637.9" y1="471.1" x2="775.5" y2="523.5"/>
<line x1="637.9" y1="471.1" x2="859.5" y2="607.6"/>
<line x1="637.9" y1="471.1" x2="591.7" y2="475.1"/>
<line x1="637.9" y1="471.1" x2="489.6" y2="235.4"/>
<line x1="637.9" y1="471.1" x2="785.0" y2="477.0"/>
<line x1="1273.1" y1="826.4" x2="1128.5" y2="886.8"/>
<line x1="782.4" y1="439.3" x2="642.9" y2="444.0"/>
<line x1="782.4" y1="439.3" x2="832.4" y2="414.1"/>
<line x1="782.4" y1="439.3" x2="771.6" y2="397.1"/>
<line x1="782.4" y1="439.3" x2="690.3" y2="489.4"/>
<line x1="782.4" y1="439.3" x2="631.6" y2="399.5"/>
<line x1="782.4" y1="439.3" x2="724.7" y2="465.2"/>
<line x1="782.4" y1="439.3" x2="675.0" y2="510.2"/>
<line x1="782.4" y1="439.3" x2="840.1" y2="501.6"/>
<line x1="782.4" y1="439.3" x2="775.5" y2="523.5"/>
<line x1="782.4" y1="439.3" x2="859.5" y2="607.6"/>
<line x1="782.4" y1="439.3" x2="489.6" y2="235.4"/>
<line x1="1126.8" y1="555.7" x2="840.1" y2="501.6"/>
<line x1="1126.8" y1="555.7" x2="859.5" y2="607.6"/>
<line x1="1126.8" y1="555.7" x2="919.6" y2="348.4"/>
<line x1="881.1" y1="470.3" x2="832.4" y2="414.1"/>
<line x1="881.1" y1="470.3" x2="759.9" y2="346.8"/>
<line x1="881.1" y1="470.3" x2="771.6" y2="397.1"/>
<line x1="881.1" y1="470.3" x2="631.6" y2="399.5"/>
<line x1="881.1" y1="470.3" x2="675.0" y2="510.2"/>
<line x1="881.1" y1="470.3" x2="840.1" y2="501.6"/>
<line x1="881.1" y1="470.3" x2="1061.7" y2="523.9"/>
<line x1="881.1" y1="470.3" x2="940.8" y2="396.7"/>
<line x1="881.1" y1="470.3" x2="775.5" y2="523.5"/>
<line x1="881.1" y1="470.3" x2="859.5" y2="607.6"/>
<line x1="881.1" y1="470.3" x2="785.0" y2="477.0"/>
<line x1="944.7" y1="1169.1" x2="661.8" y2="1055.9"/>
<line x1="944.7" y1="1169.1" x2="943.6" y2="750.2"/>
<line x1="944.7" y1="1169.1" x2="1142.4" y2="1380.0"/>
<line x1="474.7" y1="1380.0" x2="661.8" y2="1055.9"/>
<line x1="1077.3" y1="430.2" x2="832.4" y2="414.1"/>
<line x1="1077.3" y1="430.2" x2="771.6" y2="397.1"/>
<line x1="1077.3" y1="430.2" x2="775.5" y2="523.5"/>
<line x1="1051.2" y1="349.7" x2="832.4" y2="414.1"/>
<line x1="1051.2" y1="349.7" x2="771.6" y2="397.1"/>
<line x1="1051.2" y1="349.7" x2="775.5" y2="523.5"/>
<line x1="522.0" y1="1380.0" x2="661.8" y2="1055.9"/>
<line x1="400.6" y1="20.0" x2="631.6" y2="399.5"/>
<line x1="361.7" y1="20.0" x2="631.6" y2="399.5"/>
<line x1="443.8" y1="20.0" x2="631.6" y2="399.5"/>
<line x1="1026.2" y1="166.1" x2="832.4" y2="414.1"/>
<line x1="1026.2" y1="166.1" x2="771.6" y2="397.1"/>
<line x1="1026.2" y1="166.1" x2="915.3" y2="22.4"/>
<line x1="1026.2" y1="166.1" x2="873.8" y2="25.1"/>
<line x1="769.7" y1="20.0" x2="631.6" y2="399.5"/>
<line x1="769.7" y1="20.0" x2="915.3" y2="22.4"/>
<line x1="769.7" y1="20.0" x2="873.8" y2="25.1"/>
<line x1="971.8" y1="81.9" x2="832.4" y2="414.1"/>
<line x1="971.8" y1="81.9" x2="771.6" y2="397.1"/>
<line x1="971.8" y1="81.9" x2="915.3" y2="22.4"/>
<line x1="971.8" y1="81.9" x2="873.8" y2="25.1"/>
<line x1="858.4" y1="140.4" x2="832.4" y2="414.1"/>
<line x1="858.4" y1="140.4" x2="771.6" y2="397.1"/>
<line x1="858.4" y1="140.4" x2="631.6" y2="399.5"/>
<line x1="858.4" y1="140.4" x2="915.3" y2="22.4"/>
<line x1="858.4" y1="140.4" x2="873.8" y2="25.1"/>
<line x1="419.4" y1="563.5" x2="631.6" y2="399.5"/>
<line x1="419.4" y1="563.5" x2="603.9" y2="515.2"/>
<line x1="419.4" y1="563.5" x2="579.9" y2="449.2"/>
<line x1="419.4" y1="563.5" x2="568.8" y2="502.6"/>
<line x1="419.4" y1="563.5" x2="614.1" y2="452.6"/>
<line x1="419.4" y1="563.5" x2="420.3" y2="668.1"/>
<line x1="1183.3" y1="172.5" x2="771.6" y2="397.1"/>
<line x1="965.7" y1="469.6" x2="771.6" y2="397.1"/>
<line x1="965.7" y1="469.6" x2="672.7" y2="332.0"/>
<line x1="965.7" y1="469.6" x2="778.8" y2="711.9"/>
<line x1="749.2" y1="110.6" x2="759.9" y2="346.8"/>
<line x1="749.2" y1="110.6" x2="771.6" y2="397.1"/>
<line x1="749.2" y1="110.6" x2="631.6" y2="399.5"/>
<line x1="749.2" y1="110.6" x2="654.0" y2="20.0"/>
<line x1="731.4" y1="20.0" x2="631.6" y2="399.5"/>
<line x1="731.4" y1="20.0" x2="915.3" y2="22.4"/>
<line x1="731.4" y1="20.0" x2="873.8" y2="25.1"/>
<line x1="992.6" y1="147.5" x2="832.4" y2="414.1"/>
<line x1="992.6" y1="147.5" x2="771.6" y2="397.1"/>
<line x1="992.6" y1="147.5" x2="915.3" y2="22.4"/>
<line x1="992.6" y1="147.5" x2="873.8" y2="25.1"/>
<line x1="150.1" y1="322.8" x2="609.3" y2="403.4"/>
<line x1="371.3" y1="143.6" x2="631.6" y2="399.5"/>
<line x1="371.3" y1="143.6" x2="588.6" y2="318.2"/>
<line x1="322.4" y1="30.7" x2="631.6" y2="399.5"/>
<line x1="736.9" y1="401.8" x2="642.9" y2="444.0"/>
<line x1="736.9" y1="401.8" x2="832.4" y2="414.1"/>
<line x1="736.9" y1="401.8" x2="771.6" y2="397.1"/>
<line x1="736.9" y1="401.8" x2="690.3" y2="489.4"/>
<line x1="736.9" y1="401.8" x2="631.6" y2="399.5"/>
<line x1="736.9" y1="401.8" x2="568.8" y2="502.6"/>
<line x1="736.9" y1="401.8" x2="675.0" y2="510.2"/>
<line x1="736.9" y1="401.8" x2="684.3" y2="354.7"/>
<line x1="943.7" y1="248.6" x2="832.4" y2="414.1"/>
<line x1="943.7" y1="248.6" x2="771.6" y2="397.1"/>
<line x1="943.7" y1="248.6" x2="631.6" y2="399.5"/>
<line x1="652.3" y1="225.5" x2="832.4" y2="414.1"/>
<line x1="652.3" y1="225.5" x2="624.9" y2="306.7"/>
<line x1="652.3" y1="225.5" x2="771.6" y2="397.1"/>
<line x1="652.3" y1="225.5" x2="631.6" y2="399.5"/>
<line x1="652.3" y1="225.5" x2="727.3" y2="269.0"/>
<line x1="652.3" y1="225.5" x2="672.7" y2="332.0"/>
<line x1="652.3" y1="225.5" x2="675.0" y2="510.2"/>
<line x1="652.3" y1="225.5" x2="518.7" y2="42.3"/>
<line x1="652.3" y1="225.5" x2="551.0" y2="316.3"/>
<line x1="652.3" y1="225.5" x2="613.1" y2="241.6"/>
<line x1="652.3" y1="225.5" x2="471.1" y2="262.0"/>
<line x1="652.3" y1="225.5" x2="538.0" y2="289.4"/>
<line x1="652.3" y1="225.5" x2="514.5" y2="335.8"/>
<line x1="652.3" y1="225.5" x2="539.5" y2="258.1"/>
<line x1="652.3" y1="225.5" x2="588.6" y2="318.2"/>
<line x1="652.3" y1="225.5" x2="699.1" y2="403.3"/>
<line x1="652.3" y1="225.5" x2="516.8" y2="104.4"/>
<line x1="652.3" y1="225.5" x2="591.7" y2="475.1"/>
<line x1="652.3" y1="225.5" x2="489.6" y2="235.4"/>
<line x1="652.3" y1="225.5" x2="915.3" y2="22.4"/>
<line x1="652.3" y1="225.5" x2="873.8" y2="25.1"/>
<line x1="1070.8" y1="390.7" x2="832.4" y2="414.1"/>
<line x1="1070.8" y1="390.7" x2="771.6" y2="397.1"/>
<line x1="1070.8" y1="390.7" x2="775.5" y2="523.5"/>
<line x1="1027.8" y1="131.3" x2="832.4" y2="414.1"/>
<line x1="1027.8" y1="131.3" x2="771.6" y2="397.1"/>
<line x1="1027.8" y1="131.3" x2="915.3" y2="22.4"/>
<line x1="1027.8" y1="131.3" x2="873.8" y2="25.1"/>
<line x1="549.0" y1="607.8" x2="771.6" y2="397.1"/>
<line x1="549.0" y1="607.8" x2="690.3" y2="489.4"/>
<line x1="549.0" y1="607.8" x2="479.4" y2="514.1"/>
<line x1="549.0" y1="607.8" x2="579.9" y2="449.2"/>
<line x1="549.0" y1="607.8" x2="568.8" y2="502.6"/>
<line x1="549.0" y1="607.8" x2="614.1" y2="452.6"/>
<line x1="880.6" y1="167.1" x2="832.4" y2="414.1"/>
<line x1="880.6" y1="167.1" x2="771.6" y2="397.1"/>
<line x1="880.6" y1="167.1" x2="631.6" y2="399.5"/>
<line x1="880.6" y1="167.1" x2="915.3" y2="22.4"/>
<line x1="880.6" y1="167.1" x2="873.8" y2="25.1"/>
<line x1="1003.6" y1="104.5" x2="832.4" y2="414.1"/>
<line x1="1003.6" y1="104.5" x2="771.6" y2="397.1"/>
<line x1="1003.6" y1="104.5" x2="915.3" y2="22.4"/>
<line x1="1003.6" y1="104.5" x2="873.8" y2="25.1"/>
<line x1="819.2" y1="176.7" x2="832.4" y2="414.1"/>
<line x1="819.2" y1="176.7" x2="609.3" y2="403.4"/>
<line x1="819.2" y1="176.7" x2="771.6" y2="397.1"/>
<line x1="819.2" y1="176.7" x2="641.6" y2="348.3"/>
<line x1="819.2" y1="176.7" x2="915.3" y2="22.4"/>
<line x1="819.2" y1="176.7" x2="873.8" y2="25.1"/>
<line x1="964.5" y1="119.7" x2="832.4" y2="414.1"/>
<line x1="964.5" y1="119.7" x2="771.6" y2="397.1"/>
<line x1="964.5" y1="119.7" x2="915.3" y2="22.4"/>
<line x1="964.5" y1="119.7" x2="873.8" y2="25.1"/>
<line x1="548.6" y1="20.0" x2="873.8" y2="25.1"/>
<line x1="266.6" y1="124.4" x2="631.6" y2="399.5"/>
<line x1="922.3" y1="179.2" x2="832.4" y2="414.1"/>
<line x1="922.3" y1="179.2" x2="771.6" y2="397.1"/>
<line x1="922.3" y1="179.2" x2="672.7" y2="332.0"/>
<line x1="922.3" y1="179.2" x2="919.6" y2="348.4"/>
<line x1="922.3" y1="179.2" x2="915.3" y2="22.4"/>
<line x1="922.3" y1="179.2" x2="873.8" y2="25.1"/>
<line x1="518.3" y1="877.2" x2="661.8" y2="1055.9"/>
<line x1="518.3" y1="877.2" x2="631.6" y2="399.5"/>
<line x1="710.3" y1="733.0" x2="661.8" y2="1055.9"/>
<line x1="710.3" y1="733.0" x2="633.0" y2="644.6"/>
<line x1="710.3" y1="733.0" x2="642.9" y2="444.0"/>
<line x1="710.3" y1="733.0" x2="832.4" y2="414.1"/>
<line x1="710.3" y1="733.0" x2="771.6" y2="397.1"/>
<line x1="933.8" y1="86.3" x2="832.4" y2="414.1"/>
<line x1="933.8" y1="86.3" x2="771.6" y2="397.1"/>
<line x1="933.8" y1="86.3" x2="915.3" y2="22.4"/>
<line x1="933.8" y1="86.3" x2="873.8" y2="25.1"/>
<line x1="1263.8" y1="1380.0" x2="1080.0" y2="1158.4"/>
<line x1="1198.4" y1="698.7" x2="775.5" y2="523.5"/>
<line x1="931.1" y1="599.4" x2="631.6" y2="399.5"/>
<line x1="931.1" y1="599.4" x2="1352.8" y2="711.0"/>
<line x1="931.1" y1="599.4" x2="786.4" y2="669.4"/>
<line x1="931.1" y1="599.4" x2="890.2" y2="693.4"/>
<line x1="931.1" y1="599.4" x2="855.4" y2="683.2"/>
<line x1="931.1" y1="599.4" x2="712.2" y2="541.3"/>
<line x1="931.1" y1="599.4" x2="754.4" y2="629.2"/>
<line x1="931.1" y1="599.4" x2="997.9" y2="459.6"/>
<line x1="931.1" y1="599.4" x2="709.2" y2="362.5"/>
<line x1="931.1" y1="599.4" x2="997.2" y2="516.9"/>
<line x1="931.1" y1="599.4" x2="811.1" y2="888.2"/>
<line x1="931.1" y1="599.4" x2="913.1" y2="474.1"/>
<line x1="931.1" y1="599.4" x2="732.5" y2="516.6"/>
<line x1="931.1" y1="599.4" x2="1087.1" y2="495.2"/>
<line x1="931.1" y1="599.4" x2="893.9" y2="439.7"/>
<line x1="931.1" y1="599.4" x2="678.8" y2="561.2"/>
<line x1="931.1" y1="599.4" x2="637.9" y2="471.1"/>
<line x1="931.1" y1="599.4" x2="1273.1" y2="826.4"/>
<line x1="931.1" y1="599.4" x2="782.4" y2="439.3"/>
<line x1="931.1" y1="599.4" x2="1126.8" y2="555.7"/>
<line x1="931.1" y1="599.4" x2="881.1" y2="470.3"/>
<line x1="296.9" y1="76.8" x2="631.6" y2="399.5"/>
</g>
<circle cx="661.8" cy="1055.9" r="7.3" fill="#8ab4ff"/>
<circle cx="1117.2" cy="288.0" r="2.5" fill="#ff9e64"/>
<circle cx="1380.0" cy="20.0" r="2.5" fill="#9ece6a"/>
<circle cx="633.0" cy="644.6" r="7.0" fill="#9ece6a"/>
<circle cx="20.0" cy="67.6" r="2.5" fill="#9ece6a"/>
<circle cx="488.1" cy="434.5" r="6.3" fill="#9ece6a"/>
<circle cx="581.3" cy="568.9" r="2.5" fill="#9ece6a"/>
<circle cx="243.8" cy="522.8" r="4.2" fill="#9ece6a"/>
<circle cx="517.0" cy="543.0" r="4.2" fill="#9ece6a"/>
<circle cx="198.0" cy="459.7" r="4.2" fill="#9ece6a"/>
<circle cx="174.9" cy="390.9" r="4.9" fill="#9ece6a"/>
<circle cx="642.9" cy="444.0" r="12.1" fill="#9ece6a"/>
<circle cx="293.1" cy="370.0" r="2.5" fill="#9ece6a"/>
<circle cx="1023.6" cy="20.0" r="4.2" fill="#9ece6a"/>
<circle cx="661.1" cy="304.3" r="5.4" fill="#9ece6a"/>
<circle cx="641.6" cy="64.7" r="4.9" fill="#9ece6a"/>
<circle cx="751.0" cy="293.8" r="6.7" fill="#9ece6a"/>
<circle cx="677.0" cy="99.8" r="4.2" fill="#9ece6a"/>
<circle cx="750.0" cy="185.5" r="4.2" fill="#9ece6a"/>
<circle cx="688.3" cy="268.1" r="4.9" fill="#9ece6a"/>
<circle cx="583.6" cy="271.7" r="4.2" fill="#9ece6a"/>
<circle cx="627.4" cy="137.5" r="8.1" fill="#9ece6a"/>
<circle cx="704.7" cy="225.2" r="4.2" fill="#9ece6a"/>
<circle cx="705.9" cy="144.1" r="4.2" fill="#9ece6a"/>
<circle cx="599.2" cy="159.4" r="7.6" fill="#9ece6a"/>
<circle cx="602.7" cy="72.4" r="4.9" fill="#9ece6a"/>
<circle cx="669.9" cy="168.2" r="4.2" fill="#9ece6a"/>
<circle cx="712.0" cy="184.1" r="4.2" fill="#9ece6a"/>
<circle cx="20.0" cy="1380.0" r="2.5" fill="#9ece6a"/>
<circle cx="1380.0" cy="389.6" r="4.2" fill="#9ece6a"/>
<circle cx="1010.8" cy="398.0" r="2.5" fill="#9ece6a"/>
<circle cx="832.4" cy="414.1" r="17.1" fill="#9ece6a"/>
<circle cx="759.9" cy="346.8" r="8.1" fill="#9ece6a"/>
<circle cx="560.9" cy="463.7" r="9.3" fill="#9ece6a"/>
<circle cx="624.9" cy="306.7" r="7.0" fill="#9ece6a"/>
<circle cx="609.3" cy="403.4" r="8.4" fill="#9ece6a"/>
<circle cx="1234.0" cy="304.0" r="4.2" fill="#9ece6a"/>
<circle cx="771.6" cy="397.1" r="21.0" fill="#9ece6a"/>
<circle cx="1213.3" cy="234.0" r="4.2" fill="#9ece6a"/>
<circle cx="492.2" cy="365.8" r="4.2" fill="#9ece6a"/>
<circle cx="690.3" cy="489.4" r="11.3" fill="#9ece6a"/>
<circle cx="20.0" cy="769.5" r="2.5" fill="#9ece6a"/>
<circle cx="631.6" cy="399.5" r="19.9" fill="#9ece6a"/>
<circle cx="724.7" cy="465.2" r="8.4" fill="#9ece6a"/>
<circle cx="387.3" cy="528.7" r="6.3" fill="#9ece6a"/>
<circle cx="1380.0" cy="1380.0" r="2.5" fill="#9ece6a"/>
<circle cx="529.3" cy="394.4" r="4.2" fill="#9ece6a"/>
<circle cx="455.4" cy="354.7" r="2.5" fill="#9ece6a"/>
<circle cx="563.9" cy="237.9" r="4.9" fill="#9ece6a"/>
<circle cx="1380.0" cy="20.0" r="2.5" fill="#9ece6a"/>
<circle cx="603.9" cy="515.2" r="4.9" fill="#9ece6a"/>
<circle cx="20.0" cy="1310.9" r="2.5" fill="#9ece6a"/>
<circle cx="464.2" cy="484.3" r="2.5" fill="#9ece6a"/>
<circle cx="416.6" cy="632.4" r="9.5" fill="#9ece6a"/>
<circle cx="330.2" cy="488.2" r="4.2" fill="#9ece6a"/>
<circle cx="315.2" cy="704.8" r="2.5" fill="#9ece6a"/>
<circle cx="413.9" cy="514.7" r="2.5" fill="#9ece6a"/>
<circle cx="360.1" cy="587.2" r="2.5" fill="#9ece6a"/>
<circle cx="385.2" cy="789.1" r="2.5" fill="#9ece6a"/>
<circle cx="157.9" cy="701.7" r="2.5" fill="#9ece6a"/>
<circle cx="20.0" cy="20.0" r="2.5" fill="#9ece6a"/>
<circle cx="578.3" cy="658.2" r="4.2" fill="#9ece6a"/>
<circle cx="213.8" cy="571.5" r="2.5" fill="#9ece6a"/>
<circle cx="20.0" cy="746.9" r="2.5" fill="#9ece6a"/>
<circle cx="556.2" cy="555.8" r="2.5" fill="#9ece6a"/>
<circle cx="315.0" cy="428.0" r="2.5" fill="#9ece6a"/>
<circle cx="470.5" cy="578.1" r="2.5" fill="#9ece6a"/>
<circle cx="332.6" cy="611.7" r="2.5" fill="#9ece6a"/>
<circle cx="498.8" cy="679.0" r="2.5" fill="#9ece6a"/>
<circle cx="325.6" cy="532.7" r="2.5" fill="#9ece6a"/>
<circle cx="479.4" cy="514.1" r="12.3" fill="#9ece6a"/>
<circle cx="411.4" cy="462.3" r="5.4" fill="#9ece6a"/>
<circle cx="579.9" cy="449.2" r="9.7" fill="#9ece6a"/>
<circle cx="382.6" cy="363.5" r="4.9" fill="#9ece6a"/>
<circle cx="568.8" cy="502.6" r="10.7" fill="#9ece6a"/>
<circle cx="501.6" cy="472.9" r="5.4" fill="#9ece6a"/>
<circle cx="451.9" cy="428.2" r="5.4" fill="#9ece6a"/>
<circle cx="504.0" cy="618.7" r="4.2" fill="#9ece6a"/>
<circle cx="943.6" cy="750.2" r="4.2" fill="#9ece6a"/>
<circle cx="727.3" cy="269.0" r="8.9" fill="#9ece6a"/>
<circle cx="672.7" cy="332.0" r="9.1" fill="#9ece6a"/>
<circle cx="565.8" cy="725.1" r="4.2" fill="#9ece6a"/>
<circle cx="986.6" cy="1064.0" r="4.2" fill="#9ece6a"/>
<circle cx="675.0" cy="510.2" r="15.8" fill="#9ece6a"/>
<circle cx="639.0" cy="751.0" r="2.5" fill="#9ece6a"/>
<circle cx="1380.0" cy="1380.0" r="2.5" fill="#9ece6a"/>
<circle cx="1380.0" cy="1380.0" r="2.5" fill="#9ece6a"/>
<circle cx="427.7" cy="760.8" r="2.5" fill="#9ece6a"/>
<circle cx="518.7" cy="42.3" r="5.4" fill="#9ece6a"/>
<circle cx="551.0" cy="316.3" r="5.4" fill="#9ece6a"/>
<circle cx="613.1" cy="241.6" r="5.4" fill="#9ece6a"/>
<circle cx="20.0" cy="1380.0" r="2.5" fill="#9ece6a"/>
<circle cx="471.1" cy="262.0" r="5.4" fill="#9ece6a"/>
<circle cx="1380.0" cy="1380.0" r="2.5" fill="#9ece6a"/>
<circle cx="594.6" cy="356.9" r="4.9" fill="#9ece6a"/>
<circle cx="538.0" cy="289.4" r="5.4" fill="#9ece6a"/>
<circle cx="242.7" cy="166.1" r="2.5" fill="#9ece6a"/>
<circle cx="514.5" cy="335.8" r="7.0" fill="#9ece6a"/>
<circle cx="477.5" cy="314.2" r="4.2" fill="#9ece6a"/>
<circle cx="684.3" cy="354.7" r="5.4" fill="#9ece6a"/>
<circle cx="98.5" cy="197.6" r="2.5" fill="#9ece6a"/>
<circle cx="539.5" cy="258.1" r="4.2" fill="#9ece6a"/>
<circle cx="641.6" cy="348.3" r="4.2" fill="#9ece6a"/>
<circle cx="20.0" cy="1380.0" r="2.5" fill="#9ece6a"/>
<circle cx="817.1" cy="332.2" r="2.5" fill="#9ece6a"/>
<circle cx="973.0" cy="325.5" r="4.2" fill="#9ece6a"/>
<circle cx="387.9" cy="719.0" r="5.9" fill="#9ece6a"/>
<circle cx="654.0" cy="20.0" r="6.3" fill="#9ece6a"/>
<circle cx="840.1" cy="501.6" r="9.3" fill="#9ece6a"/>
<circle cx="1380.0" cy="1380.0" r="2.5" fill="#9ece6a"/>
<circle cx="630.5" cy="940.3" r="4.2" fill="#9ece6a"/>
<circle cx="963.8" cy="567.1" r="4.9" fill="#9ece6a"/>
<circle cx="807.3" cy="130.4" r="5.9" fill="#9ece6a"/>
<circle cx="44.7" cy="505.5" r="4.2" fill="#9ece6a"/>
<circle cx="1061.7" cy="523.9" r="4.9" fill="#9ece6a"/>
<circle cx="1107.6" cy="1380.0" r="2.5" fill="#9ece6a"/>
<circle cx="1142.4" cy="1380.0" r="4.2" fill="#9ece6a"/>
<circle cx="1209.6" cy="1380.0" r="4.2" fill="#9ece6a"/>
<circle cx="1234.2" cy="1380.0" r="4.2" fill="#9ece6a"/>
<circle cx="1178.3" cy="1380.0" r="4.2" fill="#9ece6a"/>
<circle cx="1302.5" cy="1380.0" r="4.9" fill="#9ece6a"/>
<circle cx="515.7" cy="745.3" r="5.9" fill="#9ece6a"/>
<circle cx="588.6" cy="318.2" r="8.1" fill="#9ece6a"/>
<circle cx="614.1" cy="452.6" r="6.3" fill="#9ece6a"/>
<circle cx="894.2" cy="314.0" r="4.2" fill="#9ece6a"/>
<circle cx="850.6" cy="284.9" r="4.9" fill="#9ece6a"/>
<circle cx="940.8" cy="396.7" r="5.4" fill="#9ece6a"/>
<circle cx="937.2" cy="517.2" r="2.5" fill="#9ece6a"/>
<circle cx="20.0" cy="1331.5" r="2.5" fill="#9ece6a"/>
<circle cx="822.1" cy="20.0" r="2.5" fill="#9ece6a"/>
<circle cx="778.8" cy="711.9" r="6.3" fill="#9ece6a"/>
<circle cx="706.5" cy="601.7" r="4.2" fill="#9ece6a"/>
<circle cx="574.3" cy="878.7" r="5.4" fill="#9ece6a"/>
<circle cx="20.0" cy="1380.0" r="2.5" fill="#9ece6a"/>
<circle cx="775.5" cy="523.5" r="12.8" fill="#9ece6a"/>
<circle cx="904.5" cy="1293.1" r="4.2" fill="#9ece6a"/>
<circle cx="815.5" cy="262.9" r="4.9" fill="#9ece6a"/>
<circle cx="859.5" cy="607.6" r="13.4" fill="#9ece6a"/>
<circle cx="1380.0" cy="1199.0" r="4.2" fill="#9ece6a"/>
<circle cx="1128.5" cy="886.8" r="4.2" fill="#9ece6a"/>
<circle cx="699.1" cy="403.3" r="5.4" fill="#9ece6a"/>
<circle cx="714.6" cy="87.2" r="4.2" fill="#9ece6a"/>
<circle cx="420.3" cy="668.1" r="6.3" fill="#9ece6a"/>
<circle cx="516.8" cy="104.4" r="4.9" fill="#9ece6a"/>
<circle cx="591.7" cy="475.1" r="7.9" fill="#9ece6a"/>
<circle cx="1144.0" cy="104.8" r="4.2" fill="#9ece6a"/>
<circle cx="20.0" cy="20.0" r="2.5" fill="#9ece6a"/>
<circle cx="919.6" cy="348.4" r="5.9" fill="#9ece6a"/>
<circle cx="623.0" cy="554.8" r="4.2" fill="#9ece6a"/>
<circle cx="1337.1" cy="1380.0" r="2.5" fill="#9ece6a"/>
<circle cx="489.6" cy="235.4" r="6.3" fill="#9ece6a"/>
<circle cx="1352.8" cy="711.0" r="4.2" fill="#9ece6a"/>
<circle cx="786.4" cy="669.4" r="4.2" fill="#9ece6a"/>
<circle cx="890.2" cy="693.4" r="10.3" fill="#9ece6a"/>
<circle cx="759.3" cy="746.1" r="4.2" fill="#9ece6a"/>
<circle cx="1099.7" cy="1040.4" r="4.2" fill="#9ece6a"/>
<circle cx="816.6" cy="580.4" r="4.2" fill="#9ece6a"/>
<circle cx="775.9" cy="573.4" r="4.2" fill="#9ece6a"/>
<circle cx="842.7" cy="802.8" r="4.2" fill="#9ece6a"/>
<circle cx="728.5" cy="647.2" r="4.2" fill="#9ece6a"/>
<circle cx="840.5" cy="539.2" r="4.2" fill="#9ece6a"/>
<circle cx="930.2" cy="828.1" r="4.2" fill="#9ece6a"/>
<circle cx="1005.4" cy="609.5" r="4.2" fill="#9ece6a"/>
<circle cx="983.0" cy="589.4" r="4.2" fill="#9ece6a"/>
<circle cx="766.1" cy="803.9" r="4.2" fill="#9ece6a"/>
<circle cx="828.1" cy="619.0" r="4.2" fill="#9ece6a"/>
<circle cx="981.1" cy="645.8" r="4.2" fill="#9ece6a"/>
<circle cx="1036.3" cy="637.6" r="4.2" fill="#9ece6a"/>
<circle cx="1063.7" cy="580.8" r="4.2" fill="#9ece6a"/>
<circle cx="750.0" cy="460.5" r="4.2" fill="#9ece6a"/>
<circle cx="659.0" cy="700.9" r="4.2" fill="#9ece6a"/>
<circle cx="914.9" cy="575.9" r="4.2" fill="#9ece6a"/>
<circle cx="878.0" cy="546.5" r="4.2" fill="#9ece6a"/>
<circle cx="889.6" cy="828.2" r="4.2" fill="#9ece6a"/>
<circle cx="929.3" cy="635.2" r="4.2" fill="#9ece6a"/>
<circle cx="816.0" cy="727.8" r="4.2" fill="#9ece6a"/>
<circle cx="894.7" cy="620.4" r="4.2" fill="#9ece6a"/>
<circle cx="855.4" cy="683.2" r="4.2" fill="#9ece6a"/>
<circle cx="785.0" cy="477.0" r="7.0" fill="#9ece6a"/>
<circle cx="712.2" cy="541.3" r="4.9" fill="#9ece6a"/>
<circle cx="754.4" cy="629.2" r="4.2" fill="#9ece6a"/>
<circle cx="997.9" cy="459.6" r="4.2" fill="#9ece6a"/>
<circle cx="709.2" cy="362.5" r="4.2" fill="#9ece6a"/>
<circle cx="997.2" cy="516.9" r="4.2" fill="#9ece6a"/>
<circle cx="811.1" cy="888.2" r="4.2" fill="#9ece6a"/>
<circle cx="913.1" cy="474.1" r="4.2" fill="#9ece6a"/>
<circle cx="732.5" cy="516.6" r="4.2" fill="#9ece6a"/>
<circle cx="1087.1" cy="495.2" r="4.2" fill="#9ece6a"/>
<circle cx="893.9" cy="439.7" r="4.2" fill="#9ece6a"/>
<circle cx="678.8" cy="561.2" r="4.9" fill="#9ece6a"/>
<circle cx="637.9" cy="471.1" r="5.9" fill="#9ece6a"/>
<circle cx="1273.1" cy="826.4" r="4.2" fill="#9ece6a"/>
<circle cx="782.4" cy="439.3" r="4.9" fill="#9ece6a"/>
<circle cx="1126.8" cy="555.7" r="4.2" fill="#9ece6a"/>
<circle cx="881.1" cy="470.3" r="4.2" fill="#9ece6a"/>
<circle cx="944.7" cy="1169.1" r="2.5" fill="#f7768e"/>
<circle cx="479.0" cy="937.3" r="4.9" fill="#bb9af7"/>
<circle cx="1380.0" cy="1380.0" r="2.5" fill="#7dcfff"/>
<circle cx="1202.1" cy="20.0" r="2.5" fill="#7dcfff"/>
<circle cx="20.0" cy="20.0" r="2.5" fill="#7dcfff"/>
<circle cx="20.0" cy="1380.0" r="2.5" fill="#7dcfff"/>
<circle cx="20.0" cy="20.0" r="2.5" fill="#e0af68"/>
<circle cx="20.0" cy="1380.0" r="2.5" fill="#73daca"/>
<circle cx="1380.0" cy="1309.8" r="2.5" fill="#73daca"/>
<circle cx="20.0" cy="20.0" r="2.5" fill="#73daca"/>
<circle cx="20.0" cy="1283.5" r="2.5" fill="#73daca"/>
<circle cx="20.0" cy="1348.6" r="2.5" fill="#73daca"/>
<circle cx="20.0" cy="1380.0" r="2.5" fill="#73daca"/>
<circle cx="1380.0" cy="1190.2" r="2.5" fill="#73daca"/>
<circle cx="98.1" cy="1380.0" r="2.5" fill="#73daca"/>
<circle cx="474.7" cy="1380.0" r="2.5" fill="#73daca"/>
<circle cx="20.0" cy="20.0" r="2.5" fill="#c0caf5"/>
<circle cx="1380.0" cy="1337.0" r="2.5" fill="#f4a6c0"/>
<circle cx="915.3" cy="22.4" r="9.1" fill="#f4a6c0"/>
<circle cx="1077.3" cy="430.2" r="2.5" fill="#f4a6c0"/>
<circle cx="1051.2" cy="349.7" r="2.5" fill="#f4a6c0"/>
<circle cx="522.0" cy="1380.0" r="2.5" fill="#f4a6c0"/>
<circle cx="400.6" cy="20.0" r="2.5" fill="#f4a6c0"/>
<circle cx="361.7" cy="20.0" r="2.5" fill="#f4a6c0"/>
<circle cx="443.8" cy="20.0" r="2.5" fill="#f4a6c0"/>
<circle cx="1026.2" cy="166.1" r="2.5" fill="#f4a6c0"/>
<circle cx="769.7" cy="20.0" r="2.5" fill="#f4a6c0"/>
<circle cx="971.8" cy="81.9" r="2.5" fill="#f4a6c0"/>
<circle cx="858.4" cy="140.4" r="2.5" fill="#f4a6c0"/>
<circle cx="419.4" cy="563.5" r="2.5" fill="#f4a6c0"/>
<circle cx="1183.3" cy="172.5" r="2.5" fill="#f4a6c0"/>
<circle cx="965.7" cy="469.6" r="2.5" fill="#f4a6c0"/>
<circle cx="749.2" cy="110.6" r="5.9" fill="#f4a6c0"/>
<circle cx="731.4" cy="20.0" r="2.5" fill="#f4a6c0"/>
<circle cx="992.6" cy="147.5" r="2.5" fill="#f4a6c0"/>
<circle cx="150.1" cy="322.8" r="2.5" fill="#f4a6c0"/>
<circle cx="371.3" cy="143.6" r="2.5" fill="#f4a6c0"/>
<circle cx="20.0" cy="20.0" r="2.5" fill="#f4a6c0"/>
<circle cx="322.4" cy="30.7" r="2.5" fill="#f4a6c0"/>
<circle cx="736.9" cy="401.8" r="2.5" fill="#f4a6c0"/>
<circle cx="943.7" cy="248.6" r="2.5" fill="#f4a6c0"/>
<circle cx="1380.0" cy="1380.0" r="2.5" fill="#f4a6c0"/>
<circle cx="652.3" cy="225.5" r="2.5" fill="#f4a6c0"/>
<circle cx="1070.8" cy="390.7" r="2.5" fill="#f4a6c0"/>
<circle cx="1027.8" cy="131.3" r="2.5" fill="#f4a6c0"/>
<circle cx="549.0" cy="607.8" r="2.5" fill="#f4a6c0"/>
<circle cx="880.6" cy="167.1" r="2.5" fill="#f4a6c0"/>
<circle cx="1003.6" cy="104.5" r="2.5" fill="#f4a6c0"/>
<circle cx="819.2" cy="176.7" r="2.5" fill="#f4a6c0"/>
<circle cx="964.5" cy="119.7" r="2.5" fill="#f4a6c0"/>
<circle cx="548.6" cy="20.0" r="2.5" fill="#f4a6c0"/>
<circle cx="266.6" cy="124.4" r="2.5" fill="#f4a6c0"/>
<circle cx="922.3" cy="179.2" r="2.5" fill="#f4a6c0"/>
<circle cx="518.3" cy="877.2" r="2.5" fill="#f4a6c0"/>
<circle cx="873.8" cy="25.1" r="9.3" fill="#f4a6c0"/>
<circle cx="710.3" cy="733.0" r="2.5" fill="#f4a6c0"/>
<circle cx="1380.0" cy="20.0" r="2.5" fill="#f4a6c0"/>
<circle cx="933.8" cy="86.3" r="2.5" fill="#f4a6c0"/>
<circle cx="1263.8" cy="1380.0" r="2.5" fill="#a9b1d6"/>
<circle cx="1380.0" cy="20.0" r="2.5" fill="#8ab4ff"/>
<circle cx="1080.0" cy="1158.4" r="6.7" fill="#ff9e64"/>
<circle cx="51.1" cy="20.0" r="2.5" fill="#9ece6a"/>
<circle cx="1198.4" cy="698.7" r="2.5" fill="#9ece6a"/>
<circle cx="931.1" cy="599.4" r="2.5" fill="#f7768e"/>
<circle cx="296.9" cy="76.8" r="2.5" fill="#bb9af7"/>
<circle cx="1380.0" cy="1380.0" r="2.5" fill="#7dcfff"/>
<circle cx="1363.6" cy="20.0" r="2.5" fill="#e0af68"/>
<circle cx="20.0" cy="1380.0" r="2.5" fill="#73daca"/>
<text x="776.6" y="397.1" fill="#e8eaf0" font-size="11">models.py (118)</text>
<text x="636.6" y="399.5" fill="#e8eaf0" font-size="11">system_settings.py (105)</text>
<text x="837.4" y="414.1" fill="#e8eaf0" font-size="11">__init__.py (74)</text>
<text x="680.0" y="510.2" fill="#e8eaf0" font-size="11">betterJSONSerializer.py (61)</text>
<text x="864.5" y="607.6" fill="#e8eaf0" font-size="11">response.py (41)</text>
<text x="780.5" y="523.5" fill="#e8eaf0" font-size="11">permission_backend.py (37)</text>
<text x="484.4" y="514.1" fill="#e8eaf0" font-size="11">elasticsearch_dsl_builder.py (33)</text>
<text x="647.9" y="444.0" fill="#e8eaf0" font-size="11">datatypes.py (32)</text>
<text x="695.3" y="489.4" fill="#e8eaf0" font-size="11">resource.py (27)</text>
<text x="573.8" y="502.6" fill="#e8eaf0" font-size="11">search_engine_factory.py (23)</text>
<text x="895.2" y="693.4" fill="#e8eaf0" font-size="11">__init__.py (21)</text>
<text x="584.9" y="449.2" fill="#e8eaf0" font-size="11">mappings.py (18)</text>
</svg>